<svg width="746" height="305" viewBox="0 0 746 305" fill="none" xmlns="http://www.w3.org/2000/svg">
<path d="M0 14.359C0 6.42874 6.42873 0 14.359 0H218.974C226.905 0 233.333 6.42873 233.333 14.359V93.3333H0V14.359Z" fill="#FEA800"/>
<path d="M0 93.333H46.6667V140H14.359C6.42875 140 0 133.571 0 125.641V93.333Z" fill="#FFB524"/>
<rect x="46.666" y="93.333" width="46.6667" height="46.6667" fill="#FFC148"/>
<rect x="93.334" y="93.333" width="46.6667" height="46.6667" fill="#FFCD6D"/>
<rect x="140" y="93.333" width="46.6667" height="46.6667" fill="#FFE6B6"/>
<path d="M186.666 93.333H233.333V125.641C233.333 133.571 226.904 140 218.974 140H186.666V93.333Z" fill="#FFF3DA"/>
<path d="M36.39 66.12C35.8433 66.12 35.3333 66.0233 34.86 65.83C34.3867 65.6367 33.9733 65.3667 33.62 65.02C33.2667 64.6733 32.99 64.2667 32.79 63.8C32.5967 63.3267 32.5 62.8167 32.5 62.27C32.5 61.7167 32.5967 61.2067 32.79 60.74C32.9833 60.2733 33.2567 59.8667 33.61 59.52C33.9633 59.1733 34.3767 58.9067 34.85 58.72C35.3233 58.5267 35.8367 58.43 36.39 58.43C36.9433 58.43 37.4567 58.5267 37.93 58.72C38.4033 58.9133 38.8167 59.1833 39.17 59.53C39.5233 59.87 39.7967 60.2733 39.99 60.74C40.19 61.2067 40.29 61.7167 40.29 62.27C40.29 62.8167 40.19 63.3267 39.99 63.8C39.79 64.2667 39.5133 64.6733 39.16 65.02C38.8067 65.3667 38.3933 65.6367 37.92 65.83C37.4533 66.0233 36.9433 66.12 36.39 66.12ZM36.39 64.88C36.7567 64.88 37.0933 64.8167 37.4 64.69C37.7067 64.5567 37.9733 64.3733 38.2 64.14C38.4333 63.9067 38.61 63.63 38.73 63.31C38.8567 62.99 38.92 62.6433 38.92 62.27C38.92 61.8967 38.8567 61.5533 38.73 61.24C38.61 60.92 38.4333 60.6433 38.2 60.41C37.9733 60.17 37.7067 59.9867 37.4 59.86C37.0933 59.7333 36.7567 59.67 36.39 59.67C36.03 59.67 35.6967 59.7333 35.39 59.86C35.0833 59.9867 34.8133 60.17 34.58 60.41C34.3533 60.6433 34.1767 60.92 34.05 61.24C33.9233 61.5533 33.86 61.8967 33.86 62.27C33.86 62.6433 33.9233 62.99 34.05 63.31C34.1767 63.63 34.3533 63.9067 34.58 64.14C34.8133 64.3733 35.0833 64.5567 35.39 64.69C35.6967 64.8167 36.03 64.88 36.39 64.88ZM42.4993 66V58.55H45.2693C45.776 58.55 46.2226 58.6433 46.6093 58.83C47.0026 59.01 47.3093 59.2767 47.5293 59.63C47.7493 59.9767 47.8593 60.4 47.8593 60.9C47.8593 61.4133 47.736 61.85 47.4893 62.21C47.2493 62.57 46.9226 62.8367 46.5093 63.01L48.2193 66H46.6793L44.8493 62.73L45.7293 63.25H43.8593V66H42.4993ZM43.8593 62.05H45.2893C45.536 62.05 45.7493 62.0033 45.9293 61.91C46.1093 61.81 46.2493 61.6733 46.3493 61.5C46.4493 61.3267 46.4993 61.1267 46.4993 60.9C46.4993 60.6667 46.4493 60.4667 46.3493 60.3C46.2493 60.1267 46.1093 59.9933 45.9293 59.9C45.7493 59.8 45.536 59.75 45.2893 59.75H43.8593V62.05ZM49.5006 66L52.0706 58.55H53.8306L56.4006 66H54.9206L54.3906 64.4H51.5106L50.9706 66H49.5006ZM51.9006 63.2H54.0006L52.7606 59.49H53.1406L51.9006 63.2ZM58.2298 66V58.55H59.2898L63.3898 64.07L62.8398 64.18V58.55H64.1998V66H63.1298L59.0898 60.44L59.5898 60.33V66H58.2298ZM70.1719 66.12C69.6385 66.12 69.1452 66.0233 68.6919 65.83C68.2385 65.6367 67.8419 65.3667 67.5019 65.02C67.1619 64.6733 66.8952 64.2667 66.7019 63.8C66.5152 63.3333 66.4219 62.8233 66.4219 62.27C66.4219 61.7167 66.5119 61.2067 66.6919 60.74C66.8785 60.2667 67.1385 59.86 67.4719 59.52C67.8119 59.1733 68.2085 58.9067 68.6619 58.72C69.1152 58.5267 69.6085 58.43 70.1419 58.43C70.6752 58.43 71.1519 58.52 71.5719 58.7C71.9985 58.88 72.3585 59.12 72.6519 59.42C72.9452 59.7133 73.1552 60.0367 73.2819 60.39L72.0719 60.97C71.9319 60.5833 71.6952 60.27 71.3619 60.03C71.0285 59.79 70.6219 59.67 70.1419 59.67C69.6752 59.67 69.2619 59.78 68.9019 60C68.5485 60.22 68.2719 60.5233 68.0719 60.91C67.8785 61.2967 67.7819 61.75 67.7819 62.27C67.7819 62.79 67.8819 63.2467 68.0819 63.64C68.2885 64.0267 68.5719 64.33 68.9319 64.55C69.2919 64.77 69.7052 64.88 70.1719 64.88C70.5519 64.88 70.9019 64.8067 71.2219 64.66C71.5419 64.5067 71.7985 64.2933 71.9919 64.02C72.1852 63.74 72.2819 63.41 72.2819 63.03V62.46L72.9019 63H70.1419V61.85H73.6419V62.6C73.6419 63.1733 73.5452 63.68 73.3519 64.12C73.1585 64.56 72.8952 64.93 72.5619 65.23C72.2352 65.5233 71.8652 65.7467 71.4519 65.9C71.0385 66.0467 70.6119 66.12 70.1719 66.12ZM75.718 66V58.55H80.668V59.75H77.078V61.66H80.468V62.86H77.078V64.8H80.668V66H75.718ZM87.0527 67.7C86.4927 67.0467 86.0693 66.3367 85.7827 65.57C85.5027 64.8033 85.3627 63.9867 85.3627 63.12C85.3627 62.2533 85.5027 61.4367 85.7827 60.67C86.0627 59.9033 86.486 59.1967 87.0527 58.55H88.1527C87.6727 59.2633 87.3127 60.0033 87.0727 60.77C86.8393 61.53 86.7227 62.3133 86.7227 63.12C86.7227 63.9267 86.8427 64.7133 87.0827 65.48C87.3227 66.2467 87.6793 66.9867 88.1527 67.7H87.0527ZM91.6217 66L89.6217 58.55H91.0817L92.6517 64.9H92.2717L93.9117 58.55H95.3217L96.9517 64.9H96.5717L98.1417 58.55H99.6017L97.6017 66H96.0417L94.3917 59.82H94.8317L93.1817 66H91.6217ZM100.417 66L102.987 58.55H104.747L107.317 66H105.837L105.307 64.4H102.427L101.887 66H100.417ZM102.817 63.2H104.917L103.677 59.49H104.057L102.817 63.2ZM109.146 66V58.55H111.916C112.422 58.55 112.869 58.6433 113.256 58.83C113.649 59.01 113.956 59.2767 114.176 59.63C114.396 59.9767 114.506 60.4 114.506 60.9C114.506 61.4133 114.382 61.85 114.136 62.21C113.896 62.57 113.569 62.8367 113.156 63.01L114.866 66H113.326L111.496 62.73L112.376 63.25H110.506V66H109.146ZM110.506 62.05H111.936C112.182 62.05 112.396 62.0033 112.576 61.91C112.756 61.81 112.896 61.6733 112.996 61.5C113.096 61.3267 113.146 61.1267 113.146 60.9C113.146 60.6667 113.096 60.4667 112.996 60.3C112.896 60.1267 112.756 59.9933 112.576 59.9C112.396 59.8 112.182 59.75 111.936 59.75H110.506V62.05ZM116.757 66V58.55H117.817L121.917 64.07L121.367 64.18V58.55H122.727V66H121.657L117.617 60.44L118.117 60.33V66H116.757ZM125.169 66V58.55H126.529V66H125.169ZM128.962 66V58.55H130.022L134.122 64.07L133.572 64.18V58.55H134.932V66H133.862L129.822 60.44L130.322 60.33V66H128.962ZM140.904 66.12C140.371 66.12 139.878 66.0233 139.424 65.83C138.971 65.6367 138.574 65.3667 138.234 65.02C137.894 64.6733 137.628 64.2667 137.434 63.8C137.248 63.3333 137.154 62.8233 137.154 62.27C137.154 61.7167 137.244 61.2067 137.424 60.74C137.611 60.2667 137.871 59.86 138.204 59.52C138.544 59.1733 138.941 58.9067 139.394 58.72C139.848 58.5267 140.341 58.43 140.874 58.43C141.408 58.43 141.884 58.52 142.304 58.7C142.731 58.88 143.091 59.12 143.384 59.42C143.678 59.7133 143.888 60.0367 144.014 60.39L142.804 60.97C142.664 60.5833 142.428 60.27 142.094 60.03C141.761 59.79 141.354 59.67 140.874 59.67C140.408 59.67 139.994 59.78 139.634 60C139.281 60.22 139.004 60.5233 138.804 60.91C138.611 61.2967 138.514 61.75 138.514 62.27C138.514 62.79 138.614 63.2467 138.814 63.64C139.021 64.0267 139.304 64.33 139.664 64.55C140.024 64.77 140.438 64.88 140.904 64.88C141.284 64.88 141.634 64.8067 141.954 64.66C142.274 64.5067 142.531 64.2933 142.724 64.02C142.918 63.74 143.014 63.41 143.014 63.03V62.46L143.634 63H140.874V61.85H144.374V62.6C144.374 63.1733 144.278 63.68 144.084 64.12C143.891 64.56 143.628 64.93 143.294 65.23C142.968 65.5233 142.598 65.7467 142.184 65.9C141.771 66.0467 141.344 66.12 140.904 66.12ZM146.1 67.7C146.574 66.9867 146.927 66.2467 147.16 65.48C147.4 64.7133 147.52 63.9267 147.52 63.12C147.52 62.3133 147.4 61.53 147.16 60.77C146.927 60.0033 146.574 59.2633 146.1 58.55H147.2C147.76 59.1967 148.18 59.9033 148.46 60.67C148.74 61.4367 148.88 62.2533 148.88 63.12C148.88 63.9867 148.74 64.8033 148.46 65.57C148.18 66.3367 147.76 67.0467 147.2 67.7H146.1Z" fill="white"/>
<path d="M256.333 14.4C256.333 6.44709 262.78 0 270.733 0H475.933C483.886 0 490.333 6.4471 490.333 14.4V93.6H256.333V14.4Z" fill="#040415"/>
<path d="M256.333 93.6001H303.133V140.4H270.733C262.78 140.4 256.333 133.953 256.333 126V93.6001Z" fill="#0F0E0E"/>
<rect x="303.133" y="93.6001" width="46.8" height="46.8" fill="#100F0F"/>
<rect x="349.933" y="93.6001" width="46.8" height="46.8" fill="#1A1A1A"/>
<rect x="396.733" y="93.6001" width="46.8" height="46.8" fill="#202020"/>
<path d="M443.533 93.6001H490.333V126C490.333 133.953 483.886 140.4 475.933 140.4H443.533V93.6001Z" fill="#484848"/>
<path d="M289.104 66.1719V58.7219H292.244C292.737 58.7219 293.157 58.8085 293.504 58.9819C293.857 59.1485 294.127 59.3885 294.314 59.7019C294.507 60.0085 294.604 60.3819 294.604 60.8219C294.604 61.1619 294.511 61.4819 294.324 61.7819C294.144 62.0752 293.854 62.3185 293.454 62.5119V61.8819C293.821 62.0219 294.111 62.1952 294.324 62.4019C294.537 62.6085 294.687 62.8385 294.774 63.0919C294.861 63.3452 294.904 63.6119 294.904 63.8919C294.904 64.6052 294.667 65.1652 294.194 65.5719C293.727 65.9719 293.077 66.1719 292.244 66.1719H289.104ZM290.464 64.9719H292.384C292.737 64.9719 293.017 64.8752 293.224 64.6819C293.437 64.4819 293.544 64.2185 293.544 63.8919C293.544 63.5652 293.437 63.3019 293.224 63.1019C293.017 62.9019 292.737 62.8019 292.384 62.8019H290.464V64.9719ZM290.464 61.6119H292.314C292.594 61.6119 292.817 61.5319 292.984 61.3719C293.151 61.2052 293.234 60.9919 293.234 60.7319C293.234 60.4719 293.151 60.2652 292.984 60.1119C292.817 59.9585 292.594 59.8819 292.314 59.8819H290.464V61.6119ZM297.018 66.1719V58.7219H298.378V64.9719H301.568V66.1719H297.018ZM302.838 66.1719L305.408 58.7219H307.168L309.738 66.1719H308.258L307.728 64.5719H304.848L304.308 66.1719H302.838ZM305.238 63.3719H307.338L306.098 59.6619H306.478L305.238 63.3719ZM314.764 66.2919C314.231 66.2919 313.738 66.1952 313.284 66.0019C312.838 65.8085 312.444 65.5385 312.104 65.1919C311.771 64.8452 311.511 64.4385 311.324 63.9719C311.138 63.5052 311.044 62.9952 311.044 62.4419C311.044 61.8885 311.134 61.3785 311.314 60.9119C311.501 60.4385 311.761 60.0319 312.094 59.6919C312.434 59.3452 312.831 59.0785 313.284 58.8919C313.738 58.6985 314.231 58.6019 314.764 58.6019C315.298 58.6019 315.774 58.6919 316.194 58.8719C316.621 59.0519 316.981 59.2919 317.274 59.5919C317.568 59.8852 317.778 60.2085 317.904 60.5619L316.684 61.1319C316.544 60.7585 316.308 60.4519 315.974 60.2119C315.641 59.9652 315.238 59.8419 314.764 59.8419C314.298 59.8419 313.884 59.9519 313.524 60.1719C313.171 60.3919 312.894 60.6952 312.694 61.0819C312.501 61.4685 312.404 61.9219 312.404 62.4419C312.404 62.9619 312.501 63.4185 312.694 63.8119C312.894 64.1985 313.171 64.5019 313.524 64.7219C313.884 64.9419 314.298 65.0519 314.764 65.0519C315.238 65.0519 315.641 64.9319 315.974 64.6919C316.308 64.4452 316.544 64.1352 316.684 63.7619L317.904 64.3319C317.778 64.6852 317.568 65.0119 317.274 65.3119C316.981 65.6052 316.621 65.8419 316.194 66.0219C315.774 66.2019 315.298 66.2919 314.764 66.2919ZM320.008 66.1719V58.7219H321.368V62.6019L320.998 62.4719L324.168 58.7219H325.878L322.908 62.2419L322.988 61.2819L325.968 66.1719H324.368L322.368 62.8919L321.368 64.0819V66.1719H320.008Z" fill="white"/>
<path d="M0 178.759C0 170.829 6.42873 164.4 14.359 164.4H218.974C226.905 164.4 233.333 170.829 233.333 178.759V257.733H0V178.759Z" fill="#307A0B"/>
<path d="M0 257.733H46.6667V304.4H14.359C6.42875 304.4 0 297.971 0 290.041V257.733Z" fill="#4AC443"/>
<rect x="46.666" y="257.733" width="46.6667" height="46.6667" fill="#68CE62"/>
<rect x="93.334" y="257.733" width="46.6667" height="46.6667" fill="#86D882"/>
<rect x="140" y="257.733" width="46.6667" height="46.6667" fill="#C3EBC0"/>
<path d="M186.666 257.733H233.333V286.451C233.333 296.364 225.297 304.4 215.384 304.4H186.666V257.733Z" fill="#E1F5E0"/>
<path d="M36.25 230.52C35.7167 230.52 35.2233 230.423 34.77 230.23C34.3167 230.037 33.92 229.767 33.58 229.42C33.24 229.073 32.9733 228.667 32.78 228.2C32.5933 227.733 32.5 227.223 32.5 226.67C32.5 226.117 32.59 225.607 32.77 225.14C32.9567 224.667 33.2167 224.26 33.55 223.92C33.89 223.573 34.2867 223.307 34.74 223.12C35.1933 222.927 35.6867 222.83 36.22 222.83C36.7533 222.83 37.23 222.92 37.65 223.1C38.0767 223.28 38.4367 223.52 38.73 223.82C39.0233 224.113 39.2333 224.437 39.36 224.79L38.15 225.37C38.01 224.983 37.7733 224.67 37.44 224.43C37.1067 224.19 36.7 224.07 36.22 224.07C35.7533 224.07 35.34 224.18 34.98 224.4C34.6267 224.62 34.35 224.923 34.15 225.31C33.9567 225.697 33.86 226.15 33.86 226.67C33.86 227.19 33.96 227.647 34.16 228.04C34.3667 228.427 34.65 228.73 35.01 228.95C35.37 229.17 35.7833 229.28 36.25 229.28C36.63 229.28 36.98 229.207 37.3 229.06C37.62 228.907 37.8767 228.693 38.07 228.42C38.2633 228.14 38.36 227.81 38.36 227.43V226.86L38.98 227.4H36.22V226.25H39.72V227C39.72 227.573 39.6233 228.08 39.43 228.52C39.2367 228.96 38.9733 229.33 38.64 229.63C38.3133 229.923 37.9433 230.147 37.53 230.3C37.1167 230.447 36.69 230.52 36.25 230.52ZM41.7962 230.4V222.95H44.5662C45.0728 222.95 45.5195 223.043 45.9062 223.23C46.2995 223.41 46.6062 223.677 46.8262 224.03C47.0462 224.377 47.1562 224.8 47.1562 225.3C47.1562 225.813 47.0328 226.25 46.7862 226.61C46.5462 226.97 46.2195 227.237 45.8062 227.41L47.5162 230.4H45.9762L44.1462 227.13L45.0262 227.65H43.1562V230.4H41.7962ZM43.1562 226.45H44.5862C44.8328 226.45 45.0462 226.403 45.2262 226.31C45.4062 226.21 45.5462 226.073 45.6462 225.9C45.7462 225.727 45.7962 225.527 45.7962 225.3C45.7962 225.067 45.7462 224.867 45.6462 224.7C45.5462 224.527 45.4062 224.393 45.2262 224.3C45.0462 224.2 44.8328 224.15 44.5862 224.15H43.1562V226.45ZM49.4075 230.4V222.95H54.3575V224.15H50.7675V226.06H54.1575V227.26H50.7675V229.2H54.3575V230.4H49.4075ZM56.3548 230.4V222.95H61.3048V224.15H57.7148V226.06H61.1048V227.26H57.7148V229.2H61.3048V230.4H56.3548ZM63.302 230.4V222.95H64.362L68.462 228.47L67.912 228.58V222.95H69.272V230.4H68.202L64.162 224.84L64.662 224.73V230.4H63.302ZM76.1015 232.1C75.5415 231.447 75.1182 230.737 74.8315 229.97C74.5515 229.203 74.4115 228.387 74.4115 227.52C74.4115 226.653 74.5515 225.837 74.8315 225.07C75.1115 224.303 75.5348 223.597 76.1015 222.95H77.2015C76.7215 223.663 76.3615 224.403 76.1215 225.17C75.8882 225.93 75.7715 226.713 75.7715 227.52C75.7715 228.327 75.8915 229.113 76.1315 229.88C76.3715 230.647 76.7282 231.387 77.2015 232.1H76.1015ZM81.9405 230.52C81.4672 230.52 81.0272 230.433 80.6205 230.26C80.2205 230.087 79.8739 229.847 79.5805 229.54C79.2939 229.227 79.0839 228.863 78.9505 228.45L80.0805 227.96C80.2605 228.387 80.5205 228.723 80.8605 228.97C81.2005 229.21 81.5839 229.33 82.0105 229.33C82.2505 229.33 82.4572 229.293 82.6305 229.22C82.8105 229.14 82.9472 229.033 83.0405 228.9C83.1405 228.767 83.1905 228.607 83.1905 228.42C83.1905 228.2 83.1239 228.02 82.9905 227.88C82.8639 227.733 82.6705 227.62 82.4105 227.54L80.9805 227.08C80.4005 226.9 79.9639 226.63 79.6705 226.27C79.3772 225.91 79.2305 225.487 79.2305 225C79.2305 224.573 79.3339 224.197 79.5405 223.87C79.7539 223.543 80.0472 223.29 80.4205 223.11C80.8005 222.923 81.2339 222.83 81.7205 222.83C82.1672 222.83 82.5772 222.91 82.9505 223.07C83.3239 223.223 83.6439 223.44 83.9105 223.72C84.1839 223.993 84.3872 224.317 84.5205 224.69L83.4005 225.19C83.2539 224.817 83.0339 224.53 82.7405 224.33C82.4472 224.123 82.1072 224.02 81.7205 224.02C81.4939 224.02 81.2939 224.06 81.1205 224.14C80.9472 224.213 80.8105 224.32 80.7105 224.46C80.6172 224.593 80.5705 224.753 80.5705 224.94C80.5705 225.147 80.6372 225.33 80.7705 225.49C80.9039 225.643 81.1072 225.763 81.3805 225.85L82.7505 226.28C83.3439 226.473 83.7872 226.74 84.0805 227.08C84.3805 227.42 84.5305 227.84 84.5305 228.34C84.5305 228.767 84.4205 229.143 84.2005 229.47C83.9805 229.797 83.6772 230.053 83.2905 230.24C82.9039 230.427 82.4539 230.52 81.9405 230.52ZM89.6252 230.52C89.0518 230.52 88.5418 230.4 88.0952 230.16C87.6552 229.92 87.3085 229.59 87.0552 229.17C86.8018 228.75 86.6752 228.273 86.6752 227.74V222.95H88.0352V227.67C88.0352 227.977 88.1018 228.253 88.2352 228.5C88.3752 228.747 88.5652 228.94 88.8052 229.08C89.0452 229.213 89.3185 229.28 89.6252 229.28C89.9385 229.28 90.2118 229.213 90.4452 229.08C90.6852 228.94 90.8718 228.747 91.0052 228.5C91.1452 228.253 91.2152 227.977 91.2152 227.67V222.95H92.5752V227.74C92.5752 228.273 92.4485 228.75 92.1952 229.17C91.9418 229.59 91.5918 229.92 91.1452 230.16C90.7052 230.4 90.1985 230.52 89.6252 230.52ZM98.4329 230.52C97.8996 230.52 97.4062 230.423 96.9529 230.23C96.5062 230.037 96.1129 229.767 95.7729 229.42C95.4396 229.073 95.1796 228.667 94.9929 228.2C94.8062 227.733 94.7129 227.223 94.7129 226.67C94.7129 226.117 94.8029 225.607 94.9829 225.14C95.1696 224.667 95.4296 224.26 95.7629 223.92C96.1029 223.573 96.4996 223.307 96.9529 223.12C97.4062 222.927 97.8996 222.83 98.4329 222.83C98.9662 222.83 99.4429 222.92 99.8629 223.1C100.29 223.28 100.65 223.52 100.943 223.82C101.236 224.113 101.446 224.437 101.573 224.79L100.353 225.36C100.213 224.987 99.9762 224.68 99.6429 224.44C99.3096 224.193 98.9062 224.07 98.4329 224.07C97.9662 224.07 97.5529 224.18 97.1929 224.4C96.8396 224.62 96.5629 224.923 96.3629 225.31C96.1696 225.697 96.0729 226.15 96.0729 226.67C96.0729 227.19 96.1696 227.647 96.3629 228.04C96.5629 228.427 96.8396 228.73 97.1929 228.95C97.5529 229.17 97.9662 229.28 98.4329 229.28C98.9062 229.28 99.3096 229.16 99.6429 228.92C99.9762 228.673 100.213 228.363 100.353 227.99L101.573 228.56C101.446 228.913 101.236 229.24 100.943 229.54C100.65 229.833 100.29 230.07 99.8629 230.25C99.4429 230.43 98.9662 230.52 98.4329 230.52ZM107.177 230.52C106.644 230.52 106.15 230.423 105.697 230.23C105.25 230.037 104.857 229.767 104.517 229.42C104.184 229.073 103.924 228.667 103.737 228.2C103.55 227.733 103.457 227.223 103.457 226.67C103.457 226.117 103.547 225.607 103.727 225.14C103.914 224.667 104.174 224.26 104.507 223.92C104.847 223.573 105.244 223.307 105.697 223.12C106.15 222.927 106.644 222.83 107.177 222.83C107.71 222.83 108.187 222.92 108.607 223.1C109.034 223.28 109.394 223.52 109.687 223.82C109.98 224.113 110.19 224.437 110.317 224.79L109.097 225.36C108.957 224.987 108.72 224.68 108.387 224.44C108.054 224.193 107.65 224.07 107.177 224.07C106.71 224.07 106.297 224.18 105.937 224.4C105.584 224.62 105.307 224.923 105.107 225.31C104.914 225.697 104.817 226.15 104.817 226.67C104.817 227.19 104.914 227.647 105.107 228.04C105.307 228.427 105.584 228.73 105.937 228.95C106.297 229.17 106.71 229.28 107.177 229.28C107.65 229.28 108.054 229.16 108.387 228.92C108.72 228.673 108.957 228.363 109.097 227.99L110.317 228.56C110.19 228.913 109.98 229.24 109.687 229.54C109.394 229.833 109.034 230.07 108.607 230.25C108.187 230.43 107.71 230.52 107.177 230.52ZM112.421 230.4V222.95H117.371V224.15H113.781V226.06H117.171V227.26H113.781V229.2H117.371V230.4H112.421ZM122.028 230.52C121.555 230.52 121.115 230.433 120.708 230.26C120.308 230.087 119.962 229.847 119.668 229.54C119.382 229.227 119.172 228.863 119.038 228.45L120.168 227.96C120.348 228.387 120.608 228.723 120.948 228.97C121.288 229.21 121.672 229.33 122.098 229.33C122.338 229.33 122.545 229.293 122.718 229.22C122.898 229.14 123.035 229.033 123.128 228.9C123.228 228.767 123.278 228.607 123.278 228.42C123.278 228.2 123.212 228.02 123.078 227.88C122.952 227.733 122.758 227.62 122.498 227.54L121.068 227.08C120.488 226.9 120.052 226.63 119.758 226.27C119.465 225.91 119.318 225.487 119.318 225C119.318 224.573 119.422 224.197 119.628 223.87C119.842 223.543 120.135 223.29 120.508 223.11C120.888 222.923 121.322 222.83 121.808 222.83C122.255 222.83 122.665 222.91 123.038 223.07C123.412 223.223 123.732 223.44 123.998 223.72C124.272 223.993 124.475 224.317 124.608 224.69L123.488 225.19C123.342 224.817 123.122 224.53 122.828 224.33C122.535 224.123 122.195 224.02 121.808 224.02C121.582 224.02 121.382 224.06 121.208 224.14C121.035 224.213 120.898 224.32 120.798 224.46C120.705 224.593 120.658 224.753 120.658 224.94C120.658 225.147 120.725 225.33 120.858 225.49C120.992 225.643 121.195 225.763 121.468 225.85L122.838 226.28C123.432 226.473 123.875 226.74 124.168 227.08C124.468 227.42 124.618 227.84 124.618 228.34C124.618 228.767 124.508 229.143 124.288 229.47C124.068 229.797 123.765 230.053 123.378 230.24C122.992 230.427 122.542 230.52 122.028 230.52ZM129.503 230.52C129.03 230.52 128.59 230.433 128.183 230.26C127.783 230.087 127.436 229.847 127.143 229.54C126.856 229.227 126.646 228.863 126.513 228.45L127.643 227.96C127.823 228.387 128.083 228.723 128.423 228.97C128.763 229.21 129.146 229.33 129.573 229.33C129.813 229.33 130.02 229.293 130.193 229.22C130.373 229.14 130.51 229.033 130.603 228.9C130.703 228.767 130.753 228.607 130.753 228.42C130.753 228.2 130.686 228.02 130.553 227.88C130.426 227.733 130.233 227.62 129.973 227.54L128.543 227.08C127.963 226.9 127.526 226.63 127.233 226.27C126.94 225.91 126.793 225.487 126.793 225C126.793 224.573 126.896 224.197 127.103 223.87C127.316 223.543 127.61 223.29 127.983 223.11C128.363 222.923 128.796 222.83 129.283 222.83C129.73 222.83 130.14 222.91 130.513 223.07C130.886 223.223 131.206 223.44 131.473 223.72C131.746 223.993 131.95 224.317 132.083 224.69L130.963 225.19C130.816 224.817 130.596 224.53 130.303 224.33C130.01 224.123 129.67 224.02 129.283 224.02C129.056 224.02 128.856 224.06 128.683 224.14C128.51 224.213 128.373 224.32 128.273 224.46C128.18 224.593 128.133 224.753 128.133 224.94C128.133 225.147 128.2 225.33 128.333 225.49C128.466 225.643 128.67 225.763 128.943 225.85L130.313 226.28C130.906 226.473 131.35 226.74 131.643 227.08C131.943 227.42 132.093 227.84 132.093 228.34C132.093 228.767 131.983 229.143 131.763 229.47C131.543 229.797 131.24 230.053 130.853 230.24C130.466 230.427 130.016 230.52 129.503 230.52ZM133.968 232.1C134.441 231.387 134.794 230.647 135.028 229.88C135.268 229.113 135.388 228.327 135.388 227.52C135.388 226.713 135.268 225.93 135.028 225.17C134.794 224.403 134.441 223.663 133.968 222.95H135.068C135.628 223.597 136.048 224.303 136.328 225.07C136.608 225.837 136.748 226.653 136.748 227.52C136.748 228.387 136.608 229.203 136.328 229.97C136.048 230.737 135.628 231.447 135.068 232.1H133.968Z" fill="white"/>
<path d="M255.833 178.759C255.833 170.829 262.262 164.4 270.192 164.4H474.808C482.738 164.4 489.167 170.829 489.167 178.759V257.733H255.833V178.759Z" fill="#F15223"/>
<path d="M255.833 257.733H302.5V304.4H270.192C262.262 304.4 255.833 297.971 255.833 290.041V257.733Z" fill="#F4754F"/>
<rect x="302.499" y="257.733" width="46.6667" height="46.6667" fill="#F7977B"/>
<rect x="349.167" y="257.733" width="46.6667" height="46.6667" fill="#F9BAA7"/>
<rect x="395.833" y="257.733" width="46.6667" height="46.6667" fill="#FCDCD3"/>
<path d="M442.499 257.733H489.166V290.041C489.166 297.971 482.737 304.4 474.807 304.4H442.499V257.733Z" fill="#FEEEE9"/>
<path d="M292.223 230.52C291.677 230.52 291.167 230.423 290.693 230.23C290.22 230.037 289.807 229.767 289.453 229.42C289.1 229.073 288.823 228.667 288.623 228.2C288.43 227.727 288.333 227.217 288.333 226.67C288.333 226.117 288.43 225.607 288.623 225.14C288.817 224.673 289.09 224.267 289.443 223.92C289.797 223.573 290.21 223.307 290.683 223.12C291.157 222.927 291.67 222.83 292.223 222.83C292.777 222.83 293.29 222.927 293.763 223.12C294.237 223.313 294.65 223.583 295.003 223.93C295.357 224.27 295.63 224.673 295.823 225.14C296.023 225.607 296.123 226.117 296.123 226.67C296.123 227.217 296.023 227.727 295.823 228.2C295.623 228.667 295.347 229.073 294.993 229.42C294.64 229.767 294.227 230.037 293.753 230.23C293.287 230.423 292.777 230.52 292.223 230.52ZM292.223 229.28C292.59 229.28 292.927 229.217 293.233 229.09C293.54 228.957 293.807 228.773 294.033 228.54C294.267 228.307 294.443 228.03 294.563 227.71C294.69 227.39 294.753 227.043 294.753 226.67C294.753 226.297 294.69 225.953 294.563 225.64C294.443 225.32 294.267 225.043 294.033 224.81C293.807 224.57 293.54 224.387 293.233 224.26C292.927 224.133 292.59 224.07 292.223 224.07C291.863 224.07 291.53 224.133 291.223 224.26C290.917 224.387 290.647 224.57 290.413 224.81C290.187 225.043 290.01 225.32 289.883 225.64C289.757 225.953 289.693 226.297 289.693 226.67C289.693 227.043 289.757 227.39 289.883 227.71C290.01 228.03 290.187 228.307 290.413 228.54C290.647 228.773 290.917 228.957 291.223 229.09C291.53 229.217 291.863 229.28 292.223 229.28ZM298.333 230.4V222.95H301.103C301.609 222.95 302.056 223.043 302.443 223.23C302.836 223.41 303.143 223.677 303.363 224.03C303.583 224.377 303.693 224.8 303.693 225.3C303.693 225.813 303.569 226.25 303.323 226.61C303.083 226.97 302.756 227.237 302.343 227.41L304.053 230.4H302.513L300.683 227.13L301.563 227.65H299.693V230.4H298.333ZM299.693 226.45H301.123C301.369 226.45 301.583 226.403 301.763 226.31C301.943 226.21 302.083 226.073 302.183 225.9C302.283 225.727 302.333 225.527 302.333 225.3C302.333 225.067 302.283 224.867 302.183 224.7C302.083 224.527 301.943 224.393 301.763 224.3C301.583 224.2 301.369 224.15 301.123 224.15H299.693V226.45ZM305.334 230.4L307.904 222.95H309.664L312.234 230.4H310.754L310.224 228.8H307.344L306.804 230.4H305.334ZM307.734 227.6H309.834L308.594 223.89H308.974L307.734 227.6ZM314.063 230.4V222.95H315.123L319.223 228.47L318.673 228.58V222.95H320.033V230.4H318.963L314.923 224.84L315.423 224.73V230.4H314.063ZM326.005 230.52C325.472 230.52 324.979 230.423 324.525 230.23C324.072 230.037 323.675 229.767 323.335 229.42C322.995 229.073 322.729 228.667 322.535 228.2C322.349 227.733 322.255 227.223 322.255 226.67C322.255 226.117 322.345 225.607 322.525 225.14C322.712 224.667 322.972 224.26 323.305 223.92C323.645 223.573 324.042 223.307 324.495 223.12C324.949 222.927 325.442 222.83 325.975 222.83C326.509 222.83 326.985 222.92 327.405 223.1C327.832 223.28 328.192 223.52 328.485 223.82C328.779 224.113 328.989 224.437 329.115 224.79L327.905 225.37C327.765 224.983 327.529 224.67 327.195 224.43C326.862 224.19 326.455 224.07 325.975 224.07C325.509 224.07 325.095 224.18 324.735 224.4C324.382 224.62 324.105 224.923 323.905 225.31C323.712 225.697 323.615 226.15 323.615 226.67C323.615 227.19 323.715 227.647 323.915 228.04C324.122 228.427 324.405 228.73 324.765 228.95C325.125 229.17 325.539 229.28 326.005 229.28C326.385 229.28 326.735 229.207 327.055 229.06C327.375 228.907 327.632 228.693 327.825 228.42C328.019 228.14 328.115 227.81 328.115 227.43V226.86L328.735 227.4H325.975V226.25H329.475V227C329.475 227.573 329.379 228.08 329.185 228.52C328.992 228.96 328.729 229.33 328.395 229.63C328.069 229.923 327.699 230.147 327.285 230.3C326.872 230.447 326.445 230.52 326.005 230.52ZM331.551 230.4V222.95H336.501V224.15H332.911V226.06H336.301V227.26H332.911V229.2H336.501V230.4H331.551Z" fill="white"/>
<path d="M511.667 178.759C511.667 170.829 518.095 164.4 526.026 164.4H730.641C738.571 164.4 745 170.829 745 178.759V257.733H511.667V178.759Z" stroke="black"/>
<path d="M511.667 257.733H558.333V304.4H526.026C518.095 304.4 511.667 297.971 511.667 290.041V257.733Z" fill="#A1A1A1" stroke="black"/>
<rect x="558.333" y="257.733" width="46.6667" height="46.6667" fill="#CDCDCD" stroke="black"/>
<rect x="605.001" y="257.733" width="46.6667" height="46.6667" fill="#EBEBEB" stroke="black"/>
<rect x="651.667" y="257.733" width="46.6667" height="46.6667" fill="#F6F6F6" stroke="black"/>
<path d="M698.333 257.733H744.999V286.451C744.999 296.364 736.963 304.4 727.051 304.4H698.333V257.733Z" fill="white" stroke="black"/>
<path d="M545.777 230.4L543.777 222.95H545.237L546.807 229.3H546.427L548.067 222.95H549.477L551.107 229.3H550.727L552.297 222.95H553.757L551.757 230.4H550.197L548.547 224.22H548.987L547.337 230.4H545.777ZM555.582 230.4V222.95H556.942V226.2H560.112V222.95H561.482V230.4H560.112V227.4H556.942V230.4H555.582ZM563.916 230.4V222.95H565.276V230.4H563.916ZM569.029 230.4V224.15H567.099V222.95H572.299V224.15H570.399V230.4H569.029ZM574.129 230.4V222.95H579.079V224.15H575.489V226.06H578.879V227.26H575.489V229.2H579.079V230.4H574.129Z" fill="black"/>
</svg>
