<svg width="1007" height="593" viewBox="0 0 1007 593" fill="none" xmlns="http://www.w3.org/2000/svg">
<path d="M4.896 26V11H0.264V8.12H12.744V11H8.184V26H4.896ZM14.0949 31.304C13.7429 31.304 13.3989 31.272 13.0629 31.208C12.7269 31.16 12.4229 31.072 12.1509 30.944V28.304C12.3589 28.352 12.6069 28.4 12.8949 28.448C13.1989 28.496 13.4789 28.52 13.7349 28.52C14.4549 28.52 14.9749 28.352 15.2949 28.016C15.6309 27.68 15.9269 27.24 16.1829 26.696L17.0469 24.68L16.9989 27.32L11.3109 12.944H14.6949L18.6789 23.552H17.4789L21.4389 12.944H24.8469L19.1589 27.32C18.8229 28.168 18.4149 28.888 17.9349 29.48C17.4549 30.072 16.8949 30.52 16.2549 30.824C15.6309 31.144 14.9109 31.304 14.0949 31.304ZM25.5734 30.8V12.944H28.5254V15.536L28.2374 14.888C28.6854 14.184 29.2934 13.64 30.0614 13.256C30.8294 12.856 31.7174 12.656 32.7254 12.656C33.9574 12.656 35.0694 12.96 36.0614 13.568C37.0534 14.176 37.8374 14.992 38.4134 16.016C39.0054 17.04 39.3014 18.192 39.3014 19.472C39.3014 20.736 39.0134 21.888 38.4374 22.928C37.8614 23.968 37.0774 24.792 36.0854 25.4C35.0934 25.992 33.9654 26.288 32.7014 26.288C31.7574 26.288 30.8854 26.104 30.0854 25.736C29.3014 25.352 28.6774 24.808 28.2134 24.104L28.7174 23.48V30.8H25.5734ZM32.3414 23.408C33.0614 23.408 33.7014 23.24 34.2614 22.904C34.8214 22.568 35.2534 22.104 35.5574 21.512C35.8774 20.92 36.0374 20.24 36.0374 19.472C36.0374 18.704 35.8774 18.032 35.5574 17.456C35.2534 16.864 34.8214 16.4 34.2614 16.064C33.7014 15.712 33.0614 15.536 32.3414 15.536C31.6534 15.536 31.0294 15.704 30.4694 16.04C29.9254 16.376 29.4934 16.848 29.1734 17.456C28.8694 18.048 28.7174 18.72 28.7174 19.472C28.7174 20.24 28.8694 20.92 29.1734 21.512C29.4934 22.104 29.9254 22.568 30.4694 22.904C31.0294 23.24 31.6534 23.408 32.3414 23.408ZM47.0824 26.288C45.8024 26.288 44.6344 25.992 43.5784 25.4C42.5384 24.808 41.7064 24 41.0824 22.976C40.4744 21.952 40.1704 20.784 40.1704 19.472C40.1704 18.16 40.4744 16.992 41.0824 15.968C41.7064 14.944 42.5384 14.136 43.5784 13.544C44.6184 12.952 45.7864 12.656 47.0824 12.656C48.3624 12.656 49.5224 12.952 50.5624 13.544C51.6024 14.136 52.4264 14.944 53.0344 15.968C53.6584 16.976 53.9704 18.144 53.9704 19.472C53.9704 20.784 53.6584 21.952 53.0344 22.976C52.4104 24 51.5784 24.808 50.5384 25.4C49.4984 25.992 48.3464 26.288 47.0824 26.288ZM47.0824 23.408C47.7864 23.408 48.4024 23.24 48.9304 22.904C49.4744 22.568 49.8984 22.104 50.2024 21.512C50.5224 20.904 50.6824 20.224 50.6824 19.472C50.6824 18.704 50.5224 18.032 50.2024 17.456C49.8984 16.864 49.4744 16.4 48.9304 16.064C48.4024 15.712 47.7864 15.536 47.0824 15.536C46.3624 15.536 45.7304 15.712 45.1864 16.064C44.6424 16.4 44.2104 16.864 43.8904 17.456C43.5864 18.032 43.4344 18.704 43.4344 19.472C43.4344 20.224 43.5864 20.904 43.8904 21.512C44.2104 22.104 44.6424 22.568 45.1864 22.904C45.7304 23.24 46.3624 23.408 47.0824 23.408ZM61.6906 31.28C60.7146 31.28 59.8106 31.12 58.9786 30.8C58.1466 30.48 57.4266 30.032 56.8186 29.456C56.2266 28.896 55.7946 28.232 55.5226 27.464L58.4506 26.36C58.6426 26.968 59.0186 27.456 59.5786 27.824C60.1546 28.208 60.8586 28.4 61.6906 28.4C62.3306 28.4 62.8906 28.28 63.3706 28.04C63.8666 27.8 64.2506 27.448 64.5226 26.984C64.7946 26.536 64.9306 25.992 64.9306 25.352V22.376L65.5306 23.096C65.0826 23.88 64.4826 24.472 63.7306 24.872C62.9786 25.272 62.1226 25.472 61.1626 25.472C59.9466 25.472 58.8586 25.192 57.8986 24.632C56.9386 24.072 56.1866 23.304 55.6426 22.328C55.0986 21.352 54.8266 20.256 54.8266 19.04C54.8266 17.808 55.0986 16.712 55.6426 15.752C56.1866 14.792 56.9306 14.04 57.8746 13.496C58.8186 12.936 59.8906 12.656 61.0906 12.656C62.0666 12.656 62.9226 12.864 63.6586 13.28C64.4106 13.68 65.0346 14.264 65.5306 15.032L65.0986 15.824V12.944H68.0746V25.352C68.0746 26.488 67.7946 27.504 67.2346 28.4C66.6906 29.296 65.9386 30 64.9786 30.512C64.0346 31.024 62.9386 31.28 61.6906 31.28ZM61.5466 22.568C62.2186 22.568 62.8026 22.424 63.2986 22.136C63.8106 21.832 64.2106 21.416 64.4986 20.888C64.7866 20.36 64.9306 19.752 64.9306 19.064C64.9306 18.392 64.7786 17.792 64.4746 17.264C64.1866 16.72 63.7866 16.296 63.2746 15.992C62.7786 15.688 62.2026 15.536 61.5466 15.536C60.8906 15.536 60.2986 15.688 59.7706 15.992C59.2426 16.296 58.8266 16.72 58.5226 17.264C58.2346 17.792 58.0906 18.392 58.0906 19.064C58.0906 19.736 58.2346 20.336 58.5226 20.864C58.8266 21.392 59.2346 21.808 59.7466 22.112C60.2746 22.416 60.8746 22.568 61.5466 22.568ZM70.0109 26V12.944H72.9629V15.848L72.7229 15.416C73.0269 14.44 73.4989 13.76 74.1389 13.376C74.7949 12.992 75.5789 12.8 76.4909 12.8H77.2589V15.584H76.1309C75.2349 15.584 74.5149 15.864 73.9709 16.424C73.4269 16.968 73.1549 17.736 73.1549 18.728V26H70.0109ZM81.9474 26.288C81.0354 26.288 80.2434 26.136 79.5714 25.832C78.8994 25.528 78.3794 25.096 78.0114 24.536C77.6434 23.96 77.4594 23.296 77.4594 22.544C77.4594 21.824 77.6194 21.184 77.9394 20.624C78.2594 20.048 78.7554 19.568 79.4274 19.184C80.0994 18.8 80.9474 18.528 81.9714 18.368L86.2434 17.672V20.072L82.5714 20.696C81.9474 20.808 81.4834 21.008 81.1794 21.296C80.8754 21.584 80.7234 21.96 80.7234 22.424C80.7234 22.872 80.8914 23.232 81.2274 23.504C81.5794 23.76 82.0114 23.888 82.5234 23.888C83.1794 23.888 83.7554 23.752 84.2514 23.48C84.7634 23.192 85.1554 22.8 85.4274 22.304C85.7154 21.808 85.8594 21.264 85.8594 20.672V17.312C85.8594 16.752 85.6354 16.288 85.1874 15.92C84.7554 15.536 84.1794 15.344 83.4594 15.344C82.7874 15.344 82.1874 15.528 81.6594 15.896C81.1474 16.248 80.7714 16.72 80.5314 17.312L77.9634 16.064C78.2194 15.376 78.6194 14.784 79.1634 14.288C79.7234 13.776 80.3794 13.376 81.1314 13.088C81.8834 12.8 82.6994 12.656 83.5794 12.656C84.6514 12.656 85.5954 12.856 86.4114 13.256C87.2274 13.64 87.8594 14.184 88.3074 14.888C88.7714 15.576 89.0034 16.384 89.0034 17.312V26H86.0274V23.768L86.6994 23.72C86.3634 24.28 85.9634 24.752 85.4994 25.136C85.0354 25.504 84.5074 25.792 83.9154 26C83.3234 26.192 82.6674 26.288 81.9474 26.288ZM90.9093 30.8V12.944H93.8613V15.536L93.5733 14.888C94.0213 14.184 94.6293 13.64 95.3973 13.256C96.1653 12.856 97.0533 12.656 98.0613 12.656C99.2933 12.656 100.405 12.96 101.397 13.568C102.389 14.176 103.173 14.992 103.749 16.016C104.341 17.04 104.637 18.192 104.637 19.472C104.637 20.736 104.349 21.888 103.773 22.928C103.197 23.968 102.413 24.792 101.421 25.4C100.429 25.992 99.3013 26.288 98.0373 26.288C97.0933 26.288 96.2213 26.104 95.4213 25.736C94.6373 25.352 94.0133 24.808 93.5493 24.104L94.0533 23.48V30.8H90.9093ZM97.6773 23.408C98.3973 23.408 99.0373 23.24 99.5973 22.904C100.157 22.568 100.589 22.104 100.893 21.512C101.213 20.92 101.373 20.24 101.373 19.472C101.373 18.704 101.213 18.032 100.893 17.456C100.589 16.864 100.157 16.4 99.5973 16.064C99.0373 15.712 98.3973 15.536 97.6773 15.536C96.9893 15.536 96.3653 15.704 95.8053 16.04C95.2613 16.376 94.8293 16.848 94.5093 17.456C94.2053 18.048 94.0533 18.72 94.0533 19.472C94.0533 20.24 94.2053 20.92 94.5093 21.512C94.8293 22.104 95.2613 22.568 95.8053 22.904C96.3653 23.24 96.9893 23.408 97.6773 23.408ZM106.034 26V7.832H109.178V15.512L108.746 15.056C109.05 14.272 109.546 13.68 110.234 13.28C110.938 12.864 111.754 12.656 112.682 12.656C113.642 12.656 114.49 12.864 115.226 13.28C115.978 13.696 116.562 14.28 116.978 15.032C117.394 15.768 117.602 16.624 117.602 17.6V26H114.458V18.344C114.458 17.768 114.346 17.272 114.122 16.856C113.898 16.44 113.586 16.12 113.186 15.896C112.802 15.656 112.346 15.536 111.818 15.536C111.306 15.536 110.85 15.656 110.45 15.896C110.05 16.12 109.738 16.44 109.514 16.856C109.29 17.272 109.178 17.768 109.178 18.344V26H106.034ZM120.611 31.304C120.259 31.304 119.915 31.272 119.579 31.208C119.243 31.16 118.939 31.072 118.667 30.944V28.304C118.875 28.352 119.123 28.4 119.411 28.448C119.715 28.496 119.995 28.52 120.251 28.52C120.971 28.52 121.491 28.352 121.811 28.016C122.147 27.68 122.443 27.24 122.699 26.696L123.562 24.68L123.515 27.32L117.827 12.944H121.211L125.195 23.552H123.995L127.955 12.944H131.363L125.675 27.32C125.339 28.168 124.931 28.888 124.451 29.48C123.97 30.072 123.411 30.52 122.771 30.824C122.147 31.144 121.427 31.304 120.611 31.304Z" fill="#040415"/>
<path d="M440.672 123L479.736 9.75999H506.488L545.552 123H523.056L515 98.68H471.224L463.016 123H440.672ZM477.152 80.44H509.072L490.224 24.048H496L477.152 80.44ZM580.563 124.824C574.787 124.824 569.771 123.861 565.515 121.936C561.259 120.011 557.966 117.275 555.635 113.728C553.304 110.08 552.139 105.875 552.139 101.112C552.139 96.552 553.152 92.4987 555.179 88.952C557.206 85.304 560.347 82.264 564.603 79.832C568.859 77.4 574.23 75.6773 580.715 74.664L607.771 70.256V85.456L584.515 89.408C580.563 90.1173 577.624 91.384 575.699 93.208C573.774 95.032 572.811 97.4133 572.811 100.352C572.811 103.189 573.875 105.469 576.003 107.192C578.232 108.813 580.968 109.624 584.211 109.624C588.366 109.624 592.014 108.763 595.155 107.04C598.398 105.216 600.88 102.733 602.603 99.592C604.427 96.4507 605.339 93.0053 605.339 89.256V67.976C605.339 64.4293 603.92 61.4907 601.083 59.16C598.347 56.728 594.699 55.512 590.139 55.512C585.883 55.512 582.083 56.6773 578.739 59.008C575.496 61.2373 573.115 64.2267 571.595 67.976L555.331 60.072C556.952 55.7147 559.486 51.9653 562.931 48.824C566.478 45.5813 570.632 43.048 575.395 41.224C580.158 39.4 585.326 38.488 590.899 38.488C597.688 38.488 603.667 39.7547 608.835 42.288C614.003 44.72 618.006 48.1653 620.843 52.624C623.782 56.9813 625.251 62.0987 625.251 67.976V123H606.403V108.864L610.659 108.56C608.531 112.107 605.998 115.096 603.059 117.528C600.12 119.859 596.776 121.683 593.027 123C589.278 124.216 585.123 124.824 580.563 124.824Z" fill="#040415"/>
<path d="M441.304 171V147.16H450.2C451.821 147.16 453.251 147.459 454.488 148.056C455.747 148.632 456.728 149.485 457.432 150.616C458.136 151.725 458.488 153.08 458.488 154.68C458.488 156.259 458.125 157.613 457.4 158.744C456.696 159.853 455.725 160.707 454.488 161.304C453.251 161.901 451.821 162.2 450.2 162.2H445.656V171H441.304ZM445.656 158.36H450.264C451.053 158.36 451.736 158.211 452.312 157.912C452.888 157.592 453.336 157.155 453.656 156.6C453.976 156.045 454.136 155.405 454.136 154.68C454.136 153.933 453.976 153.293 453.656 152.76C453.336 152.205 452.888 151.779 452.312 151.48C451.736 151.16 451.053 151 450.264 151H445.656V158.36ZM460.702 171V146.776H464.894V171H460.702ZM473.973 171.384C472.629 171.384 471.455 171.085 470.453 170.488C469.471 169.891 468.714 169.059 468.181 167.992C467.669 166.925 467.413 165.677 467.413 164.248V153.592H471.605V163.896C471.605 164.621 471.743 165.261 472.021 165.816C472.319 166.349 472.735 166.776 473.269 167.096C473.823 167.395 474.442 167.544 475.125 167.544C475.807 167.544 476.415 167.395 476.949 167.096C477.482 166.776 477.898 166.339 478.197 165.784C478.495 165.229 478.645 164.568 478.645 163.8V153.592H482.837V171H478.869V167.576L479.221 168.184C478.815 169.251 478.143 170.051 477.205 170.584C476.287 171.117 475.21 171.384 473.973 171.384ZM492.357 171.384C490.501 171.384 488.88 170.947 487.493 170.072C486.128 169.176 485.189 167.971 484.677 166.456L487.813 164.952C488.261 165.933 488.88 166.701 489.669 167.256C490.48 167.811 491.376 168.088 492.357 168.088C493.125 168.088 493.733 167.917 494.181 167.576C494.629 167.235 494.853 166.787 494.853 166.232C494.853 165.891 494.757 165.613 494.565 165.4C494.395 165.165 494.149 164.973 493.829 164.824C493.531 164.653 493.2 164.515 492.837 164.408L489.989 163.608C488.517 163.181 487.397 162.531 486.629 161.656C485.883 160.781 485.509 159.747 485.509 158.552C485.509 157.485 485.776 156.557 486.309 155.768C486.864 154.957 487.621 154.328 488.581 153.88C489.563 153.432 490.683 153.208 491.941 153.208C493.584 153.208 495.035 153.603 496.293 154.392C497.552 155.181 498.448 156.291 498.981 157.72L495.781 159.224C495.483 158.435 494.981 157.805 494.277 157.336C493.573 156.867 492.784 156.632 491.909 156.632C491.205 156.632 490.651 156.792 490.245 157.112C489.84 157.432 489.637 157.848 489.637 158.36C489.637 158.68 489.723 158.957 489.893 159.192C490.064 159.427 490.299 159.619 490.597 159.768C490.917 159.917 491.28 160.056 491.685 160.184L494.469 161.016C495.899 161.443 496.997 162.083 497.765 162.936C498.555 163.789 498.949 164.835 498.949 166.072C498.949 167.117 498.672 168.045 498.117 168.856C497.563 169.645 496.795 170.264 495.813 170.712C494.832 171.16 493.68 171.384 492.357 171.384ZM505.154 171V167H506.53C507.554 167 508.365 166.712 508.962 166.136C509.581 165.539 509.89 164.749 509.89 163.768V147.16H514.274V163.608C514.274 165.08 513.954 166.371 513.314 167.48C512.696 168.589 511.8 169.453 510.626 170.072C509.474 170.691 508.109 171 506.53 171H505.154ZM522.701 171.384C521.485 171.384 520.429 171.181 519.533 170.776C518.637 170.371 517.943 169.795 517.453 169.048C516.962 168.28 516.717 167.395 516.717 166.392C516.717 165.432 516.93 164.579 517.357 163.832C517.783 163.064 518.445 162.424 519.341 161.912C520.237 161.4 521.367 161.037 522.733 160.824L528.429 159.896V163.096L523.533 163.928C522.701 164.077 522.082 164.344 521.677 164.728C521.271 165.112 521.069 165.613 521.069 166.232C521.069 166.829 521.293 167.309 521.741 167.672C522.21 168.013 522.786 168.184 523.469 168.184C524.343 168.184 525.111 168.003 525.773 167.64C526.455 167.256 526.978 166.733 527.341 166.072C527.725 165.411 527.917 164.685 527.917 163.896V159.416C527.917 158.669 527.618 158.051 527.021 157.56C526.445 157.048 525.677 156.792 524.717 156.792C523.821 156.792 523.021 157.037 522.317 157.528C521.634 157.997 521.133 158.627 520.813 159.416L517.389 157.752C517.73 156.835 518.263 156.045 518.989 155.384C519.735 154.701 520.61 154.168 521.613 153.784C522.615 153.4 523.703 153.208 524.877 153.208C526.306 153.208 527.565 153.475 528.653 154.008C529.741 154.52 530.583 155.245 531.181 156.184C531.799 157.101 532.109 158.179 532.109 159.416V171H528.141V168.024L529.037 167.96C528.589 168.707 528.055 169.336 527.437 169.848C526.818 170.339 526.114 170.723 525.325 171C524.535 171.256 523.661 171.384 522.701 171.384ZM534.983 171V146.776H539.175V162.648L537.575 162.168L545.767 153.592H550.983L544.551 160.6L551.111 171H546.311L540.615 161.976L543.111 161.464L537.863 167.096L539.175 164.536V171H534.983ZM557.732 171.384C556.516 171.384 555.46 171.181 554.564 170.776C553.668 170.371 552.975 169.795 552.484 169.048C551.993 168.28 551.748 167.395 551.748 166.392C551.748 165.432 551.961 164.579 552.388 163.832C552.815 163.064 553.476 162.424 554.372 161.912C555.268 161.4 556.399 161.037 557.764 160.824L563.46 159.896V163.096L558.564 163.928C557.732 164.077 557.113 164.344 556.708 164.728C556.303 165.112 556.1 165.613 556.1 166.232C556.1 166.829 556.324 167.309 556.772 167.672C557.241 168.013 557.817 168.184 558.5 168.184C559.375 168.184 560.143 168.003 560.804 167.64C561.487 167.256 562.009 166.733 562.372 166.072C562.756 165.411 562.948 164.685 562.948 163.896V159.416C562.948 158.669 562.649 158.051 562.052 157.56C561.476 157.048 560.708 156.792 559.748 156.792C558.852 156.792 558.052 157.037 557.348 157.528C556.665 157.997 556.164 158.627 555.844 159.416L552.42 157.752C552.761 156.835 553.295 156.045 554.02 155.384C554.767 154.701 555.641 154.168 556.644 153.784C557.647 153.4 558.735 153.208 559.908 153.208C561.337 153.208 562.596 153.475 563.684 154.008C564.772 154.52 565.615 155.245 566.212 156.184C566.831 157.101 567.14 158.179 567.14 159.416V171H563.172V168.024L564.068 167.96C563.62 168.707 563.087 169.336 562.468 169.848C561.849 170.339 561.145 170.723 560.356 171C559.567 171.256 558.692 171.384 557.732 171.384ZM570.015 171V153.592H573.951V157.464L573.631 156.888C574.036 155.587 574.665 154.68 575.519 154.168C576.393 153.656 577.439 153.4 578.655 153.4H579.679V157.112H578.175C576.98 157.112 576.02 157.485 575.295 158.232C574.569 158.957 574.207 159.981 574.207 161.304V171H570.015ZM589.388 171.192C587.425 171.192 585.9 170.659 584.812 169.592C583.745 168.504 583.212 166.979 583.212 165.016V157.336H580.204V153.592H580.524C581.377 153.592 582.039 153.368 582.508 152.92C582.977 152.472 583.212 151.821 583.212 150.968V149.624H587.404V153.592H591.404V157.336H587.404V164.792C587.404 165.368 587.5 165.859 587.692 166.264C587.905 166.669 588.225 166.979 588.652 167.192C589.1 167.405 589.665 167.512 590.348 167.512C590.497 167.512 590.668 167.501 590.86 167.48C591.073 167.459 591.276 167.437 591.468 167.416V171C591.169 171.043 590.828 171.085 590.444 171.128C590.06 171.171 589.708 171.192 589.388 171.192ZM598.888 171.384C597.672 171.384 596.616 171.181 595.72 170.776C594.824 170.371 594.131 169.795 593.64 169.048C593.15 168.28 592.904 167.395 592.904 166.392C592.904 165.432 593.118 164.579 593.544 163.832C593.971 163.064 594.632 162.424 595.528 161.912C596.424 161.4 597.555 161.037 598.92 160.824L604.616 159.896V163.096L599.72 163.928C598.888 164.077 598.27 164.344 597.864 164.728C597.459 165.112 597.256 165.613 597.256 166.232C597.256 166.829 597.48 167.309 597.928 167.672C598.398 168.013 598.974 168.184 599.656 168.184C600.531 168.184 601.299 168.003 601.96 167.64C602.643 167.256 603.166 166.733 603.528 166.072C603.912 165.411 604.104 164.685 604.104 163.896V159.416C604.104 158.669 603.806 158.051 603.208 157.56C602.632 157.048 601.864 156.792 600.904 156.792C600.008 156.792 599.208 157.037 598.504 157.528C597.822 157.997 597.32 158.627 597 159.416L593.576 157.752C593.918 156.835 594.451 156.045 595.176 155.384C595.923 154.701 596.798 154.168 597.8 153.784C598.803 153.4 599.891 153.208 601.064 153.208C602.494 153.208 603.752 153.475 604.84 154.008C605.928 154.52 606.771 155.245 607.368 156.184C607.987 157.101 608.296 158.179 608.296 159.416V171H604.328V168.024L605.224 167.96C604.776 168.707 604.243 169.336 603.624 169.848C603.006 170.339 602.302 170.723 601.512 171C600.723 171.256 599.848 171.384 598.888 171.384ZM624.722 171.384C623.208 171.384 621.8 171.107 620.498 170.552C619.218 169.997 618.109 169.229 617.17 168.248C616.253 167.245 615.581 166.083 615.154 164.76L618.77 163.192C619.346 164.557 620.178 165.635 621.266 166.424C622.354 167.192 623.581 167.576 624.946 167.576C625.714 167.576 626.376 167.459 626.93 167.224C627.506 166.968 627.944 166.627 628.242 166.2C628.562 165.773 628.722 165.261 628.722 164.664C628.722 163.96 628.509 163.384 628.082 162.936C627.677 162.467 627.058 162.104 626.226 161.848L621.65 160.376C619.794 159.8 618.397 158.936 617.458 157.784C616.52 156.632 616.05 155.277 616.05 153.72C616.05 152.355 616.381 151.149 617.042 150.104C617.725 149.059 618.664 148.248 619.858 147.672C621.074 147.075 622.461 146.776 624.018 146.776C625.448 146.776 626.76 147.032 627.954 147.544C629.149 148.035 630.173 148.728 631.026 149.624C631.901 150.499 632.552 151.533 632.978 152.728L629.394 154.328C628.925 153.133 628.221 152.216 627.282 151.576C626.344 150.915 625.256 150.584 624.018 150.584C623.293 150.584 622.653 150.712 622.098 150.968C621.544 151.203 621.106 151.544 620.786 151.992C620.488 152.419 620.338 152.931 620.338 153.528C620.338 154.189 620.552 154.776 620.978 155.288C621.405 155.779 622.056 156.163 622.93 156.44L627.314 157.816C629.213 158.435 630.632 159.288 631.57 160.376C632.53 161.464 633.01 162.808 633.01 164.408C633.01 165.773 632.658 166.979 631.954 168.024C631.25 169.069 630.28 169.891 629.042 170.488C627.805 171.085 626.365 171.384 624.722 171.384ZM640.701 171.384C639.485 171.384 638.429 171.181 637.533 170.776C636.637 170.371 635.943 169.795 635.453 169.048C634.962 168.28 634.717 167.395 634.717 166.392C634.717 165.432 634.93 164.579 635.357 163.832C635.783 163.064 636.445 162.424 637.341 161.912C638.237 161.4 639.367 161.037 640.733 160.824L646.429 159.896V163.096L641.533 163.928C640.701 164.077 640.082 164.344 639.677 164.728C639.271 165.112 639.069 165.613 639.069 166.232C639.069 166.829 639.293 167.309 639.741 167.672C640.21 168.013 640.786 168.184 641.469 168.184C642.343 168.184 643.111 168.003 643.773 167.64C644.455 167.256 644.978 166.733 645.341 166.072C645.725 165.411 645.917 164.685 645.917 163.896V159.416C645.917 158.669 645.618 158.051 645.021 157.56C644.445 157.048 643.677 156.792 642.717 156.792C641.821 156.792 641.021 157.037 640.317 157.528C639.634 157.997 639.133 158.627 638.813 159.416L635.389 157.752C635.73 156.835 636.263 156.045 636.989 155.384C637.735 154.701 638.61 154.168 639.613 153.784C640.615 153.4 641.703 153.208 642.877 153.208C644.306 153.208 645.565 153.475 646.653 154.008C647.741 154.52 648.583 155.245 649.181 156.184C649.799 157.101 650.109 158.179 650.109 159.416V171H646.141V168.024L647.037 167.96C646.589 168.707 646.055 169.336 645.437 169.848C644.818 170.339 644.114 170.723 643.325 171C642.535 171.256 641.661 171.384 640.701 171.384ZM652.983 171V153.592H656.919V157.016L656.599 156.408C657.005 155.363 657.666 154.573 658.583 154.04C659.522 153.485 660.61 153.208 661.847 153.208C663.127 153.208 664.258 153.485 665.239 154.04C666.242 154.595 667.021 155.373 667.575 156.376C668.13 157.357 668.407 158.499 668.407 159.8V171H664.215V160.792C664.215 160.024 664.066 159.363 663.767 158.808C663.469 158.253 663.053 157.827 662.519 157.528C662.007 157.208 661.399 157.048 660.695 157.048C660.013 157.048 659.405 157.208 658.871 157.528C658.338 157.827 657.922 158.253 657.623 158.808C657.325 159.363 657.175 160.024 657.175 160.792V171H652.983ZM677.576 171.384C675.72 171.384 674.099 170.947 672.712 170.072C671.347 169.176 670.408 167.971 669.896 166.456L673.032 164.952C673.48 165.933 674.099 166.701 674.888 167.256C675.699 167.811 676.595 168.088 677.576 168.088C678.344 168.088 678.952 167.917 679.4 167.576C679.848 167.235 680.072 166.787 680.072 166.232C680.072 165.891 679.976 165.613 679.784 165.4C679.613 165.165 679.368 164.973 679.048 164.824C678.749 164.653 678.419 164.515 678.056 164.408L675.208 163.608C673.736 163.181 672.616 162.531 671.848 161.656C671.101 160.781 670.728 159.747 670.728 158.552C670.728 157.485 670.995 156.557 671.528 155.768C672.083 154.957 672.84 154.328 673.8 153.88C674.781 153.432 675.901 153.208 677.16 153.208C678.803 153.208 680.253 153.603 681.512 154.392C682.771 155.181 683.667 156.291 684.2 157.72L681 159.224C680.701 158.435 680.2 157.805 679.496 157.336C678.792 156.867 678.003 156.632 677.128 156.632C676.424 156.632 675.869 156.792 675.464 157.112C675.059 157.432 674.856 157.848 674.856 158.36C674.856 158.68 674.941 158.957 675.112 159.192C675.283 159.427 675.517 159.619 675.816 159.768C676.136 159.917 676.499 160.056 676.904 160.184L679.688 161.016C681.117 161.443 682.216 162.083 682.984 162.936C683.773 163.789 684.168 164.835 684.168 166.072C684.168 167.117 683.891 168.045 683.336 168.856C682.781 169.645 682.013 170.264 681.032 170.712C680.051 171.16 678.899 171.384 677.576 171.384Z" fill="#040415"/>
<path d="M10.128 314.288C8.848 314.288 7.664 314.056 6.576 313.592C5.504 313.128 4.56 312.48 3.744 311.648C2.944 310.816 2.32 309.84 1.872 308.72C1.424 307.6 1.2 306.376 1.2 305.048C1.2 303.72 1.416 302.496 1.848 301.376C2.296 300.24 2.92 299.264 3.72 298.448C4.536 297.616 5.488 296.976 6.576 296.528C7.664 296.064 8.848 295.832 10.128 295.832C11.408 295.832 12.552 296.048 13.56 296.48C14.584 296.912 15.448 297.488 16.152 298.208C16.856 298.912 17.36 299.688 17.664 300.536L14.736 301.904C14.4 301.008 13.832 300.272 13.032 299.696C12.232 299.104 11.264 298.808 10.128 298.808C9.008 298.808 8.016 299.072 7.152 299.6C6.304 300.128 5.64 300.856 5.16 301.784C4.696 302.712 4.464 303.8 4.464 305.048C4.464 306.296 4.696 307.392 5.16 308.336C5.64 309.264 6.304 309.992 7.152 310.52C8.016 311.048 9.008 311.312 10.128 311.312C11.264 311.312 12.232 311.024 13.032 310.448C13.832 309.856 14.4 309.112 14.736 308.216L17.664 309.584C17.36 310.432 16.856 311.216 16.152 311.936C15.448 312.64 14.584 313.208 13.56 313.64C12.552 314.072 11.408 314.288 10.128 314.288ZM25.1996 314.288C23.9196 314.288 22.7516 313.992 21.6956 313.4C20.6556 312.808 19.8236 312 19.1996 310.976C18.5916 309.952 18.2876 308.784 18.2876 307.472C18.2876 306.16 18.5916 304.992 19.1996 303.968C19.8236 302.944 20.6556 302.136 21.6956 301.544C22.7356 300.952 23.9036 300.656 25.1996 300.656C26.4796 300.656 27.6396 300.952 28.6796 301.544C29.7196 302.136 30.5436 302.944 31.1516 303.968C31.7756 304.976 32.0876 306.144 32.0876 307.472C32.0876 308.784 31.7756 309.952 31.1516 310.976C30.5276 312 29.6956 312.808 28.6556 313.4C27.6156 313.992 26.4636 314.288 25.1996 314.288ZM25.1996 311.408C25.9036 311.408 26.5196 311.24 27.0476 310.904C27.5916 310.568 28.0156 310.104 28.3196 309.512C28.6396 308.904 28.7996 308.224 28.7996 307.472C28.7996 306.704 28.6396 306.032 28.3196 305.456C28.0156 304.864 27.5916 304.4 27.0476 304.064C26.5196 303.712 25.9036 303.536 25.1996 303.536C24.4796 303.536 23.8476 303.712 23.3036 304.064C22.7596 304.4 22.3276 304.864 22.0076 305.456C21.7036 306.032 21.5516 306.704 21.5516 307.472C21.5516 308.224 21.7036 308.904 22.0076 309.512C22.3276 310.104 22.7596 310.568 23.3036 310.904C23.8476 311.24 24.4796 311.408 25.1996 311.408ZM33.4718 314V295.832H36.6158V314H33.4718ZM44.9027 314.288C43.6227 314.288 42.4547 313.992 41.3987 313.4C40.3587 312.808 39.5267 312 38.9027 310.976C38.2947 309.952 37.9907 308.784 37.9907 307.472C37.9907 306.16 38.2947 304.992 38.9027 303.968C39.5267 302.944 40.3587 302.136 41.3987 301.544C42.4387 300.952 43.6067 300.656 44.9027 300.656C46.1827 300.656 47.3427 300.952 48.3827 301.544C49.4227 302.136 50.2467 302.944 50.8547 303.968C51.4787 304.976 51.7907 306.144 51.7907 307.472C51.7907 308.784 51.4787 309.952 50.8547 310.976C50.2307 312 49.3987 312.808 48.3587 313.4C47.3187 313.992 46.1667 314.288 44.9027 314.288ZM44.9027 311.408C45.6067 311.408 46.2227 311.24 46.7507 310.904C47.2947 310.568 47.7187 310.104 48.0227 309.512C48.3427 308.904 48.5027 308.224 48.5027 307.472C48.5027 306.704 48.3427 306.032 48.0227 305.456C47.7187 304.864 47.2947 304.4 46.7507 304.064C46.2227 303.712 45.6067 303.536 44.9027 303.536C44.1827 303.536 43.5507 303.712 43.0067 304.064C42.4627 304.4 42.0307 304.864 41.7107 305.456C41.4067 306.032 41.2547 306.704 41.2547 307.472C41.2547 308.224 41.4067 308.904 41.7107 309.512C42.0307 310.104 42.4627 310.568 43.0067 310.904C43.5507 311.24 44.1827 311.408 44.9027 311.408ZM53.1749 314V300.944H56.1269V303.848L55.8869 303.416C56.1909 302.44 56.6629 301.76 57.3029 301.376C57.9589 300.992 58.7429 300.8 59.6549 300.8H60.4229V303.584H59.2949C58.3989 303.584 57.6789 303.864 57.1349 304.424C56.5909 304.968 56.3189 305.736 56.3189 306.728V314H53.1749ZM66.1195 314.288C64.7275 314.288 63.5115 313.96 62.4715 313.304C61.4475 312.632 60.7435 311.728 60.3595 310.592L62.7115 309.464C63.0475 310.2 63.5115 310.776 64.1035 311.192C64.7115 311.608 65.3835 311.816 66.1195 311.816C66.6955 311.816 67.1515 311.688 67.4875 311.432C67.8235 311.176 67.9915 310.84 67.9915 310.424C67.9915 310.168 67.9195 309.96 67.7755 309.8C67.6475 309.624 67.4635 309.48 67.2235 309.368C66.9995 309.24 66.7515 309.136 66.4795 309.056L64.3435 308.456C63.2395 308.136 62.3995 307.648 61.8235 306.992C61.2635 306.336 60.9835 305.56 60.9835 304.664C60.9835 303.864 61.1835 303.168 61.5835 302.576C61.9995 301.968 62.5675 301.496 63.2875 301.16C64.0235 300.824 64.8635 300.656 65.8075 300.656C67.0395 300.656 68.1275 300.952 69.0715 301.544C70.0155 302.136 70.6875 302.968 71.0875 304.04L68.6875 305.168C68.4635 304.576 68.0875 304.104 67.5595 303.752C67.0315 303.4 66.4395 303.224 65.7835 303.224C65.2555 303.224 64.8395 303.344 64.5355 303.584C64.2315 303.824 64.0795 304.136 64.0795 304.52C64.0795 304.76 64.1435 304.968 64.2715 305.144C64.3995 305.32 64.5755 305.464 64.7995 305.576C65.0395 305.688 65.3115 305.792 65.6155 305.888L67.7035 306.512C68.7755 306.832 69.5995 307.312 70.1755 307.952C70.7675 308.592 71.0635 309.376 71.0635 310.304C71.0635 311.088 70.8555 311.784 70.4395 312.392C70.0235 312.984 69.4475 313.448 68.7115 313.784C67.9755 314.12 67.1115 314.288 66.1195 314.288Z" fill="#040415"/>
<path d="M193 302.4C193 294.447 199.447 288 207.4 288H412.6C420.553 288 427 294.447 427 302.4V381.6H193V302.4Z" fill="#040415"/>
<path d="M193 381.6H239.8V428.4H207.4C199.447 428.4 193 421.953 193 414V381.6Z" fill="#0F0E0E"/>
<rect x="239.8" y="381.6" width="46.8" height="46.8" fill="#100F0F"/>
<rect x="286.6" y="381.6" width="46.8" height="46.8" fill="#1A1A1A"/>
<rect x="333.4" y="381.6" width="46.8" height="46.8" fill="#202020"/>
<path d="M380.2 381.6H427V414C427 421.953 420.553 428.4 412.6 428.4H380.2V381.6Z" fill="#484848"/>
<path d="M225.771 354.172V346.722H228.911C229.404 346.722 229.824 346.809 230.171 346.982C230.524 347.149 230.794 347.389 230.981 347.702C231.174 348.009 231.271 348.382 231.271 348.822C231.271 349.162 231.177 349.482 230.991 349.782C230.811 350.075 230.521 350.319 230.121 350.512V349.882C230.487 350.022 230.777 350.195 230.991 350.402C231.204 350.609 231.354 350.839 231.441 351.092C231.527 351.345 231.571 351.612 231.571 351.892C231.571 352.605 231.334 353.165 230.861 353.572C230.394 353.972 229.744 354.172 228.911 354.172H225.771ZM227.131 352.972H229.051C229.404 352.972 229.684 352.875 229.891 352.682C230.104 352.482 230.211 352.219 230.211 351.892C230.211 351.565 230.104 351.302 229.891 351.102C229.684 350.902 229.404 350.802 229.051 350.802H227.131V352.972ZM227.131 349.612H228.981C229.261 349.612 229.484 349.532 229.651 349.372C229.817 349.205 229.901 348.992 229.901 348.732C229.901 348.472 229.817 348.265 229.651 348.112C229.484 347.959 229.261 347.882 228.981 347.882H227.131V349.612ZM233.685 354.172V346.722H235.045V352.972H238.235V354.172H233.685ZM239.505 354.172L242.075 346.722H243.835L246.405 354.172H244.925L244.395 352.572H241.515L240.975 354.172H239.505ZM241.905 351.372H244.005L242.765 347.662H243.145L241.905 351.372ZM251.431 354.292C250.898 354.292 250.404 354.195 249.951 354.002C249.504 353.809 249.111 353.539 248.771 353.192C248.438 352.845 248.178 352.439 247.991 351.972C247.804 351.505 247.711 350.995 247.711 350.442C247.711 349.889 247.801 349.379 247.981 348.912C248.168 348.439 248.428 348.032 248.761 347.692C249.101 347.345 249.498 347.079 249.951 346.892C250.404 346.699 250.898 346.602 251.431 346.602C251.964 346.602 252.441 346.692 252.861 346.872C253.288 347.052 253.648 347.292 253.941 347.592C254.234 347.885 254.444 348.209 254.571 348.562L253.351 349.132C253.211 348.759 252.974 348.452 252.641 348.212C252.308 347.965 251.904 347.842 251.431 347.842C250.964 347.842 250.551 347.952 250.191 348.172C249.838 348.392 249.561 348.695 249.361 349.082C249.168 349.469 249.071 349.922 249.071 350.442C249.071 350.962 249.168 351.419 249.361 351.812C249.561 352.199 249.838 352.502 250.191 352.722C250.551 352.942 250.964 353.052 251.431 353.052C251.904 353.052 252.308 352.932 252.641 352.692C252.974 352.445 253.211 352.135 253.351 351.762L254.571 352.332C254.444 352.685 254.234 353.012 253.941 353.312C253.648 353.605 253.288 353.842 252.861 354.022C252.441 354.202 251.964 354.292 251.431 354.292ZM256.675 354.172V346.722H258.035V350.602L257.665 350.472L260.835 346.722H262.545L259.575 350.242L259.655 349.282L262.635 354.172H261.035L259.035 350.892L258.035 352.082V354.172H256.675Z" fill="white"/>
<path d="M448.833 302.4C448.833 294.447 455.28 288 463.233 288H668.433C676.386 288 682.833 294.447 682.833 302.4V381.6H448.833V302.4Z" fill="#3E31F7"/>
<path d="M448.833 381.6H495.633V428.4H463.233C455.28 428.4 448.833 421.953 448.833 414V381.6Z" fill="#6069FF"/>
<rect x="495.633" y="381.6" width="46.8" height="46.8" fill="#888EFF"/>
<rect x="542.433" y="381.6" width="46.8" height="46.8" fill="#AFB4FF"/>
<rect x="589.233" y="381.6" width="46.8" height="46.8" fill="#D7D9FF"/>
<path d="M636.033 381.6H682.833V410.4C682.833 420.341 674.774 428.4 664.833 428.4H636.033V381.6Z" fill="#EBECFF"/>
<path d="M481.604 354.172V346.722H484.744C485.237 346.722 485.657 346.809 486.004 346.982C486.357 347.149 486.627 347.389 486.814 347.702C487.007 348.009 487.104 348.382 487.104 348.822C487.104 349.162 487.011 349.482 486.824 349.782C486.644 350.075 486.354 350.319 485.954 350.512V349.882C486.321 350.022 486.611 350.195 486.824 350.402C487.037 350.609 487.187 350.839 487.274 351.092C487.361 351.345 487.404 351.612 487.404 351.892C487.404 352.605 487.167 353.165 486.694 353.572C486.227 353.972 485.577 354.172 484.744 354.172H481.604ZM482.964 352.972H484.884C485.237 352.972 485.517 352.875 485.724 352.682C485.937 352.482 486.044 352.219 486.044 351.892C486.044 351.565 485.937 351.302 485.724 351.102C485.517 350.902 485.237 350.802 484.884 350.802H482.964V352.972ZM482.964 349.612H484.814C485.094 349.612 485.317 349.532 485.484 349.372C485.651 349.205 485.734 348.992 485.734 348.732C485.734 348.472 485.651 348.265 485.484 348.112C485.317 347.959 485.094 347.882 484.814 347.882H482.964V349.612ZM489.518 354.172V346.722H490.878V352.972H494.068V354.172H489.518ZM498.623 354.292C498.049 354.292 497.539 354.172 497.093 353.932C496.653 353.692 496.306 353.362 496.053 352.942C495.799 352.522 495.673 352.045 495.673 351.512V346.722H497.033V351.442C497.033 351.749 497.099 352.025 497.233 352.272C497.373 352.519 497.563 352.712 497.803 352.852C498.043 352.985 498.316 353.052 498.623 353.052C498.936 353.052 499.209 352.985 499.443 352.852C499.683 352.712 499.869 352.519 500.003 352.272C500.143 352.025 500.213 351.749 500.213 351.442V346.722H501.573V351.512C501.573 352.045 501.446 352.522 501.193 352.942C500.939 353.362 500.589 353.692 500.143 353.932C499.703 354.172 499.196 354.292 498.623 354.292ZM503.93 354.172V346.722H508.88V347.922H505.29V349.832H508.68V351.032H505.29V352.972H508.88V354.172H503.93Z" fill="white"/>
<path d="M704.667 302.359C704.667 294.429 711.095 288 719.026 288H923.641C931.571 288 938 294.429 938 302.359V381.333H704.667V302.359Z" fill="#FEA800"/>
<path d="M704.667 381.333H751.333V428H719.026C711.095 428 704.667 421.571 704.667 413.641V381.333Z" fill="#FFB524"/>
<rect x="751.333" y="381.333" width="46.6667" height="46.6667" fill="#FFC148"/>
<rect x="798.001" y="381.333" width="46.6667" height="46.6667" fill="#FFCD6D"/>
<rect x="844.667" y="381.333" width="46.6667" height="46.6667" fill="#FFE6B6"/>
<path d="M891.333 381.333H937.999V413.641C937.999 421.571 931.571 428 923.64 428H891.333V381.333Z" fill="#FFF3DA"/>
<path d="M741.057 354.12C740.51 354.12 740 354.023 739.527 353.83C739.053 353.637 738.64 353.367 738.287 353.02C737.933 352.673 737.657 352.267 737.457 351.8C737.263 351.327 737.167 350.817 737.167 350.27C737.167 349.717 737.263 349.207 737.457 348.74C737.65 348.273 737.923 347.867 738.277 347.52C738.63 347.173 739.043 346.907 739.517 346.72C739.99 346.527 740.503 346.43 741.057 346.43C741.61 346.43 742.123 346.527 742.597 346.72C743.07 346.913 743.483 347.183 743.837 347.53C744.19 347.87 744.463 348.273 744.657 348.74C744.857 349.207 744.957 349.717 744.957 350.27C744.957 350.817 744.857 351.327 744.657 351.8C744.457 352.267 744.18 352.673 743.827 353.02C743.473 353.367 743.06 353.637 742.587 353.83C742.12 354.023 741.61 354.12 741.057 354.12ZM741.057 352.88C741.423 352.88 741.76 352.817 742.067 352.69C742.373 352.557 742.64 352.373 742.867 352.14C743.1 351.907 743.277 351.63 743.397 351.31C743.523 350.99 743.587 350.643 743.587 350.27C743.587 349.897 743.523 349.553 743.397 349.24C743.277 348.92 743.1 348.643 742.867 348.41C742.64 348.17 742.373 347.987 742.067 347.86C741.76 347.733 741.423 347.67 741.057 347.67C740.697 347.67 740.363 347.733 740.057 347.86C739.75 347.987 739.48 348.17 739.247 348.41C739.02 348.643 738.843 348.92 738.717 349.24C738.59 349.553 738.527 349.897 738.527 350.27C738.527 350.643 738.59 350.99 738.717 351.31C738.843 351.63 739.02 351.907 739.247 352.14C739.48 352.373 739.75 352.557 740.057 352.69C740.363 352.817 740.697 352.88 741.057 352.88ZM747.166 354V346.55H749.936C750.443 346.55 750.889 346.643 751.276 346.83C751.669 347.01 751.976 347.277 752.196 347.63C752.416 347.977 752.526 348.4 752.526 348.9C752.526 349.413 752.403 349.85 752.156 350.21C751.916 350.57 751.589 350.837 751.176 351.01L752.886 354H751.346L749.516 350.73L750.396 351.25H748.526V354H747.166ZM748.526 350.05H749.956C750.203 350.05 750.416 350.003 750.596 349.91C750.776 349.81 750.916 349.673 751.016 349.5C751.116 349.327 751.166 349.127 751.166 348.9C751.166 348.667 751.116 348.467 751.016 348.3C750.916 348.127 750.776 347.993 750.596 347.9C750.416 347.8 750.203 347.75 749.956 347.75H748.526V350.05ZM754.167 354L756.737 346.55H758.497L761.067 354H759.587L759.057 352.4H756.177L755.637 354H754.167ZM756.567 351.2H758.667L757.427 347.49H757.807L756.567 351.2ZM762.896 354V346.55H763.956L768.056 352.07L767.506 352.18V346.55H768.866V354H767.796L763.756 348.44L764.256 348.33V354H762.896ZM774.839 354.12C774.305 354.12 773.812 354.023 773.359 353.83C772.905 353.637 772.509 353.367 772.169 353.02C771.829 352.673 771.562 352.267 771.369 351.8C771.182 351.333 771.089 350.823 771.089 350.27C771.089 349.717 771.179 349.207 771.359 348.74C771.545 348.267 771.805 347.86 772.139 347.52C772.479 347.173 772.875 346.907 773.329 346.72C773.782 346.527 774.275 346.43 774.809 346.43C775.342 346.43 775.819 346.52 776.239 346.7C776.665 346.88 777.025 347.12 777.319 347.42C777.612 347.713 777.822 348.037 777.949 348.39L776.739 348.97C776.599 348.583 776.362 348.27 776.029 348.03C775.695 347.79 775.289 347.67 774.809 347.67C774.342 347.67 773.929 347.78 773.569 348C773.215 348.22 772.939 348.523 772.739 348.91C772.545 349.297 772.449 349.75 772.449 350.27C772.449 350.79 772.549 351.247 772.749 351.64C772.955 352.027 773.239 352.33 773.599 352.55C773.959 352.77 774.372 352.88 774.839 352.88C775.219 352.88 775.569 352.807 775.889 352.66C776.209 352.507 776.465 352.293 776.659 352.02C776.852 351.74 776.949 351.41 776.949 351.03V350.46L777.569 351H774.809V349.85H778.309V350.6C778.309 351.173 778.212 351.68 778.019 352.12C777.825 352.56 777.562 352.93 777.229 353.23C776.902 353.523 776.532 353.747 776.119 353.9C775.705 354.047 775.279 354.12 774.839 354.12ZM780.385 354V346.55H785.335V347.75H781.745V349.66H785.135V350.86H781.745V352.8H785.335V354H780.385ZM791.719 355.7C791.159 355.047 790.736 354.337 790.449 353.57C790.169 352.803 790.029 351.987 790.029 351.12C790.029 350.253 790.169 349.437 790.449 348.67C790.729 347.903 791.153 347.197 791.719 346.55H792.819C792.339 347.263 791.979 348.003 791.739 348.77C791.506 349.53 791.389 350.313 791.389 351.12C791.389 351.927 791.509 352.713 791.749 353.48C791.989 354.247 792.346 354.987 792.819 355.7H791.719ZM796.288 354L794.288 346.55H795.748L797.318 352.9H796.938L798.578 346.55H799.988L801.618 352.9H801.238L802.808 346.55H804.268L802.268 354H800.708L799.058 347.82H799.498L797.848 354H796.288ZM805.083 354L807.653 346.55H809.413L811.983 354H810.503L809.973 352.4H807.093L806.553 354H805.083ZM807.483 351.2H809.583L808.343 347.49H808.723L807.483 351.2ZM813.812 354V346.55H816.582C817.089 346.55 817.536 346.643 817.922 346.83C818.316 347.01 818.622 347.277 818.842 347.63C819.062 347.977 819.172 348.4 819.172 348.9C819.172 349.413 819.049 349.85 818.802 350.21C818.562 350.57 818.236 350.837 817.822 351.01L819.532 354H817.992L816.162 350.73L817.042 351.25H815.172V354H813.812ZM815.172 350.05H816.602C816.849 350.05 817.062 350.003 817.242 349.91C817.422 349.81 817.562 349.673 817.662 349.5C817.762 349.327 817.812 349.127 817.812 348.9C817.812 348.667 817.762 348.467 817.662 348.3C817.562 348.127 817.422 347.993 817.242 347.9C817.062 347.8 816.849 347.75 816.602 347.75H815.172V350.05ZM821.424 354V346.55H822.484L826.584 352.07L826.034 352.18V346.55H827.394V354H826.324L822.284 348.44L822.784 348.33V354H821.424ZM829.836 354V346.55H831.196V354H829.836ZM833.629 354V346.55H834.689L838.789 352.07L838.239 352.18V346.55H839.599V354H838.529L834.489 348.44L834.989 348.33V354H833.629ZM845.571 354.12C845.038 354.12 844.544 354.023 844.091 353.83C843.638 353.637 843.241 353.367 842.901 353.02C842.561 352.673 842.294 352.267 842.101 351.8C841.914 351.333 841.821 350.823 841.821 350.27C841.821 349.717 841.911 349.207 842.091 348.74C842.278 348.267 842.538 347.86 842.871 347.52C843.211 347.173 843.608 346.907 844.061 346.72C844.514 346.527 845.008 346.43 845.541 346.43C846.074 346.43 846.551 346.52 846.971 346.7C847.398 346.88 847.758 347.12 848.051 347.42C848.344 347.713 848.554 348.037 848.681 348.39L847.471 348.97C847.331 348.583 847.094 348.27 846.761 348.03C846.428 347.79 846.021 347.67 845.541 347.67C845.074 347.67 844.661 347.78 844.301 348C843.948 348.22 843.671 348.523 843.471 348.91C843.278 349.297 843.181 349.75 843.181 350.27C843.181 350.79 843.281 351.247 843.481 351.64C843.688 352.027 843.971 352.33 844.331 352.55C844.691 352.77 845.104 352.88 845.571 352.88C845.951 352.88 846.301 352.807 846.621 352.66C846.941 352.507 847.198 352.293 847.391 352.02C847.584 351.74 847.681 351.41 847.681 351.03V350.46L848.301 351H845.541V349.85H849.041V350.6C849.041 351.173 848.944 351.68 848.751 352.12C848.558 352.56 848.294 352.93 847.961 353.23C847.634 353.523 847.264 353.747 846.851 353.9C846.438 354.047 846.011 354.12 845.571 354.12ZM850.767 355.7C851.24 354.987 851.594 354.247 851.827 353.48C852.067 352.713 852.187 351.927 852.187 351.12C852.187 350.313 852.067 349.53 851.827 348.77C851.594 348.003 851.24 347.263 850.767 346.55H851.867C852.427 347.197 852.847 347.903 853.127 348.67C853.407 349.437 853.547 350.253 853.547 351.12C853.547 351.987 853.407 352.803 853.127 353.57C852.847 354.337 852.427 355.047 851.867 355.7H850.767Z" fill="white"/>
<path d="M193 466.759C193 458.829 199.429 452.4 207.359 452.4H411.974C419.905 452.4 426.333 458.829 426.333 466.759V545.733H193V466.759Z" fill="#307A0B"/>
<path d="M193 545.733H239.667V592.4H207.359C199.429 592.4 193 585.971 193 578.041V545.733Z" fill="#4AC443"/>
<rect x="239.666" y="545.733" width="46.6667" height="46.6667" fill="#68CE62"/>
<rect x="286.334" y="545.733" width="46.6667" height="46.6667" fill="#86D882"/>
<rect x="333" y="545.733" width="46.6667" height="46.6667" fill="#C3EBC0"/>
<path d="M379.666 545.733H426.333V574.451C426.333 584.364 418.297 592.4 408.384 592.4H379.666V545.733Z" fill="#E1F5E0"/>
<path d="M229.25 518.52C228.717 518.52 228.223 518.423 227.77 518.23C227.317 518.037 226.92 517.767 226.58 517.42C226.24 517.073 225.973 516.667 225.78 516.2C225.593 515.733 225.5 515.223 225.5 514.67C225.5 514.117 225.59 513.607 225.77 513.14C225.957 512.667 226.217 512.26 226.55 511.92C226.89 511.573 227.287 511.307 227.74 511.12C228.193 510.927 228.687 510.83 229.22 510.83C229.753 510.83 230.23 510.92 230.65 511.1C231.077 511.28 231.437 511.52 231.73 511.82C232.023 512.113 232.233 512.437 232.36 512.79L231.15 513.37C231.01 512.983 230.773 512.67 230.44 512.43C230.107 512.19 229.7 512.07 229.22 512.07C228.753 512.07 228.34 512.18 227.98 512.4C227.627 512.62 227.35 512.923 227.15 513.31C226.957 513.697 226.86 514.15 226.86 514.67C226.86 515.19 226.96 515.647 227.16 516.04C227.367 516.427 227.65 516.73 228.01 516.95C228.37 517.17 228.783 517.28 229.25 517.28C229.63 517.28 229.98 517.207 230.3 517.06C230.62 516.907 230.877 516.693 231.07 516.42C231.263 516.14 231.36 515.81 231.36 515.43V514.86L231.98 515.4H229.22V514.25H232.72V515C232.72 515.573 232.623 516.08 232.43 516.52C232.237 516.96 231.973 517.33 231.64 517.63C231.313 517.923 230.943 518.147 230.53 518.3C230.117 518.447 229.69 518.52 229.25 518.52ZM234.796 518.4V510.95H237.566C238.073 510.95 238.52 511.043 238.906 511.23C239.3 511.41 239.606 511.677 239.826 512.03C240.046 512.377 240.156 512.8 240.156 513.3C240.156 513.813 240.033 514.25 239.786 514.61C239.546 514.97 239.22 515.237 238.806 515.41L240.516 518.4H238.976L237.146 515.13L238.026 515.65H236.156V518.4H234.796ZM236.156 514.45H237.586C237.833 514.45 238.046 514.403 238.226 514.31C238.406 514.21 238.546 514.073 238.646 513.9C238.746 513.727 238.796 513.527 238.796 513.3C238.796 513.067 238.746 512.867 238.646 512.7C238.546 512.527 238.406 512.393 238.226 512.3C238.046 512.2 237.833 512.15 237.586 512.15H236.156V514.45ZM242.408 518.4V510.95H247.358V512.15H243.768V514.06H247.158V515.26H243.768V517.2H247.358V518.4H242.408ZM249.355 518.4V510.95H254.305V512.15H250.715V514.06H254.105V515.26H250.715V517.2H254.305V518.4H249.355ZM256.302 518.4V510.95H257.362L261.462 516.47L260.912 516.58V510.95H262.272V518.4H261.202L257.162 512.84L257.662 512.73V518.4H256.302ZM269.101 520.1C268.541 519.447 268.118 518.737 267.831 517.97C267.551 517.203 267.411 516.387 267.411 515.52C267.411 514.653 267.551 513.837 267.831 513.07C268.111 512.303 268.535 511.597 269.101 510.95H270.201C269.721 511.663 269.361 512.403 269.121 513.17C268.888 513.93 268.771 514.713 268.771 515.52C268.771 516.327 268.891 517.113 269.131 517.88C269.371 518.647 269.728 519.387 270.201 520.1H269.101ZM274.941 518.52C274.467 518.52 274.027 518.433 273.621 518.26C273.221 518.087 272.874 517.847 272.581 517.54C272.294 517.227 272.084 516.863 271.951 516.45L273.081 515.96C273.261 516.387 273.521 516.723 273.861 516.97C274.201 517.21 274.584 517.33 275.011 517.33C275.251 517.33 275.457 517.293 275.631 517.22C275.811 517.14 275.947 517.033 276.041 516.9C276.141 516.767 276.191 516.607 276.191 516.42C276.191 516.2 276.124 516.02 275.991 515.88C275.864 515.733 275.671 515.62 275.411 515.54L273.981 515.08C273.401 514.9 272.964 514.63 272.671 514.27C272.377 513.91 272.231 513.487 272.231 513C272.231 512.573 272.334 512.197 272.541 511.87C272.754 511.543 273.047 511.29 273.421 511.11C273.801 510.923 274.234 510.83 274.721 510.83C275.167 510.83 275.577 510.91 275.951 511.07C276.324 511.223 276.644 511.44 276.911 511.72C277.184 511.993 277.387 512.317 277.521 512.69L276.401 513.19C276.254 512.817 276.034 512.53 275.741 512.33C275.447 512.123 275.107 512.02 274.721 512.02C274.494 512.02 274.294 512.06 274.121 512.14C273.947 512.213 273.811 512.32 273.711 512.46C273.617 512.593 273.571 512.753 273.571 512.94C273.571 513.147 273.637 513.33 273.771 513.49C273.904 513.643 274.107 513.763 274.381 513.85L275.751 514.28C276.344 514.473 276.787 514.74 277.081 515.08C277.381 515.42 277.531 515.84 277.531 516.34C277.531 516.767 277.421 517.143 277.201 517.47C276.981 517.797 276.677 518.053 276.291 518.24C275.904 518.427 275.454 518.52 274.941 518.52ZM282.625 518.52C282.052 518.52 281.542 518.4 281.095 518.16C280.655 517.92 280.308 517.59 280.055 517.17C279.802 516.75 279.675 516.273 279.675 515.74V510.95H281.035V515.67C281.035 515.977 281.102 516.253 281.235 516.5C281.375 516.747 281.565 516.94 281.805 517.08C282.045 517.213 282.318 517.28 282.625 517.28C282.938 517.28 283.212 517.213 283.445 517.08C283.685 516.94 283.872 516.747 284.005 516.5C284.145 516.253 284.215 515.977 284.215 515.67V510.95H285.575V515.74C285.575 516.273 285.448 516.75 285.195 517.17C284.942 517.59 284.592 517.92 284.145 518.16C283.705 518.4 283.198 518.52 282.625 518.52ZM291.433 518.52C290.9 518.52 290.406 518.423 289.953 518.23C289.506 518.037 289.113 517.767 288.773 517.42C288.44 517.073 288.18 516.667 287.993 516.2C287.806 515.733 287.713 515.223 287.713 514.67C287.713 514.117 287.803 513.607 287.983 513.14C288.17 512.667 288.43 512.26 288.763 511.92C289.103 511.573 289.5 511.307 289.953 511.12C290.406 510.927 290.9 510.83 291.433 510.83C291.966 510.83 292.443 510.92 292.863 511.1C293.29 511.28 293.65 511.52 293.943 511.82C294.236 512.113 294.446 512.437 294.573 512.79L293.353 513.36C293.213 512.987 292.976 512.68 292.643 512.44C292.31 512.193 291.906 512.07 291.433 512.07C290.966 512.07 290.553 512.18 290.193 512.4C289.84 512.62 289.563 512.923 289.363 513.31C289.17 513.697 289.073 514.15 289.073 514.67C289.073 515.19 289.17 515.647 289.363 516.04C289.563 516.427 289.84 516.73 290.193 516.95C290.553 517.17 290.966 517.28 291.433 517.28C291.906 517.28 292.31 517.16 292.643 516.92C292.976 516.673 293.213 516.363 293.353 515.99L294.573 516.56C294.446 516.913 294.236 517.24 293.943 517.54C293.65 517.833 293.29 518.07 292.863 518.25C292.443 518.43 291.966 518.52 291.433 518.52ZM300.177 518.52C299.644 518.52 299.15 518.423 298.697 518.23C298.25 518.037 297.857 517.767 297.517 517.42C297.184 517.073 296.924 516.667 296.737 516.2C296.55 515.733 296.457 515.223 296.457 514.67C296.457 514.117 296.547 513.607 296.727 513.14C296.914 512.667 297.174 512.26 297.507 511.92C297.847 511.573 298.244 511.307 298.697 511.12C299.15 510.927 299.644 510.83 300.177 510.83C300.71 510.83 301.187 510.92 301.607 511.1C302.034 511.28 302.394 511.52 302.687 511.82C302.98 512.113 303.19 512.437 303.317 512.79L302.097 513.36C301.957 512.987 301.72 512.68 301.387 512.44C301.054 512.193 300.65 512.07 300.177 512.07C299.71 512.07 299.297 512.18 298.937 512.4C298.584 512.62 298.307 512.923 298.107 513.31C297.914 513.697 297.817 514.15 297.817 514.67C297.817 515.19 297.914 515.647 298.107 516.04C298.307 516.427 298.584 516.73 298.937 516.95C299.297 517.17 299.71 517.28 300.177 517.28C300.65 517.28 301.054 517.16 301.387 516.92C301.72 516.673 301.957 516.363 302.097 515.99L303.317 516.56C303.19 516.913 302.98 517.24 302.687 517.54C302.394 517.833 302.034 518.07 301.607 518.25C301.187 518.43 300.71 518.52 300.177 518.52ZM305.421 518.4V510.95H310.371V512.15H306.781V514.06H310.171V515.26H306.781V517.2H310.371V518.4H305.421ZM315.028 518.52C314.555 518.52 314.115 518.433 313.708 518.26C313.308 518.087 312.962 517.847 312.668 517.54C312.382 517.227 312.172 516.863 312.038 516.45L313.168 515.96C313.348 516.387 313.608 516.723 313.948 516.97C314.288 517.21 314.672 517.33 315.098 517.33C315.338 517.33 315.545 517.293 315.718 517.22C315.898 517.14 316.035 517.033 316.128 516.9C316.228 516.767 316.278 516.607 316.278 516.42C316.278 516.2 316.212 516.02 316.078 515.88C315.952 515.733 315.758 515.62 315.498 515.54L314.068 515.08C313.488 514.9 313.052 514.63 312.758 514.27C312.465 513.91 312.318 513.487 312.318 513C312.318 512.573 312.422 512.197 312.628 511.87C312.842 511.543 313.135 511.29 313.508 511.11C313.888 510.923 314.322 510.83 314.808 510.83C315.255 510.83 315.665 510.91 316.038 511.07C316.412 511.223 316.732 511.44 316.998 511.72C317.272 511.993 317.475 512.317 317.608 512.69L316.488 513.19C316.342 512.817 316.122 512.53 315.828 512.33C315.535 512.123 315.195 512.02 314.808 512.02C314.582 512.02 314.382 512.06 314.208 512.14C314.035 512.213 313.898 512.32 313.798 512.46C313.705 512.593 313.658 512.753 313.658 512.94C313.658 513.147 313.725 513.33 313.858 513.49C313.992 513.643 314.195 513.763 314.468 513.85L315.838 514.28C316.432 514.473 316.875 514.74 317.168 515.08C317.468 515.42 317.618 515.84 317.618 516.34C317.618 516.767 317.508 517.143 317.288 517.47C317.068 517.797 316.765 518.053 316.378 518.24C315.992 518.427 315.542 518.52 315.028 518.52ZM322.503 518.52C322.03 518.52 321.59 518.433 321.183 518.26C320.783 518.087 320.436 517.847 320.143 517.54C319.856 517.227 319.646 516.863 319.513 516.45L320.643 515.96C320.823 516.387 321.083 516.723 321.423 516.97C321.763 517.21 322.146 517.33 322.573 517.33C322.813 517.33 323.02 517.293 323.193 517.22C323.373 517.14 323.51 517.033 323.603 516.9C323.703 516.767 323.753 516.607 323.753 516.42C323.753 516.2 323.686 516.02 323.553 515.88C323.426 515.733 323.233 515.62 322.973 515.54L321.543 515.08C320.963 514.9 320.526 514.63 320.233 514.27C319.94 513.91 319.793 513.487 319.793 513C319.793 512.573 319.896 512.197 320.103 511.87C320.316 511.543 320.61 511.29 320.983 511.11C321.363 510.923 321.796 510.83 322.283 510.83C322.73 510.83 323.14 510.91 323.513 511.07C323.886 511.223 324.206 511.44 324.473 511.72C324.746 511.993 324.95 512.317 325.083 512.69L323.963 513.19C323.816 512.817 323.596 512.53 323.303 512.33C323.01 512.123 322.67 512.02 322.283 512.02C322.056 512.02 321.856 512.06 321.683 512.14C321.51 512.213 321.373 512.32 321.273 512.46C321.18 512.593 321.133 512.753 321.133 512.94C321.133 513.147 321.2 513.33 321.333 513.49C321.466 513.643 321.67 513.763 321.943 513.85L323.313 514.28C323.906 514.473 324.35 514.74 324.643 515.08C324.943 515.42 325.093 515.84 325.093 516.34C325.093 516.767 324.983 517.143 324.763 517.47C324.543 517.797 324.24 518.053 323.853 518.24C323.466 518.427 323.016 518.52 322.503 518.52ZM326.968 520.1C327.441 519.387 327.794 518.647 328.028 517.88C328.268 517.113 328.388 516.327 328.388 515.52C328.388 514.713 328.268 513.93 328.028 513.17C327.794 512.403 327.441 511.663 326.968 510.95H328.068C328.628 511.597 329.048 512.303 329.328 513.07C329.608 513.837 329.748 514.653 329.748 515.52C329.748 516.387 329.608 517.203 329.328 517.97C329.048 518.737 328.628 519.447 328.068 520.1H326.968Z" fill="white"/>
<path d="M448.833 466.759C448.833 458.829 455.262 452.4 463.192 452.4H667.808C675.738 452.4 682.167 458.829 682.167 466.759V545.733H448.833V466.759Z" fill="#F15223"/>
<path d="M448.833 545.733H495.5V592.4H463.192C455.262 592.4 448.833 585.971 448.833 578.041V545.733Z" fill="#F4754F"/>
<rect x="495.499" y="545.733" width="46.6667" height="46.6667" fill="#F7977B"/>
<rect x="542.167" y="545.733" width="46.6667" height="46.6667" fill="#F9BAA7"/>
<rect x="588.833" y="545.733" width="46.6667" height="46.6667" fill="#FCDCD3"/>
<path d="M635.499 545.733H682.166V578.041C682.166 585.971 675.737 592.4 667.807 592.4H635.499V545.733Z" fill="#FEEEE9"/>
<path d="M485.223 518.52C484.677 518.52 484.167 518.423 483.693 518.23C483.22 518.037 482.807 517.767 482.453 517.42C482.1 517.073 481.823 516.667 481.623 516.2C481.43 515.727 481.333 515.217 481.333 514.67C481.333 514.117 481.43 513.607 481.623 513.14C481.817 512.673 482.09 512.267 482.443 511.92C482.797 511.573 483.21 511.307 483.683 511.12C484.157 510.927 484.67 510.83 485.223 510.83C485.777 510.83 486.29 510.927 486.763 511.12C487.237 511.313 487.65 511.583 488.003 511.93C488.357 512.27 488.63 512.673 488.823 513.14C489.023 513.607 489.123 514.117 489.123 514.67C489.123 515.217 489.023 515.727 488.823 516.2C488.623 516.667 488.347 517.073 487.993 517.42C487.64 517.767 487.227 518.037 486.753 518.23C486.287 518.423 485.777 518.52 485.223 518.52ZM485.223 517.28C485.59 517.28 485.927 517.217 486.233 517.09C486.54 516.957 486.807 516.773 487.033 516.54C487.267 516.307 487.443 516.03 487.563 515.71C487.69 515.39 487.753 515.043 487.753 514.67C487.753 514.297 487.69 513.953 487.563 513.64C487.443 513.32 487.267 513.043 487.033 512.81C486.807 512.57 486.54 512.387 486.233 512.26C485.927 512.133 485.59 512.07 485.223 512.07C484.863 512.07 484.53 512.133 484.223 512.26C483.917 512.387 483.647 512.57 483.413 512.81C483.187 513.043 483.01 513.32 482.883 513.64C482.757 513.953 482.693 514.297 482.693 514.67C482.693 515.043 482.757 515.39 482.883 515.71C483.01 516.03 483.187 516.307 483.413 516.54C483.647 516.773 483.917 516.957 484.223 517.09C484.53 517.217 484.863 517.28 485.223 517.28ZM491.333 518.4V510.95H494.103C494.609 510.95 495.056 511.043 495.443 511.23C495.836 511.41 496.143 511.677 496.363 512.03C496.583 512.377 496.693 512.8 496.693 513.3C496.693 513.813 496.569 514.25 496.323 514.61C496.083 514.97 495.756 515.237 495.343 515.41L497.053 518.4H495.513L493.683 515.13L494.563 515.65H492.693V518.4H491.333ZM492.693 514.45H494.123C494.369 514.45 494.583 514.403 494.763 514.31C494.943 514.21 495.083 514.073 495.183 513.9C495.283 513.727 495.333 513.527 495.333 513.3C495.333 513.067 495.283 512.867 495.183 512.7C495.083 512.527 494.943 512.393 494.763 512.3C494.583 512.2 494.369 512.15 494.123 512.15H492.693V514.45ZM498.334 518.4L500.904 510.95H502.664L505.234 518.4H503.754L503.224 516.8H500.344L499.804 518.4H498.334ZM500.734 515.6H502.834L501.594 511.89H501.974L500.734 515.6ZM507.063 518.4V510.95H508.123L512.223 516.47L511.673 516.58V510.95H513.033V518.4H511.963L507.923 512.84L508.423 512.73V518.4H507.063ZM519.005 518.52C518.472 518.52 517.979 518.423 517.525 518.23C517.072 518.037 516.675 517.767 516.335 517.42C515.995 517.073 515.729 516.667 515.535 516.2C515.349 515.733 515.255 515.223 515.255 514.67C515.255 514.117 515.345 513.607 515.525 513.14C515.712 512.667 515.972 512.26 516.305 511.92C516.645 511.573 517.042 511.307 517.495 511.12C517.949 510.927 518.442 510.83 518.975 510.83C519.509 510.83 519.985 510.92 520.405 511.1C520.832 511.28 521.192 511.52 521.485 511.82C521.779 512.113 521.989 512.437 522.115 512.79L520.905 513.37C520.765 512.983 520.529 512.67 520.195 512.43C519.862 512.19 519.455 512.07 518.975 512.07C518.509 512.07 518.095 512.18 517.735 512.4C517.382 512.62 517.105 512.923 516.905 513.31C516.712 513.697 516.615 514.15 516.615 514.67C516.615 515.19 516.715 515.647 516.915 516.04C517.122 516.427 517.405 516.73 517.765 516.95C518.125 517.17 518.539 517.28 519.005 517.28C519.385 517.28 519.735 517.207 520.055 517.06C520.375 516.907 520.632 516.693 520.825 516.42C521.019 516.14 521.115 515.81 521.115 515.43V514.86L521.735 515.4H518.975V514.25H522.475V515C522.475 515.573 522.379 516.08 522.185 516.52C521.992 516.96 521.729 517.33 521.395 517.63C521.069 517.923 520.699 518.147 520.285 518.3C519.872 518.447 519.445 518.52 519.005 518.52ZM524.551 518.4V510.95H529.501V512.15H525.911V514.06H529.301V515.26H525.911V517.2H529.501V518.4H524.551Z" fill="white"/>
<path d="M704.667 466.759C704.667 458.829 711.095 452.4 719.026 452.4H923.641C931.571 452.4 938 458.829 938 466.759V545.733H704.667V466.759Z" stroke="black"/>
<path d="M704.667 545.733H751.333V592.4H719.026C711.095 592.4 704.667 585.971 704.667 578.041V545.733Z" fill="#A1A1A1" stroke="black"/>
<rect x="751.333" y="545.733" width="46.6667" height="46.6667" fill="#CDCDCD" stroke="black"/>
<rect x="798.001" y="545.733" width="46.6667" height="46.6667" fill="#EBEBEB" stroke="black"/>
<rect x="844.667" y="545.733" width="46.6667" height="46.6667" fill="#F6F6F6" stroke="black"/>
<path d="M891.333 545.733H937.999V574.451C937.999 584.364 929.963 592.4 920.051 592.4H891.333V545.733Z" fill="white" stroke="black"/>
<path d="M738.777 518.4L736.777 510.95H738.237L739.807 517.3H739.427L741.067 510.95H742.477L744.107 517.3H743.727L745.297 510.95H746.757L744.757 518.4H743.197L741.547 512.22H741.987L740.337 518.4H738.777ZM748.582 518.4V510.95H749.942V514.2H753.112V510.95H754.482V518.4H753.112V515.4H749.942V518.4H748.582ZM756.916 518.4V510.95H758.276V518.4H756.916ZM762.029 518.4V512.15H760.099V510.95H765.299V512.15H763.399V518.4H762.029ZM767.129 518.4V510.95H772.079V512.15H768.489V514.06H771.879V515.26H768.489V517.2H772.079V518.4H767.129Z" fill="black"/>
</svg>
