<svg width="195" height="118" viewBox="0 0 195 118" fill="none" xmlns="http://www.w3.org/2000/svg">
<path fill-rule="evenodd" clip-rule="evenodd" d="M4.03082 84.2513C3.90248 83.7125 4.1867 83.1588 4.66563 83.0144L17.8696 79.0347C18.3485 78.8903 18.8409 79.21 18.9692 79.7487C19.0975 80.2874 18.8133 80.8412 18.3344 80.9856L5.13034 84.9653C4.65141 85.1097 4.15914 84.79 4.03082 84.2513Z" fill="black"/>
<path fill-rule="evenodd" clip-rule="evenodd" d="M0.031365 92.3474C-0.0992558 91.8778 0.190024 91.3951 0.677488 91.2693L24.8495 85.0302C25.3369 84.9044 25.838 85.1831 25.9686 85.6526C26.0993 86.1221 25.81 86.6049 25.3224 86.7307L1.15048 92.9698C0.663019 93.0956 0.161976 92.8169 0.031365 92.3474Z" fill="black"/>
<path d="M44.8069 34C51.2805 34 56.9377 35.3136 61.7783 37.9407C66.6772 40.5678 70.4389 44.2166 73.0634 48.887C75.6878 53.5574 77 58.8701 77 64.8249C77 70.7213 75.6878 76.0339 73.0634 80.7627C70.4389 85.4915 66.6772 89.2279 61.7783 91.9718C56.9377 94.6573 51.2805 96 44.8069 96H19V34H44.8069ZM43.0573 78.661C47.4314 78.661 50.9015 77.4642 53.4676 75.0706C56.0337 72.677 57.3167 69.2618 57.3167 64.8249C57.3167 60.3879 56.0337 56.9727 53.4676 54.5791C50.9015 52.1855 47.4314 50.9887 43.0573 50.9887H38.4208V78.661H43.0573Z" fill="black"/>
<path fill-rule="evenodd" clip-rule="evenodd" d="M11.0314 97.2656C10.9007 96.737 11.19 96.1948 11.6775 96.0534L35.8496 89.034C36.337 88.8924 36.838 89.2059 36.9686 89.7342C37.0993 90.2624 36.81 90.8054 36.3225 90.947L12.1505 97.966C11.663 98.1075 11.162 97.7943 11.0314 97.2656Z" fill="black"/>
<path d="M89.0879 118C83.2271 118 77.8352 116.642 72.9121 113.927C68.0476 111.212 64.1795 107.457 61.3077 102.662C58.4359 97.8666 57 92.4649 57 86.4567C57 80.4484 58.4359 75.0468 61.3077 70.2517C64.1795 65.4567 68.0476 61.7304 72.9121 59.0729C77.8352 56.3576 83.2271 55 89.0879 55C94.9487 55 100.311 56.3576 105.176 59.0729C110.04 61.7304 113.879 65.4567 116.692 70.2517C119.564 75.0468 121 80.4484 121 86.4567C121 92.4649 119.564 97.8666 116.692 102.662C113.879 107.457 110.011 111.212 105.088 113.927C100.223 116.642 94.8901 118 89.0879 118ZM89.0879 100.062C92.956 100.062 95.9451 98.8487 98.0549 96.4223C100.165 93.9381 101.22 90.6162 101.22 86.4567C101.22 82.2393 100.165 78.9175 98.0549 76.4911C95.9451 74.0069 92.956 72.7648 89.0879 72.7648C85.1612 72.7648 82.1429 74.0069 80.033 76.4911C77.9231 78.9175 76.8681 82.2393 76.8681 86.4567C76.8681 90.6162 77.9231 93.9381 80.033 96.4223C82.1429 98.8487 85.1612 100.062 89.0879 100.062Z" fill="black"/>
<path d="M135.088 107C129.227 107 123.835 105.621 118.912 102.862C114.048 100.104 110.179 96.2893 107.308 91.4182C104.436 86.547 103 81.0596 103 74.956C103 68.8524 104.436 63.365 107.308 58.4938C110.179 53.6227 114.048 49.8372 118.912 47.1375C123.835 44.3792 129.227 43 135.088 43C140.949 43 146.311 44.3792 151.176 47.1375C156.04 49.8372 159.879 53.6227 162.692 58.4938C165.564 63.365 167 68.8524 167 74.956C167 81.0596 165.564 86.547 162.692 91.4182C159.879 96.2893 156.011 100.104 151.088 102.862C146.223 105.621 140.89 107 135.088 107ZM135.088 88.7772C138.956 88.7772 141.945 87.5447 144.055 85.0798C146.165 82.5562 147.22 79.1816 147.22 74.956C147.22 70.6717 146.165 67.2971 144.055 64.8322C141.945 62.3086 138.956 61.0468 135.088 61.0468C131.161 61.0468 128.143 62.3086 126.033 64.8322C123.923 67.2971 122.868 70.6717 122.868 74.956C122.868 79.1816 123.923 82.5562 126.033 85.0798C128.143 87.5447 131.161 88.7772 135.088 88.7772Z" fill="black"/>
<path d="M195 35V50.4124H170.536V58.9943H188.136V73.6186H170.536V97H151V35H195Z" fill="black"/>
<path d="M143.298 36.2276C145.077 35.7526 146.146 33.9232 145.509 32.2016C142.589 24.3194 136.987 17.6608 129.626 13.4251C121.299 8.63295 111.403 7.33434 102.116 9.81497C92.8282 12.2955 84.9095 18.3519 80.102 26.652C75.8524 33.9887 74.3412 42.547 75.7664 50.8284C76.0777 52.6372 77.9218 53.6884 79.7003 53.2133L111.499 44.7205L143.298 36.2276Z" fill="url(#paint0_linear_150_7755)"/>
<path d="M105.896 6.22499C106.611 8.88396 105.208 11.569 102.763 12.2221C100.317 12.8752 97.7556 11.249 97.0409 8.59007C96.3261 5.93111 97.729 3.24607 100.174 2.593C102.619 1.93987 105.182 3.56592 105.896 6.22499Z" fill="white"/>
<path fill-rule="evenodd" clip-rule="evenodd" d="M100.605 4.19736C99.1782 4.57853 98.1378 6.25259 98.6505 8.15963C99.1631 10.0666 100.904 10.9979 102.331 10.6168C103.758 10.2356 104.798 8.56146 104.286 6.65452C103.774 4.74759 102.032 3.81618 100.605 4.19736ZM95.4304 9.0196C94.5134 5.6086 96.2789 1.91271 99.7424 0.987657C103.206 0.0625975 106.589 2.38345 107.506 5.79445C108.423 9.20555 106.657 12.9014 103.194 13.8264C99.7302 14.7516 96.3473 12.4307 95.4304 9.0196Z" fill="#F15E57"/>
<path d="M90.7288 24.4671C90.1645 23.9248 89.2646 23.9336 88.7402 24.5145C84.7757 28.9058 82.198 34.3383 81.3268 40.1365C81.208 40.9276 81.7982 41.6367 82.5974 41.7091C83.3865 41.7806 84.0821 41.2039 84.2026 40.4233C84.9984 35.2734 87.2829 30.4469 90.7813 26.5236C91.3112 25.9294 91.303 25.0188 90.7288 24.4671Z" fill="white"/>
<path d="M95.6542 20.4829C95.2229 19.8298 94.342 19.6426 93.7035 20.0969C93.0197 20.5836 92.3563 21.098 91.7154 21.6385C91.1072 22.1515 91.0818 23.0659 91.6313 23.641C92.1719 24.2067 93.0662 24.2305 93.6665 23.728C94.1814 23.2971 94.7119 22.885 95.2572 22.4922C95.9003 22.0289 96.0903 21.1435 95.6542 20.4829Z" fill="white"/>
<defs>
<linearGradient id="paint0_linear_150_7755" x1="102.116" y1="9.81497" x2="111.443" y2="44.7356" gradientUnits="userSpaceOnUse">
<stop stop-color="#F15E57"/>
<stop offset="1" stop-color="#FFD059"/>
</linearGradient>
</defs>
</svg>
