<svg width="659" height="288" viewBox="0 0 659 288" fill="none" xmlns="http://www.w3.org/2000/svg">
<path d="M130.348 95.152H90.524L84.14 114H56.932L95.54 7.296H125.636L164.244 114H136.732L130.348 95.152ZM123.66 75.088L110.436 36.024L97.364 75.088H123.66ZM169.826 71.44C169.826 62.7253 171.448 55.0747 174.69 48.488C178.034 41.9013 182.544 36.8347 188.218 33.288C193.893 29.7413 200.226 27.968 207.218 27.968C213.197 27.968 218.416 29.184 222.874 31.616C227.434 34.048 230.93 37.24 233.362 41.192V29.184H259.354V114H233.362V101.992C230.829 105.944 227.282 109.136 222.722 111.568C218.264 114 213.045 115.216 207.066 115.216C200.176 115.216 193.893 113.443 188.218 109.896C182.544 106.248 178.034 101.131 174.69 94.544C171.448 87.856 169.826 80.1547 169.826 71.44ZM233.362 71.592C233.362 65.1067 231.538 59.9893 227.89 56.24C224.344 52.4907 219.986 50.616 214.818 50.616C209.65 50.616 205.242 52.4907 201.594 56.24C198.048 59.888 196.274 64.9547 196.274 71.44C196.274 77.9253 198.048 83.0933 201.594 86.944C205.242 90.6933 209.65 92.568 214.818 92.568C219.986 92.568 224.344 90.6933 227.89 86.944C231.538 83.1947 233.362 78.0773 233.362 71.592Z" fill="#040415"/>
<path d="M73.604 153.768C73.604 155.069 73.3053 156.264 72.708 157.352C72.1107 158.419 71.1933 159.283 69.956 159.944C68.7187 160.605 67.1827 160.936 65.348 160.936H61.956V169H56.484V146.536H65.348C67.14 146.536 68.6547 146.845 69.892 147.464C71.1293 148.083 72.0573 148.936 72.676 150.024C73.2947 151.112 73.604 152.36 73.604 153.768ZM64.932 156.584C65.9773 156.584 66.756 156.339 67.268 155.848C67.78 155.357 68.036 154.664 68.036 153.768C68.036 152.872 67.78 152.179 67.268 151.688C66.756 151.197 65.9773 150.952 64.932 150.952H61.956V156.584H64.932ZM83.5808 169.256C81.8314 169.256 80.2528 168.883 78.8448 168.136C77.4581 167.389 76.3594 166.323 75.5488 164.936C74.7594 163.549 74.3648 161.928 74.3648 160.072C74.3648 158.237 74.7701 156.627 75.5807 155.24C76.3914 153.832 77.5008 152.755 78.9088 152.008C80.3168 151.261 81.8954 150.888 83.6448 150.888C85.3941 150.888 86.9728 151.261 88.3808 152.008C89.7888 152.755 90.8981 153.832 91.7088 155.24C92.5194 156.627 92.9248 158.237 92.9248 160.072C92.9248 161.907 92.5088 163.528 91.6768 164.936C90.8661 166.323 89.7461 167.389 88.3168 168.136C86.9088 168.883 85.3301 169.256 83.5808 169.256ZM83.5808 164.52C84.6261 164.52 85.5114 164.136 86.2368 163.368C86.9834 162.6 87.3568 161.501 87.3568 160.072C87.3568 158.643 86.9941 157.544 86.2688 156.776C85.5648 156.008 84.6901 155.624 83.6448 155.624C82.5781 155.624 81.6928 156.008 80.9888 156.776C80.2848 157.523 79.9328 158.621 79.9328 160.072C79.9328 161.501 80.2741 162.6 80.9568 163.368C81.6608 164.136 82.5354 164.52 83.5808 164.52ZM100.3 153.672C100.833 152.84 101.569 152.168 102.508 151.656C103.446 151.144 104.545 150.888 105.804 150.888C107.276 150.888 108.609 151.261 109.804 152.008C110.998 152.755 111.937 153.821 112.62 155.208C113.324 156.595 113.676 158.205 113.676 160.04C113.676 161.875 113.324 163.496 112.62 164.904C111.937 166.291 110.998 167.368 109.804 168.136C108.609 168.883 107.276 169.256 105.804 169.256C104.566 169.256 103.468 169 102.508 168.488C101.569 167.976 100.833 167.315 100.3 166.504V177.512H94.8278V151.144H100.3V153.672ZM108.108 160.04C108.108 158.675 107.724 157.608 106.956 156.84C106.209 156.051 105.281 155.656 104.172 155.656C103.084 155.656 102.156 156.051 101.388 156.84C100.641 157.629 100.268 158.707 100.268 160.072C100.268 161.437 100.641 162.515 101.388 163.304C102.156 164.093 103.084 164.488 104.172 164.488C105.26 164.488 106.188 164.093 106.956 163.304C107.724 162.493 108.108 161.405 108.108 160.04ZM121.019 153.672C121.552 152.84 122.288 152.168 123.227 151.656C124.165 151.144 125.264 150.888 126.523 150.888C127.995 150.888 129.328 151.261 130.523 152.008C131.717 152.755 132.656 153.821 133.339 155.208C134.043 156.595 134.395 158.205 134.395 160.04C134.395 161.875 134.043 163.496 133.339 164.904C132.656 166.291 131.717 167.368 130.523 168.136C129.328 168.883 127.995 169.256 126.523 169.256C125.285 169.256 124.187 169 123.227 168.488C122.288 167.976 121.552 167.315 121.019 166.504V177.512H115.547V151.144H121.019V153.672ZM128.827 160.04C128.827 158.675 128.443 157.608 127.675 156.84C126.928 156.051 126 155.656 124.891 155.656C123.803 155.656 122.875 156.051 122.107 156.84C121.36 157.629 120.987 158.707 120.987 160.072C120.987 161.437 121.36 162.515 122.107 163.304C122.875 164.093 123.803 164.488 124.891 164.488C125.979 164.488 126.907 164.093 127.675 163.304C128.443 162.493 128.827 161.405 128.827 160.04ZM139.017 149.288C138.057 149.288 137.268 149.011 136.649 148.456C136.052 147.88 135.753 147.176 135.753 146.344C135.753 145.491 136.052 144.787 136.649 144.232C137.268 143.656 138.057 143.368 139.017 143.368C139.956 143.368 140.724 143.656 141.321 144.232C141.94 144.787 142.249 145.491 142.249 146.344C142.249 147.176 141.94 147.88 141.321 148.456C140.724 149.011 139.956 149.288 139.017 149.288ZM141.737 151.144V169H136.265V151.144H141.737ZM155.583 150.952C157.673 150.952 159.337 151.635 160.575 153C161.833 154.344 162.463 156.2 162.463 158.568V169H157.023V159.304C157.023 158.109 156.713 157.181 156.095 156.52C155.476 155.859 154.644 155.528 153.599 155.528C152.553 155.528 151.721 155.859 151.103 156.52C150.484 157.181 150.175 158.109 150.175 159.304V169H144.703V151.144H150.175V153.512C150.729 152.723 151.476 152.104 152.415 151.656C153.353 151.187 154.409 150.952 155.583 150.952ZM172.529 169.256C170.972 169.256 169.585 168.989 168.369 168.456C167.153 167.923 166.193 167.197 165.489 166.28C164.785 165.341 164.391 164.296 164.305 163.144H169.713C169.777 163.763 170.065 164.264 170.577 164.648C171.089 165.032 171.719 165.224 172.465 165.224C173.148 165.224 173.671 165.096 174.033 164.84C174.417 164.563 174.609 164.211 174.609 163.784C174.609 163.272 174.343 162.899 173.809 162.664C173.276 162.408 172.412 162.131 171.217 161.832C169.937 161.533 168.871 161.224 168.017 160.904C167.164 160.563 166.428 160.04 165.809 159.336C165.191 158.611 164.881 157.64 164.881 156.424C164.881 155.4 165.159 154.472 165.713 153.64C166.289 152.787 167.121 152.115 168.209 151.624C169.319 151.133 170.631 150.888 172.145 150.888C174.385 150.888 176.145 151.443 177.425 152.552C178.727 153.661 179.473 155.133 179.665 156.968H174.609C174.524 156.349 174.247 155.859 173.777 155.496C173.329 155.133 172.732 154.952 171.985 154.952C171.345 154.952 170.855 155.08 170.513 155.336C170.172 155.571 170.001 155.901 170.001 156.328C170.001 156.84 170.268 157.224 170.801 157.48C171.356 157.736 172.209 157.992 173.361 158.248C174.684 158.589 175.761 158.931 176.593 159.272C177.425 159.592 178.151 160.125 178.769 160.872C179.409 161.597 179.74 162.579 179.761 163.816C179.761 164.861 179.463 165.8 178.865 166.632C178.289 167.443 177.447 168.083 176.337 168.552C175.249 169.021 173.98 169.256 172.529 169.256Z" fill="#040415"/>
<path d="M345.44 18.536V41H339.968V31.752H331.456V41H325.984V18.536H331.456V27.336H339.968V18.536H345.44ZM347.27 22.728V17.64H356.134V41H350.438V22.728H347.27ZM378.963 27.496V32.04H364.883V27.496H378.963ZM394.019 22.92V27.464H401.347V31.688H394.019V36.616H402.307V41H388.547V18.536H402.307V22.92H394.019ZM415.419 41L411.995 36.04L409.115 41H403.195L409.083 31.88L403.035 23.144H409.179L412.603 28.072L415.483 23.144H421.403L415.419 32.136L421.563 41H415.419ZM432.624 36.36V41H429.84C427.856 41 426.309 40.52 425.2 39.56C424.09 38.5787 423.536 36.9893 423.536 34.792V27.688H421.36V23.144H423.536V18.792H429.008V23.144H432.592V27.688H429.008V34.856C429.008 35.3893 429.136 35.7733 429.392 36.008C429.648 36.2427 430.074 36.36 430.672 36.36H432.624ZM440.144 26.12C440.784 25.1387 441.584 24.3707 442.544 23.816C443.504 23.24 444.57 22.952 445.744 22.952V28.744H444.24C442.874 28.744 441.85 29.0427 441.168 29.64C440.485 30.216 440.144 31.24 440.144 32.712V41H434.672V23.144H440.144V26.12ZM446.271 32.04C446.271 30.2053 446.612 28.5947 447.295 27.208C447.999 25.8213 448.948 24.7547 450.143 24.008C451.338 23.2613 452.671 22.888 454.143 22.888C455.402 22.888 456.5 23.144 457.439 23.656C458.399 24.168 459.135 24.84 459.647 25.672V23.144H465.119V41H459.647V38.472C459.114 39.304 458.367 39.976 457.407 40.488C456.468 41 455.37 41.256 454.111 41.256C452.66 41.256 451.338 40.8827 450.143 40.136C448.948 39.368 447.999 38.2907 447.295 36.904C446.612 35.496 446.271 33.8747 446.271 32.04ZM459.647 32.072C459.647 30.7067 459.263 29.6293 458.495 28.84C457.748 28.0507 456.831 27.656 455.743 27.656C454.655 27.656 453.727 28.0507 452.959 28.84C452.212 29.608 451.839 30.6747 451.839 32.04C451.839 33.4053 452.212 34.4933 452.959 35.304C453.727 36.0933 454.655 36.488 455.743 36.488C456.831 36.488 457.748 36.0933 458.495 35.304C459.263 34.5147 459.647 33.4373 459.647 32.072ZM487.459 29.48C488.76 29.7573 489.806 30.408 490.595 31.432C491.384 32.4347 491.779 33.5867 491.779 34.888C491.779 36.7653 491.118 38.2587 489.795 39.368C488.494 40.456 486.67 41 484.323 41H473.859V18.536H483.971C486.254 18.536 488.035 19.0587 489.315 20.104C490.616 21.1493 491.267 22.568 491.267 24.36C491.267 25.6827 490.915 26.7813 490.211 27.656C489.528 28.5307 488.611 29.1387 487.459 29.48ZM479.331 27.624H482.915C483.811 27.624 484.494 27.432 484.963 27.048C485.454 26.6427 485.699 26.056 485.699 25.288C485.699 24.52 485.454 23.9333 484.963 23.528C484.494 23.1227 483.811 22.92 482.915 22.92H479.331V27.624ZM483.363 36.584C484.28 36.584 484.984 36.3813 485.475 35.976C485.987 35.5493 486.243 34.9413 486.243 34.152C486.243 33.3627 485.976 32.744 485.443 32.296C484.931 31.848 484.216 31.624 483.299 31.624H479.331V36.584H483.363ZM502.081 41.256C500.331 41.256 498.753 40.8827 497.345 40.136C495.958 39.3893 494.859 38.3227 494.049 36.936C493.259 35.5493 492.865 33.928 492.865 32.072C492.865 30.2373 493.27 28.6267 494.081 27.24C494.891 25.832 496.001 24.7547 497.409 24.008C498.817 23.2613 500.395 22.888 502.145 22.888C503.894 22.888 505.473 23.2613 506.881 24.008C508.289 24.7547 509.398 25.832 510.209 27.24C511.019 28.6267 511.425 30.2373 511.425 32.072C511.425 33.9067 511.009 35.528 510.177 36.936C509.366 38.3227 508.246 39.3893 506.817 40.136C505.409 40.8827 503.83 41.256 502.081 41.256ZM502.081 36.52C503.126 36.52 504.011 36.136 504.737 35.368C505.483 34.6 505.857 33.5013 505.857 32.072C505.857 30.6427 505.494 29.544 504.769 28.776C504.065 28.008 503.19 27.624 502.145 27.624C501.078 27.624 500.193 28.008 499.489 28.776C498.785 29.5227 498.433 30.6213 498.433 32.072C498.433 33.5013 498.774 34.6 499.457 35.368C500.161 36.136 501.035 36.52 502.081 36.52ZM518.8 17.32V41H513.328V17.32H518.8ZM520.677 32.04C520.677 30.2053 521.019 28.5947 521.701 27.208C522.405 25.8213 523.355 24.7547 524.549 24.008C525.744 23.2613 527.077 22.888 528.549 22.888C529.723 22.888 530.789 23.1333 531.749 23.624C532.731 24.1147 533.499 24.776 534.053 25.608V17.32H539.525V41H534.053V38.44C533.541 39.2933 532.805 39.976 531.845 40.488C530.907 41 529.808 41.256 528.549 41.256C527.077 41.256 525.744 40.8827 524.549 40.136C523.355 39.368 522.405 38.2907 521.701 36.904C521.019 35.496 520.677 33.8747 520.677 32.04ZM534.053 32.072C534.053 30.7067 533.669 29.6293 532.901 28.84C532.155 28.0507 531.237 27.656 530.149 27.656C529.061 27.656 528.133 28.0507 527.365 28.84C526.619 29.608 526.245 30.6747 526.245 32.04C526.245 33.4053 526.619 34.4933 527.365 35.304C528.133 36.0933 529.061 36.488 530.149 36.488C531.237 36.488 532.155 36.0933 532.901 35.304C533.669 34.5147 534.053 33.4373 534.053 32.072ZM560.457 10.6L551.881 46.984H546.601L555.177 10.6H560.457ZM566.811 36.616C567.536 36.04 567.867 35.7733 567.803 35.816C569.893 34.088 571.536 32.6693 572.731 31.56C573.947 30.4507 574.971 29.288 575.803 28.072C576.635 26.856 577.051 25.672 577.051 24.52C577.051 23.6453 576.848 22.9627 576.443 22.472C576.037 21.9813 575.429 21.736 574.619 21.736C573.808 21.736 573.168 22.0453 572.699 22.664C572.251 23.2613 572.027 24.1147 572.027 25.224H566.747C566.789 23.4107 567.173 21.896 567.899 20.68C568.645 19.464 569.616 18.568 570.811 17.992C572.027 17.416 573.371 17.128 574.843 17.128C577.381 17.128 579.291 17.7787 580.571 19.08C581.872 20.3813 582.523 22.0773 582.523 24.168C582.523 26.4507 581.744 28.5733 580.187 30.536C578.629 32.4773 576.645 34.376 574.235 36.232H582.875V40.68H566.811V36.616ZM590.172 34.152C590.492 35.8373 591.473 36.68 593.116 36.68C594.246 36.68 595.046 36.1787 595.516 35.176C595.985 34.1733 596.22 32.5413 596.22 30.28C595.75 30.9413 595.11 31.4533 594.3 31.816C593.489 32.1787 592.582 32.36 591.58 32.36C590.214 32.36 588.998 32.0827 587.932 31.528C586.865 30.952 586.022 30.1093 585.404 29C584.806 27.8693 584.508 26.504 584.508 24.904C584.508 23.3253 584.828 21.9493 585.468 20.776C586.129 19.6027 587.057 18.696 588.252 18.056C589.468 17.416 590.897 17.096 592.54 17.096C595.697 17.096 597.905 18.0773 599.164 20.04C600.422 22.0027 601.052 24.8933 601.052 28.712C601.052 31.4853 600.796 33.7787 600.284 35.592C599.793 37.384 598.95 38.7493 597.756 39.688C596.582 40.6267 594.972 41.096 592.924 41.096C591.302 41.096 589.916 40.776 588.764 40.136C587.633 39.496 586.758 38.6533 586.14 37.608C585.542 36.5627 585.201 35.4107 585.116 34.152H590.172ZM592.828 28.04C593.724 28.04 594.438 27.7733 594.972 27.24C595.505 26.6853 595.772 25.9387 595.772 25C595.772 23.976 595.494 23.1867 594.94 22.632C594.385 22.0773 593.638 21.8 592.7 21.8C591.761 21.8 591.014 22.088 590.46 22.664C589.926 23.2187 589.66 23.9867 589.66 24.968C589.66 25.8853 589.926 26.632 590.46 27.208C591.014 27.7627 591.804 28.04 592.828 28.04ZM608.987 25.672C609.521 24.84 610.257 24.168 611.195 23.656C612.134 23.144 613.233 22.888 614.491 22.888C615.963 22.888 617.297 23.2613 618.491 24.008C619.686 24.7547 620.625 25.8213 621.307 27.208C622.011 28.5947 622.363 30.2053 622.363 32.04C622.363 33.8747 622.011 35.496 621.307 36.904C620.625 38.2907 619.686 39.368 618.491 40.136C617.297 40.8827 615.963 41.256 614.491 41.256C613.254 41.256 612.155 41 611.195 40.488C610.257 39.976 609.521 39.3147 608.987 38.504V49.512H603.515V23.144H608.987V25.672ZM616.795 32.04C616.795 30.6747 616.411 29.608 615.643 28.84C614.897 28.0507 613.969 27.656 612.859 27.656C611.771 27.656 610.843 28.0507 610.075 28.84C609.329 29.6293 608.955 30.7067 608.955 32.072C608.955 33.4373 609.329 34.5147 610.075 35.304C610.843 36.0933 611.771 36.488 612.859 36.488C613.947 36.488 614.875 36.0933 615.643 35.304C616.411 34.4933 616.795 33.4053 616.795 32.04ZM634.794 41L631.37 36.04L628.49 41H622.57L628.458 31.88L622.41 23.144H628.554L631.978 28.072L634.858 23.144H640.778L634.794 32.136L640.938 41H634.794ZM341.42 82.748V101H336.974V93.486H330.058V101H325.612V82.748H330.058V89.898H336.974V82.748H341.42ZM343.032 97.438C343.621 96.97 343.89 96.7533 343.838 96.788C345.536 95.384 346.871 94.2313 347.842 93.33C348.83 92.4287 349.662 91.484 350.338 90.496C351.014 89.508 351.352 88.546 351.352 87.61C351.352 86.8993 351.187 86.3447 350.858 85.946C350.528 85.5473 350.034 85.348 349.376 85.348C348.717 85.348 348.197 85.5993 347.816 86.102C347.452 86.5873 347.27 87.2807 347.27 88.182H342.98C343.014 86.7087 343.326 85.478 343.916 84.49C344.522 83.502 345.311 82.774 346.282 82.306C347.27 81.838 348.362 81.604 349.558 81.604C351.62 81.604 353.172 82.1327 354.212 83.19C355.269 84.2473 355.798 85.6253 355.798 87.324C355.798 89.1787 355.165 90.9033 353.9 92.498C352.634 94.0753 351.022 95.618 349.064 97.126H356.084V100.74H343.032V97.438ZM373.173 90.028V93.72H361.733V90.028H373.173ZM391.635 91.64C392.692 91.8653 393.541 92.394 394.183 93.226C394.824 94.0407 395.145 94.9767 395.145 96.034C395.145 97.5593 394.607 98.7727 393.533 99.674C392.475 100.558 390.993 101 389.087 101H380.585V82.748H388.801C390.655 82.748 392.103 83.1727 393.143 84.022C394.2 84.8713 394.729 86.024 394.729 87.48C394.729 88.5547 394.443 89.4473 393.871 90.158C393.316 90.8687 392.571 91.3627 391.635 91.64ZM385.031 90.132H387.943C388.671 90.132 389.225 89.976 389.607 89.664C390.005 89.3347 390.205 88.858 390.205 88.234C390.205 87.61 390.005 87.1333 389.607 86.804C389.225 86.4747 388.671 86.31 387.943 86.31H385.031V90.132ZM388.307 97.412C389.052 97.412 389.624 97.2473 390.023 96.918C390.439 96.5713 390.647 96.0773 390.647 95.436C390.647 94.7947 390.43 94.292 389.997 93.928C389.581 93.564 389 93.382 388.255 93.382H385.031V97.412H388.307ZM403.327 101.208C401.906 101.208 400.623 100.905 399.479 100.298C398.353 99.6913 397.46 98.8247 396.801 97.698C396.16 96.5713 395.839 95.254 395.839 93.746C395.839 92.2553 396.169 90.9467 396.827 89.82C397.486 88.676 398.387 87.8007 399.531 87.194C400.675 86.5873 401.958 86.284 403.379 86.284C404.801 86.284 406.083 86.5873 407.227 87.194C408.371 87.8007 409.273 88.676 409.931 89.82C410.59 90.9467 410.919 92.2553 410.919 93.746C410.919 95.2367 410.581 96.554 409.905 97.698C409.247 98.8247 408.337 99.6913 407.175 100.298C406.031 100.905 404.749 101.208 403.327 101.208ZM403.327 97.36C404.177 97.36 404.896 97.048 405.485 96.424C406.092 95.8 406.395 94.9073 406.395 93.746C406.395 92.5847 406.101 91.692 405.511 91.068C404.939 90.444 404.229 90.132 403.379 90.132C402.513 90.132 401.793 90.444 401.221 91.068C400.649 91.6747 400.363 92.5673 400.363 93.746C400.363 94.9073 400.641 95.8 401.195 96.424C401.767 97.048 402.478 97.36 403.327 97.36ZM416.724 81.76V101H412.278V81.76H416.724ZM418.062 93.72C418.062 92.2293 418.339 90.9207 418.894 89.794C419.466 88.6673 420.237 87.8007 421.208 87.194C422.179 86.5873 423.262 86.284 424.458 86.284C425.411 86.284 426.278 86.4833 427.058 86.882C427.855 87.2807 428.479 87.818 428.93 88.494V81.76H433.376V101H428.93V98.92C428.514 99.6133 427.916 100.168 427.136 100.584C426.373 101 425.481 101.208 424.458 101.208C423.262 101.208 422.179 100.905 421.208 100.298C420.237 99.674 419.466 98.7987 418.894 97.672C418.339 96.528 418.062 95.2107 418.062 93.72ZM428.93 93.746C428.93 92.6367 428.618 91.7613 427.994 91.12C427.387 90.4787 426.642 90.158 425.758 90.158C424.874 90.158 424.12 90.4787 423.496 91.12C422.889 91.744 422.586 92.6107 422.586 93.72C422.586 94.8293 422.889 95.7133 423.496 96.372C424.12 97.0133 424.874 97.334 425.758 97.334C426.642 97.334 427.387 97.0133 427.994 96.372C428.618 95.7307 428.93 94.8553 428.93 93.746ZM445.498 76.3L438.53 105.862H434.24L441.208 76.3H445.498ZM445.776 97.438C446.365 96.97 446.634 96.7533 446.582 96.788C448.28 95.384 449.615 94.2313 450.586 93.33C451.574 92.4287 452.406 91.484 453.082 90.496C453.758 89.508 454.096 88.546 454.096 87.61C454.096 86.8993 453.931 86.3447 453.602 85.946C453.272 85.5473 452.778 85.348 452.12 85.348C451.461 85.348 450.941 85.5993 450.56 86.102C450.196 86.5873 450.014 87.2807 450.014 88.182H445.724C445.758 86.7087 446.07 85.478 446.66 84.49C447.266 83.502 448.055 82.774 449.026 82.306C450.014 81.838 451.106 81.604 452.302 81.604C454.364 81.604 455.916 82.1327 456.956 83.19C458.013 84.2473 458.542 85.6253 458.542 87.324C458.542 89.1787 457.909 90.9033 456.644 92.498C455.378 94.0753 453.766 95.618 451.808 97.126H458.828V100.74H445.776V97.438ZM469.171 87.142C469.033 86.5007 468.79 86.024 468.443 85.712C468.097 85.3827 467.603 85.218 466.961 85.218C465.973 85.218 465.263 85.6513 464.829 86.518C464.396 87.3673 464.171 88.7193 464.153 90.574C464.535 89.9673 465.081 89.4907 465.791 89.144C466.519 88.7973 467.317 88.624 468.183 88.624C469.882 88.624 471.243 89.1613 472.265 90.236C473.305 91.3107 473.825 92.81 473.825 94.734C473.825 95.9993 473.565 97.1087 473.045 98.062C472.543 99.0153 471.797 99.7607 470.809 100.298C469.839 100.835 468.686 101.104 467.351 101.104C464.682 101.104 462.827 100.272 461.787 98.608C460.747 96.9267 460.227 94.5173 460.227 91.38C460.227 88.0867 460.773 85.6427 461.865 84.048C462.975 82.436 464.743 81.63 467.169 81.63C468.469 81.63 469.561 81.89 470.445 82.41C471.347 82.9127 472.023 83.58 472.473 84.412C472.941 85.244 473.219 86.154 473.305 87.142H469.171ZM467.117 92.134C466.372 92.134 465.748 92.3593 465.245 92.81C464.76 93.2433 464.517 93.8673 464.517 94.682C464.517 95.514 464.743 96.164 465.193 96.632C465.661 97.1 466.32 97.334 467.169 97.334C467.932 97.334 468.53 97.1087 468.963 96.658C469.414 96.19 469.639 95.5573 469.639 94.76C469.639 93.9453 469.423 93.304 468.989 92.836C468.556 92.368 467.932 92.134 467.117 92.134ZM480.228 88.546C480.661 87.87 481.259 87.324 482.022 86.908C482.785 86.492 483.677 86.284 484.7 86.284C485.896 86.284 486.979 86.5873 487.95 87.194C488.921 87.8007 489.683 88.6673 490.238 89.794C490.81 90.9207 491.096 92.2293 491.096 93.72C491.096 95.2107 490.81 96.528 490.238 97.672C489.683 98.7987 488.921 99.674 487.95 100.298C486.979 100.905 485.896 101.208 484.7 101.208C483.695 101.208 482.802 101 482.022 100.584C481.259 100.168 480.661 99.6307 480.228 98.972V107.916H475.782V86.492H480.228V88.546ZM486.572 93.72C486.572 92.6107 486.26 91.744 485.636 91.12C485.029 90.4787 484.275 90.158 483.374 90.158C482.49 90.158 481.736 90.4787 481.112 91.12C480.505 91.7613 480.202 92.6367 480.202 93.746C480.202 94.8553 480.505 95.7307 481.112 96.372C481.736 97.0133 482.49 97.334 483.374 97.334C484.258 97.334 485.012 97.0133 485.636 96.372C486.26 95.7133 486.572 94.8293 486.572 93.72ZM501.008 101L498.226 96.97L495.886 101H491.076L495.86 93.59L490.946 86.492H495.938L498.72 90.496L501.06 86.492H505.87L501.008 93.798L506 101H501.008ZM341.42 142.748V161H336.974V153.486H330.058V161H325.612V142.748H330.058V149.898H336.974V142.748H341.42ZM343.344 147.376C343.413 145.521 344.02 144.091 345.164 143.086C346.308 142.081 347.859 141.578 349.818 141.578C351.118 141.578 352.227 141.803 353.146 142.254C354.082 142.705 354.784 143.32 355.252 144.1C355.737 144.88 355.98 145.755 355.98 146.726C355.98 147.87 355.694 148.806 355.122 149.534C354.55 150.245 353.882 150.73 353.12 150.99V151.094C354.108 151.423 354.888 151.969 355.46 152.732C356.032 153.495 356.318 154.474 356.318 155.67C356.318 156.745 356.066 157.698 355.564 158.53C355.078 159.345 354.359 159.986 353.406 160.454C352.47 160.922 351.352 161.156 350.052 161.156C347.972 161.156 346.308 160.645 345.06 159.622C343.829 158.599 343.179 157.057 343.11 154.994H347.426C347.443 155.757 347.66 156.363 348.076 156.814C348.492 157.247 349.098 157.464 349.896 157.464C350.572 157.464 351.092 157.273 351.456 156.892C351.837 156.493 352.028 155.973 352.028 155.332C352.028 154.5 351.759 153.902 351.222 153.538C350.702 153.157 349.861 152.966 348.7 152.966H347.868V149.352H348.7C349.584 149.352 350.294 149.205 350.832 148.91C351.386 148.598 351.664 148.052 351.664 147.272C351.664 146.648 351.49 146.163 351.144 145.816C350.797 145.469 350.32 145.296 349.714 145.296C349.055 145.296 348.561 145.495 348.232 145.894C347.92 146.293 347.738 146.787 347.686 147.376H343.344ZM374.062 150.028V153.72H362.622V150.028H374.062ZM392.523 151.64C393.581 151.865 394.43 152.394 395.071 153.226C395.713 154.041 396.033 154.977 396.033 156.034C396.033 157.559 395.496 158.773 394.421 159.674C393.364 160.558 391.882 161 389.975 161H381.473V142.748H389.689C391.544 142.748 392.991 143.173 394.031 144.022C395.089 144.871 395.617 146.024 395.617 147.48C395.617 148.555 395.331 149.447 394.759 150.158C394.205 150.869 393.459 151.363 392.523 151.64ZM385.919 150.132H388.831C389.559 150.132 390.114 149.976 390.495 149.664C390.894 149.335 391.093 148.858 391.093 148.234C391.093 147.61 390.894 147.133 390.495 146.804C390.114 146.475 389.559 146.31 388.831 146.31H385.919V150.132ZM389.195 157.412C389.941 157.412 390.513 157.247 390.911 156.918C391.327 156.571 391.535 156.077 391.535 155.436C391.535 154.795 391.319 154.292 390.885 153.928C390.469 153.564 389.889 153.382 389.143 153.382H385.919V157.412H389.195ZM404.216 161.208C402.795 161.208 401.512 160.905 400.368 160.298C399.241 159.691 398.349 158.825 397.69 157.698C397.049 156.571 396.728 155.254 396.728 153.746C396.728 152.255 397.057 150.947 397.716 149.82C398.375 148.676 399.276 147.801 400.42 147.194C401.564 146.587 402.847 146.284 404.268 146.284C405.689 146.284 406.972 146.587 408.116 147.194C409.26 147.801 410.161 148.676 410.82 149.82C411.479 150.947 411.808 152.255 411.808 153.746C411.808 155.237 411.47 156.554 410.794 157.698C410.135 158.825 409.225 159.691 408.064 160.298C406.92 160.905 405.637 161.208 404.216 161.208ZM404.216 157.36C405.065 157.36 405.785 157.048 406.374 156.424C406.981 155.8 407.284 154.907 407.284 153.746C407.284 152.585 406.989 151.692 406.4 151.068C405.828 150.444 405.117 150.132 404.268 150.132C403.401 150.132 402.682 150.444 402.11 151.068C401.538 151.675 401.252 152.567 401.252 153.746C401.252 154.907 401.529 155.8 402.084 156.424C402.656 157.048 403.367 157.36 404.216 157.36ZM417.613 141.76V161H413.167V141.76H417.613ZM418.951 153.72C418.951 152.229 419.228 150.921 419.783 149.794C420.355 148.667 421.126 147.801 422.097 147.194C423.067 146.587 424.151 146.284 425.347 146.284C426.3 146.284 427.167 146.483 427.947 146.882C428.744 147.281 429.368 147.818 429.819 148.494V141.76H434.265V161H429.819V158.92C429.403 159.613 428.805 160.168 428.025 160.584C427.262 161 426.369 161.208 425.347 161.208C424.151 161.208 423.067 160.905 422.097 160.298C421.126 159.674 420.355 158.799 419.783 157.672C419.228 156.528 418.951 155.211 418.951 153.72ZM429.819 153.746C429.819 152.637 429.507 151.761 428.883 151.12C428.276 150.479 427.531 150.158 426.647 150.158C425.763 150.158 425.009 150.479 424.385 151.12C423.778 151.744 423.475 152.611 423.475 153.72C423.475 154.829 423.778 155.713 424.385 156.372C425.009 157.013 425.763 157.334 426.647 157.334C427.531 157.334 428.276 157.013 428.883 156.372C429.507 155.731 429.819 154.855 429.819 153.746ZM446.387 136.3L439.419 165.862H435.129L442.097 136.3H446.387ZM446.664 157.438C447.254 156.97 447.522 156.753 447.47 156.788C449.169 155.384 450.504 154.231 451.474 153.33C452.462 152.429 453.294 151.484 453.97 150.496C454.646 149.508 454.984 148.546 454.984 147.61C454.984 146.899 454.82 146.345 454.49 145.946C454.161 145.547 453.667 145.348 453.008 145.348C452.35 145.348 451.83 145.599 451.448 146.102C451.084 146.587 450.902 147.281 450.902 148.182H446.612C446.647 146.709 446.959 145.478 447.548 144.49C448.155 143.502 448.944 142.774 449.914 142.306C450.902 141.838 451.994 141.604 453.19 141.604C455.253 141.604 456.804 142.133 457.844 143.19C458.902 144.247 459.43 145.625 459.43 147.324C459.43 149.179 458.798 150.903 457.532 152.498C456.267 154.075 454.655 155.618 452.696 157.126H459.716V160.74H446.664V157.438ZM460.518 157.438C461.107 156.97 461.376 156.753 461.324 156.788C463.023 155.384 464.357 154.231 465.328 153.33C466.316 152.429 467.148 151.484 467.824 150.496C468.5 149.508 468.838 148.546 468.838 147.61C468.838 146.899 468.673 146.345 468.344 145.946C468.015 145.547 467.521 145.348 466.862 145.348C466.203 145.348 465.683 145.599 465.302 146.102C464.938 146.587 464.756 147.281 464.756 148.182H460.466C460.501 146.709 460.813 145.478 461.402 144.49C462.009 143.502 462.797 142.774 463.768 142.306C464.756 141.838 465.848 141.604 467.044 141.604C469.107 141.604 470.658 142.133 471.698 143.19C472.755 144.247 473.284 145.625 473.284 147.324C473.284 149.179 472.651 150.903 471.386 152.498C470.121 154.075 468.509 155.618 466.55 157.126H473.57V160.74H460.518V157.438ZM479.415 148.546C479.849 147.87 480.447 147.324 481.209 146.908C481.972 146.492 482.865 146.284 483.887 146.284C485.083 146.284 486.167 146.587 487.137 147.194C488.108 147.801 488.871 148.667 489.425 149.794C489.997 150.921 490.283 152.229 490.283 153.72C490.283 155.211 489.997 156.528 489.425 157.672C488.871 158.799 488.108 159.674 487.137 160.298C486.167 160.905 485.083 161.208 483.887 161.208C482.882 161.208 481.989 161 481.209 160.584C480.447 160.168 479.849 159.631 479.415 158.972V167.916H474.969V146.492H479.415V148.546ZM485.759 153.72C485.759 152.611 485.447 151.744 484.823 151.12C484.217 150.479 483.463 150.158 482.561 150.158C481.677 150.158 480.923 150.479 480.299 151.12C479.693 151.761 479.389 152.637 479.389 153.746C479.389 154.855 479.693 155.731 480.299 156.372C480.923 157.013 481.677 157.334 482.561 157.334C483.445 157.334 484.199 157.013 484.823 156.372C485.447 155.713 485.759 154.829 485.759 153.72ZM500.196 161L497.414 156.97L495.074 161H490.264L495.048 153.59L490.134 146.492H495.126L497.908 150.496L500.248 146.492H505.058L500.196 153.798L505.188 161H500.196ZM340.848 202.852V221H337.208V213.278H329.434V221H325.794V202.852H329.434V210.314H337.208V202.852H340.848ZM342.859 217.308V214.448L351.361 202.28H355.599V214.136H357.887V217.308H355.599V221H351.959V217.308H342.859ZM352.193 206.18L346.863 214.136H352.193V206.18ZM375.891 210.184V213.252H364.867V210.184H375.891ZM390.435 221.182C389.17 221.182 388.026 220.965 387.003 220.532C385.998 220.099 385.2 219.475 384.611 218.66C384.022 217.845 383.718 216.883 383.701 215.774H387.601C387.653 216.519 387.913 217.109 388.381 217.542C388.866 217.975 389.525 218.192 390.357 218.192C391.206 218.192 391.874 217.993 392.359 217.594C392.844 217.178 393.087 216.641 393.087 215.982C393.087 215.445 392.922 215.003 392.593 214.656C392.264 214.309 391.848 214.041 391.345 213.85C390.86 213.642 390.184 213.417 389.317 213.174C388.138 212.827 387.176 212.489 386.431 212.16C385.703 211.813 385.07 211.302 384.533 210.626C384.013 209.933 383.753 209.014 383.753 207.87C383.753 206.795 384.022 205.859 384.559 205.062C385.096 204.265 385.85 203.658 386.821 203.242C387.792 202.809 388.901 202.592 390.149 202.592C392.021 202.592 393.538 203.051 394.699 203.97C395.878 204.871 396.528 206.137 396.649 207.766H392.645C392.61 207.142 392.342 206.631 391.839 206.232C391.354 205.816 390.704 205.608 389.889 205.608C389.178 205.608 388.606 205.79 388.173 206.154C387.757 206.518 387.549 207.047 387.549 207.74C387.549 208.225 387.705 208.633 388.017 208.962C388.346 209.274 388.745 209.534 389.213 209.742C389.698 209.933 390.374 210.158 391.241 210.418C392.42 210.765 393.382 211.111 394.127 211.458C394.872 211.805 395.514 212.325 396.051 213.018C396.588 213.711 396.857 214.621 396.857 215.748C396.857 216.719 396.606 217.62 396.103 218.452C395.6 219.284 394.864 219.951 393.893 220.454C392.922 220.939 391.77 221.182 390.435 221.182ZM412.403 213.486C412.403 214.006 412.368 214.474 412.299 214.89H401.769C401.855 215.93 402.219 216.745 402.861 217.334C403.502 217.923 404.291 218.218 405.227 218.218C406.579 218.218 407.541 217.637 408.113 216.476H412.039C411.623 217.863 410.825 219.007 409.647 219.908C408.468 220.792 407.021 221.234 405.305 221.234C403.918 221.234 402.67 220.931 401.561 220.324C400.469 219.7 399.611 218.825 398.987 217.698C398.38 216.571 398.077 215.271 398.077 213.798C398.077 212.307 398.38 210.999 398.987 209.872C399.593 208.745 400.443 207.879 401.535 207.272C402.627 206.665 403.883 206.362 405.305 206.362C406.674 206.362 407.896 206.657 408.971 207.246C410.063 207.835 410.903 208.676 411.493 209.768C412.099 210.843 412.403 212.082 412.403 213.486ZM408.633 212.446C408.615 211.51 408.277 210.765 407.619 210.21C406.96 209.638 406.154 209.352 405.201 209.352C404.299 209.352 403.537 209.629 402.913 210.184C402.306 210.721 401.933 211.475 401.795 212.446H408.633ZM431.948 206.388C433.716 206.388 435.137 206.934 436.212 208.026C437.304 209.101 437.85 210.609 437.85 212.55V221H434.21V213.044C434.21 211.917 433.924 211.059 433.352 210.47C432.78 209.863 432 209.56 431.012 209.56C430.024 209.56 429.235 209.863 428.646 210.47C428.074 211.059 427.788 211.917 427.788 213.044V221H424.148V213.044C424.148 211.917 423.862 211.059 423.29 210.47C422.718 209.863 421.938 209.56 420.95 209.56C419.944 209.56 419.147 209.863 418.558 210.47C417.986 211.059 417.7 211.917 417.7 213.044V221H414.06V206.596H417.7V208.338C418.168 207.731 418.766 207.255 419.494 206.908C420.239 206.561 421.054 206.388 421.938 206.388C423.064 206.388 424.07 206.631 424.954 207.116C425.838 207.584 426.522 208.26 427.008 209.144C427.476 208.312 428.152 207.645 429.036 207.142C429.937 206.639 430.908 206.388 431.948 206.388ZM442.15 204.88C441.508 204.88 440.971 204.681 440.538 204.282C440.122 203.866 439.914 203.355 439.914 202.748C439.914 202.141 440.122 201.639 440.538 201.24C440.971 200.824 441.508 200.616 442.15 200.616C442.791 200.616 443.32 200.824 443.736 201.24C444.169 201.639 444.386 202.141 444.386 202.748C444.386 203.355 444.169 203.866 443.736 204.282C443.32 204.681 442.791 204.88 442.15 204.88ZM443.944 206.596V221H440.304V206.596H443.944ZM462.031 211.692C463.054 211.883 463.895 212.394 464.553 213.226C465.212 214.058 465.541 215.011 465.541 216.086C465.541 217.057 465.299 217.915 464.813 218.66C464.345 219.388 463.661 219.96 462.759 220.376C461.858 220.792 460.792 221 459.561 221H451.735V202.852H459.223C460.454 202.852 461.511 203.051 462.395 203.45C463.297 203.849 463.973 204.403 464.423 205.114C464.891 205.825 465.125 206.631 465.125 207.532C465.125 208.589 464.839 209.473 464.267 210.184C463.713 210.895 462.967 211.397 462.031 211.692ZM455.375 210.34H458.703C459.57 210.34 460.237 210.149 460.705 209.768C461.173 209.369 461.407 208.806 461.407 208.078C461.407 207.35 461.173 206.787 460.705 206.388C460.237 205.989 459.57 205.79 458.703 205.79H455.375V210.34ZM459.041 218.036C459.925 218.036 460.61 217.828 461.095 217.412C461.598 216.996 461.849 216.407 461.849 215.644C461.849 214.864 461.589 214.257 461.069 213.824C460.549 213.373 459.847 213.148 458.963 213.148H455.375V218.036H459.041ZM473.838 221.234C472.452 221.234 471.204 220.931 470.094 220.324C468.985 219.7 468.11 218.825 467.468 217.698C466.844 216.571 466.532 215.271 466.532 213.798C466.532 212.325 466.853 211.025 467.494 209.898C468.153 208.771 469.046 207.905 470.172 207.298C471.299 206.674 472.556 206.362 473.942 206.362C475.329 206.362 476.586 206.674 477.712 207.298C478.839 207.905 479.723 208.771 480.364 209.898C481.023 211.025 481.352 212.325 481.352 213.798C481.352 215.271 481.014 216.571 480.338 217.698C479.68 218.825 478.778 219.7 477.634 220.324C476.508 220.931 475.242 221.234 473.838 221.234ZM473.838 218.062C474.497 218.062 475.112 217.906 475.684 217.594C476.274 217.265 476.742 216.779 477.088 216.138C477.435 215.497 477.608 214.717 477.608 213.798C477.608 212.429 477.244 211.38 476.516 210.652C475.806 209.907 474.93 209.534 473.89 209.534C472.85 209.534 471.975 209.907 471.264 210.652C470.571 211.38 470.224 212.429 470.224 213.798C470.224 215.167 470.562 216.225 471.238 216.97C471.932 217.698 472.798 218.062 473.838 218.062ZM486.663 201.76V221H483.023V201.76H486.663ZM488.323 213.746C488.323 212.29 488.609 210.999 489.181 209.872C489.77 208.745 490.568 207.879 491.573 207.272C492.578 206.665 493.696 206.362 494.927 206.362C495.863 206.362 496.756 206.57 497.605 206.986C498.454 207.385 499.13 207.922 499.633 208.598V201.76H503.325V221H499.633V218.868C499.182 219.579 498.55 220.151 497.735 220.584C496.92 221.017 495.976 221.234 494.901 221.234C493.688 221.234 492.578 220.922 491.573 220.298C490.568 219.674 489.77 218.799 489.181 217.672C488.609 216.528 488.323 215.219 488.323 213.746ZM499.659 213.798C499.659 212.914 499.486 212.16 499.139 211.536C498.792 210.895 498.324 210.409 497.735 210.08C497.146 209.733 496.513 209.56 495.837 209.56C495.161 209.56 494.537 209.725 493.965 210.054C493.393 210.383 492.925 210.869 492.561 211.51C492.214 212.134 492.041 212.879 492.041 213.746C492.041 214.613 492.214 215.375 492.561 216.034C492.925 216.675 493.393 217.169 493.965 217.516C494.554 217.863 495.178 218.036 495.837 218.036C496.513 218.036 497.146 217.871 497.735 217.542C498.324 217.195 498.792 216.71 499.139 216.086C499.486 215.445 499.659 214.682 499.659 213.798ZM515.63 196.378L508.61 225.706H505.048L512.068 196.378H515.63ZM516.666 205.4V202.046H522.932V221H519.188V205.4H516.666ZM535.356 206.778C535.183 206.05 534.88 205.504 534.446 205.14C534.03 204.776 533.424 204.594 532.626 204.594C531.43 204.594 530.546 205.079 529.974 206.05C529.42 207.003 529.134 208.563 529.116 210.73C529.532 210.037 530.139 209.499 530.936 209.118C531.734 208.719 532.6 208.52 533.536 208.52C534.663 208.52 535.66 208.763 536.526 209.248C537.393 209.733 538.069 210.444 538.554 211.38C539.04 212.299 539.282 213.408 539.282 214.708C539.282 215.939 539.031 217.039 538.528 218.01C538.043 218.963 537.324 219.709 536.37 220.246C535.417 220.783 534.282 221.052 532.964 221.052C531.162 221.052 529.74 220.653 528.7 219.856C527.678 219.059 526.958 217.949 526.542 216.528C526.144 215.089 525.944 213.321 525.944 211.224C525.944 208.052 526.49 205.66 527.582 204.048C528.674 202.419 530.399 201.604 532.756 201.604C534.576 201.604 535.989 202.098 536.994 203.086C538 204.074 538.58 205.305 538.736 206.778H535.356ZM532.704 211.51C531.786 211.51 531.014 211.779 530.39 212.316C529.766 212.853 529.454 213.633 529.454 214.656C529.454 215.679 529.74 216.485 530.312 217.074C530.902 217.663 531.725 217.958 532.782 217.958C533.718 217.958 534.455 217.672 534.992 217.1C535.547 216.528 535.824 215.757 535.824 214.786C535.824 213.781 535.556 212.983 535.018 212.394C534.498 211.805 533.727 211.51 532.704 211.51ZM545.215 208.676C545.683 208.017 546.325 207.471 547.139 207.038C547.971 206.587 548.916 206.362 549.973 206.362C551.204 206.362 552.313 206.665 553.301 207.272C554.307 207.879 555.095 208.745 555.667 209.872C556.257 210.981 556.551 212.273 556.551 213.746C556.551 215.219 556.257 216.528 555.667 217.672C555.095 218.799 554.307 219.674 553.301 220.298C552.313 220.922 551.204 221.234 549.973 221.234C548.916 221.234 547.98 221.017 547.165 220.584C546.368 220.151 545.718 219.605 545.215 218.946V227.864H541.575V206.596H545.215V208.676ZM552.833 213.746C552.833 212.879 552.651 212.134 552.287 211.51C551.941 210.869 551.473 210.383 550.883 210.054C550.311 209.725 549.687 209.56 549.011 209.56C548.353 209.56 547.729 209.733 547.139 210.08C546.567 210.409 546.099 210.895 545.735 211.536C545.389 212.177 545.215 212.931 545.215 213.798C545.215 214.665 545.389 215.419 545.735 216.06C546.099 216.701 546.567 217.195 547.139 217.542C547.729 217.871 548.353 218.036 549.011 218.036C549.687 218.036 550.311 217.863 550.883 217.516C551.473 217.169 551.941 216.675 552.287 216.034C552.651 215.393 552.833 214.63 552.833 213.746ZM566.152 221L563.188 216.528L560.562 221H556.662L561.368 213.772L556.61 206.596H560.718L563.656 211.042L566.308 206.596H570.208L565.476 213.772L570.26 221H566.152ZM337.702 268.052C337.702 269.612 337.191 270.869 336.168 271.822C335.145 272.775 333.611 273.252 331.566 273.252H327.9V281H326.08V262.826H331.566C333.594 262.826 335.119 263.303 336.142 264.256C337.182 265.209 337.702 266.475 337.702 268.052ZM331.566 271.692C334.409 271.692 335.83 270.479 335.83 268.052C335.83 266.839 335.492 265.92 334.816 265.296C334.14 264.672 333.057 264.36 331.566 264.36H327.9V271.692H331.566ZM354.705 270.6V272.134H344.591V270.6H354.705ZM366.328 261.76V281H364.508V261.76H366.328ZM370.359 264.126C369.995 264.126 369.683 263.996 369.423 263.736C369.163 263.476 369.033 263.155 369.033 262.774C369.033 262.393 369.163 262.081 369.423 261.838C369.683 261.578 369.995 261.448 370.359 261.448C370.723 261.448 371.035 261.578 371.295 261.838C371.555 262.081 371.685 262.393 371.685 262.774C371.685 263.155 371.555 263.476 371.295 263.736C371.035 263.996 370.723 264.126 370.359 264.126ZM371.269 266.804V281H369.449V266.804H371.269ZM380.345 266.596C381.679 266.596 382.841 266.908 383.829 267.532C384.817 268.156 385.527 268.945 385.961 269.898V266.804H387.781V281.364C387.781 282.664 387.495 283.817 386.923 284.822C386.368 285.827 385.588 286.599 384.583 287.136C383.577 287.691 382.433 287.968 381.151 287.968C379.331 287.968 377.814 287.535 376.601 286.668C375.405 285.801 374.659 284.623 374.365 283.132H376.159C376.471 284.12 377.06 284.909 377.927 285.498C378.811 286.087 379.885 286.382 381.151 286.382C382.069 286.382 382.893 286.183 383.621 285.784C384.349 285.403 384.921 284.831 385.337 284.068C385.753 283.305 385.961 282.404 385.961 281.364V277.854C385.51 278.825 384.791 279.631 383.803 280.272C382.832 280.896 381.679 281.208 380.345 281.208C379.045 281.208 377.875 280.905 376.835 280.298C375.812 279.691 375.006 278.833 374.417 277.724C373.845 276.615 373.559 275.332 373.559 273.876C373.559 272.42 373.845 271.146 374.417 270.054C375.006 268.945 375.812 268.095 376.835 267.506C377.875 266.899 379.045 266.596 380.345 266.596ZM385.961 273.902C385.961 272.758 385.727 271.753 385.259 270.886C384.791 270.019 384.149 269.352 383.335 268.884C382.537 268.416 381.653 268.182 380.683 268.182C379.677 268.182 378.776 268.407 377.979 268.858C377.181 269.309 376.549 269.967 376.081 270.834C375.63 271.683 375.405 272.697 375.405 273.876C375.405 275.037 375.63 276.06 376.081 276.944C376.549 277.811 377.181 278.478 377.979 278.946C378.776 279.397 379.677 279.622 380.683 279.622C381.653 279.622 382.537 279.388 383.335 278.92C384.149 278.452 384.791 277.785 385.259 276.918C385.727 276.051 385.961 275.046 385.961 273.902ZM397.695 266.544C398.77 266.544 399.732 266.769 400.581 267.22C401.448 267.671 402.124 268.364 402.609 269.3C403.112 270.219 403.363 271.345 403.363 272.68V281H401.569V272.888C401.569 271.345 401.179 270.167 400.399 269.352C399.637 268.537 398.588 268.13 397.253 268.13C395.884 268.13 394.792 268.563 393.977 269.43C393.163 270.297 392.755 271.571 392.755 273.252V281H390.935V261.76H392.755V269.222C393.206 268.373 393.865 267.714 394.731 267.246C395.615 266.778 396.603 266.544 397.695 266.544ZM408.755 268.338V277.152C408.755 278.019 408.919 278.617 409.249 278.946C409.578 279.275 410.159 279.44 410.991 279.44H412.655V281H410.705C409.422 281 408.469 280.705 407.845 280.116C407.221 279.509 406.909 278.521 406.909 277.152V268.338H404.933V266.804H406.909V263.242H408.755V266.804H412.655V268.338H408.755ZM422.742 256.56L415.566 285.316H413.772L420.896 256.56H422.742ZM423.859 263.996V262.358H428.279V281H426.433V263.996H423.859ZM430.971 279.57C434.16 277.178 436.621 275.037 438.355 273.148C440.105 271.241 440.981 269.378 440.981 267.558C440.981 266.362 440.677 265.409 440.071 264.698C439.481 263.97 438.511 263.606 437.159 263.606C435.841 263.606 434.819 264.022 434.091 264.854C433.38 265.669 432.981 266.761 432.895 268.13H431.127C431.231 266.206 431.82 264.715 432.895 263.658C433.987 262.583 435.408 262.046 437.159 262.046C438.84 262.046 440.201 262.523 441.241 263.476C442.281 264.412 442.801 265.747 442.801 267.48C442.801 269.577 441.925 271.614 440.175 273.59C438.441 275.549 436.301 277.464 433.753 279.336H443.373V280.87H430.971V279.57ZM447.397 269.924C447.848 268.971 448.559 268.182 449.529 267.558C450.517 266.917 451.687 266.596 453.039 266.596C454.322 266.596 455.475 266.899 456.497 267.506C457.537 268.095 458.343 268.945 458.915 270.054C459.505 271.146 459.799 272.42 459.799 273.876C459.799 275.332 459.505 276.615 458.915 277.724C458.343 278.833 457.537 279.691 456.497 280.298C455.475 280.905 454.322 281.208 453.039 281.208C451.705 281.208 450.543 280.896 449.555 280.272C448.567 279.631 447.848 278.833 447.397 277.88V287.708H445.603V266.804H447.397V269.924ZM457.953 273.876C457.953 272.697 457.719 271.683 457.251 270.834C456.801 269.967 456.177 269.309 455.379 268.858C454.582 268.407 453.681 268.182 452.675 268.182C451.705 268.182 450.812 268.416 449.997 268.884C449.2 269.352 448.567 270.019 448.099 270.886C447.631 271.753 447.397 272.758 447.397 273.902C447.397 275.046 447.631 276.051 448.099 276.918C448.567 277.785 449.2 278.452 449.997 278.92C450.812 279.388 451.705 279.622 452.675 279.622C453.681 279.622 454.582 279.397 455.379 278.946C456.177 278.478 456.801 277.811 457.251 276.944C457.719 276.06 457.953 275.037 457.953 273.876ZM469.584 281L465.918 275.28L462.382 281H460.458L465.034 273.902L460.51 266.804H462.564L466.178 272.446L469.688 266.804H471.586L467.062 273.824L471.638 281H469.584Z" fill="black"/>
</svg>
