<svg width="1279" height="309" viewBox="0 0 1279 309" fill="none" xmlns="http://www.w3.org/2000/svg">
<path d="M0.320001 300V0.379984H73.748V235.012H191.908V300H0.320001ZM283.116 0.379984H356.544V173.4C356.544 210.114 376.378 240.92 416.468 240.92C456.136 240.92 476.392 211.38 476.392 173.4V0.379984H549.82V176.776C549.82 256.534 497.914 308.44 415.624 308.44C337.132 308.44 283.116 258.644 283.116 176.776V0.379984ZM657.107 0.379984H728.847L814.513 160.318L900.601 0.379984H970.653V300H900.179V124.448L839.411 237.544H788.349L727.581 124.448V300H657.107V0.379984ZM1080.49 0.379984H1274.19V61.57H1152.23V116.43H1259.84V177.62H1152.23V238.81H1278.41V300H1080.49V0.379984Z" fill="white"/>
</svg>
