<svg width="966" height="229" viewBox="0 0 966 229" fill="none" xmlns="http://www.w3.org/2000/svg">
<path d="M0.478 10.29H24.257L102.517 153.566L181.078 10.29H203.954V224H179.272V57.246L112.149 179.452H92.283L25.16 57.246V224H0.478V10.29ZM282.825 146.643C282.825 103.6 311.119 64.47 357.172 64.47C400.215 64.47 428.509 98.483 428.509 141.225V151.158H307.808C310.216 181.258 327.072 207.144 360.483 207.144C379.446 207.144 394.797 199.017 405.031 182.763L425.499 192.094C412.857 216.174 387.874 228.515 361.085 228.515C314.43 228.515 282.825 193.298 282.825 146.643ZM357.172 84.938C330.082 84.938 313.226 107.212 309.012 132.496H403.225C400.817 107.212 384.864 84.938 357.172 84.938ZM571.529 228.515C527.282 228.515 498.687 189.084 498.687 146.643C498.687 104.202 526.981 64.169 572.733 64.169C595.91 64.169 615.776 75.005 627.515 95.172V0.657987H651.595V224H629.923L628.719 194.502C616.679 216.475 596.512 228.515 571.529 228.515ZM523.369 146.342C523.369 161.693 527.583 177.947 538.419 189.385C547.75 200.522 561.295 206.542 575.743 206.542C608.853 206.542 628.117 177.947 628.117 146.342C628.117 130.389 623.903 115.339 613.368 102.998C603.134 92.162 590.793 86.142 575.743 86.142C542.633 86.142 523.369 115.038 523.369 146.342ZM759.976 224H735.896V68.684H759.976V224ZM747.936 39.788C739.207 39.788 731.381 31.962 731.381 23.233C731.381 14.203 738.906 6.67798 747.936 6.67798C757.267 6.67798 764.491 13.601 764.491 23.233C764.491 32.263 756.966 39.788 747.936 39.788ZM836.649 180.355C836.649 144.837 869.157 130.389 900.762 130.389C914.006 130.389 930.862 133.399 942.601 139.118V127.68C942.601 103.901 928.755 85.54 903.471 85.54C886.013 85.54 870.361 94.269 863.438 110.824L842.368 103.6C851.097 77.714 877.886 64.47 903.772 64.47C941.698 64.47 965.778 89.754 965.778 128.282V224H944.708L943.203 199.92C933.27 219.184 913.404 228.515 892.334 228.515C863.739 228.515 836.649 211.96 836.649 180.355ZM861.03 179.452C861.03 199.318 878.789 208.348 896.849 208.348C922.133 208.348 942.601 189.686 942.601 163.499V157.78C929.959 152.663 917.016 149.352 903.471 149.352C884.508 149.352 861.03 156.576 861.03 179.452Z" fill="white"/>
</svg>
