<svg width="1728" height="324" viewBox="0 0 1728 324" fill="none" xmlns="http://www.w3.org/2000/svg">
<path d="M84.5779 294V270.16H92.3859C94.7965 270.16 96.8979 270.651 98.6899 271.632C100.482 272.613 101.869 274 102.85 275.792C103.831 277.563 104.322 279.653 104.322 282.064C104.322 284.453 103.831 286.544 102.85 288.336C101.869 290.128 100.482 291.525 98.6899 292.528C96.8979 293.509 94.7965 294 92.3859 294H84.5779ZM87.7139 291.12H92.4179C94.1885 291.12 95.7139 290.747 96.9939 290C98.2952 289.253 99.2979 288.208 100.002 286.864C100.706 285.499 101.058 283.899 101.058 282.064C101.058 280.208 100.695 278.608 99.9699 277.264C99.2659 275.92 98.2632 274.885 96.9619 274.16C95.6819 273.413 94.1672 273.04 92.4179 273.04H87.7139V291.12ZM107.945 294V276.752H110.921V294H107.945ZM107.945 274V270.16H110.921V274H107.945ZM121.714 294.384C119.986 294.384 118.482 293.957 117.202 293.104C115.922 292.251 115.016 291.099 114.482 289.648L116.85 288.496C117.341 289.52 118.013 290.331 118.866 290.928C119.72 291.525 120.669 291.824 121.714 291.824C122.653 291.824 123.432 291.6 124.05 291.152C124.669 290.704 124.978 290.117 124.978 289.392C124.978 288.88 124.829 288.475 124.53 288.176C124.253 287.856 123.912 287.611 123.506 287.44C123.101 287.248 122.728 287.109 122.386 287.024L119.794 286.288C118.237 285.84 117.096 285.2 116.37 284.368C115.666 283.536 115.314 282.565 115.314 281.456C115.314 280.432 115.57 279.547 116.082 278.8C116.616 278.032 117.33 277.435 118.226 277.008C119.144 276.581 120.168 276.368 121.298 276.368C122.813 276.368 124.168 276.752 125.362 277.52C126.578 278.288 127.442 279.365 127.954 280.752L125.522 281.872C125.138 280.976 124.562 280.272 123.794 279.76C123.026 279.227 122.162 278.96 121.202 278.96C120.328 278.96 119.634 279.184 119.122 279.632C118.61 280.059 118.354 280.603 118.354 281.264C118.354 281.755 118.482 282.16 118.738 282.48C118.994 282.779 119.304 283.013 119.666 283.184C120.029 283.333 120.381 283.461 120.722 283.568L123.538 284.4C124.946 284.805 126.034 285.435 126.802 286.288C127.592 287.141 127.986 288.165 127.986 289.36C127.986 290.32 127.72 291.184 127.186 291.952C126.653 292.72 125.917 293.317 124.978 293.744C124.04 294.171 122.952 294.384 121.714 294.384ZM139.882 294.384C138.197 294.384 136.693 293.989 135.37 293.2C134.069 292.411 133.045 291.333 132.298 289.968C131.551 288.603 131.178 287.067 131.178 285.36C131.178 283.632 131.551 282.096 132.298 280.752C133.045 279.408 134.069 278.341 135.37 277.552C136.693 276.763 138.197 276.368 139.882 276.368C141.013 276.368 142.069 276.571 143.05 276.976C144.031 277.381 144.895 277.925 145.642 278.608C146.389 279.291 146.933 280.091 147.274 281.008L144.618 282.288C144.213 281.392 143.594 280.667 142.762 280.112C141.93 279.536 140.97 279.248 139.882 279.248C138.837 279.248 137.887 279.515 137.034 280.048C136.202 280.581 135.541 281.307 135.05 282.224C134.559 283.141 134.314 284.197 134.314 285.392C134.314 286.544 134.559 287.589 135.05 288.528C135.541 289.445 136.202 290.171 137.034 290.704C137.887 291.237 138.837 291.504 139.882 291.504C140.97 291.504 141.93 291.227 142.762 290.672C143.594 290.096 144.213 289.339 144.618 288.4L147.274 289.744C146.933 290.64 146.389 291.44 145.642 292.144C144.895 292.827 144.031 293.371 143.05 293.776C142.069 294.181 141.013 294.384 139.882 294.384ZM159.355 294.384C157.691 294.384 156.187 294 154.843 293.232C153.499 292.443 152.433 291.365 151.643 290C150.854 288.635 150.459 287.088 150.459 285.36C150.459 283.632 150.843 282.096 151.611 280.752C152.401 279.408 153.467 278.341 154.811 277.552C156.155 276.763 157.67 276.368 159.355 276.368C161.019 276.368 162.523 276.763 163.867 277.552C165.211 278.32 166.267 279.376 167.035 280.72C167.825 282.064 168.219 283.611 168.219 285.36C168.219 287.109 167.814 288.667 167.003 290.032C166.193 291.376 165.115 292.443 163.771 293.232C162.449 294 160.977 294.384 159.355 294.384ZM159.355 291.504C160.422 291.504 161.382 291.237 162.235 290.704C163.11 290.171 163.793 289.435 164.283 288.496C164.795 287.557 165.051 286.512 165.051 285.36C165.051 284.187 164.795 283.152 164.283 282.256C163.793 281.339 163.11 280.613 162.235 280.08C161.382 279.525 160.422 279.248 159.355 279.248C158.267 279.248 157.286 279.525 156.411 280.08C155.558 280.613 154.875 281.339 154.363 282.256C153.851 283.152 153.595 284.187 153.595 285.36C153.595 286.512 153.851 287.557 154.363 288.496C154.875 289.435 155.558 290.171 156.411 290.704C157.286 291.237 158.267 291.504 159.355 291.504ZM176.588 294L169.836 276.752H173.164L178.572 291.344H177.42L182.86 276.752H186.188L179.404 294H176.588ZM196.474 294.384C194.81 294.384 193.328 293.989 192.026 293.2C190.725 292.411 189.701 291.333 188.954 289.968C188.208 288.581 187.834 287.035 187.834 285.328C187.834 283.6 188.197 282.064 188.922 280.72C189.669 279.376 190.672 278.32 191.93 277.552C193.21 276.763 194.64 276.368 196.218 276.368C197.498 276.368 198.629 276.603 199.61 277.072C200.613 277.52 201.456 278.139 202.138 278.928C202.842 279.696 203.376 280.581 203.738 281.584C204.122 282.565 204.314 283.589 204.314 284.656C204.314 284.891 204.293 285.157 204.25 285.456C204.229 285.733 204.197 286 204.154 286.256H190.01V283.696H202.426L201.018 284.848C201.21 283.739 201.104 282.747 200.698 281.872C200.293 280.997 199.696 280.304 198.906 279.792C198.117 279.28 197.221 279.024 196.218 279.024C195.216 279.024 194.298 279.28 193.466 279.792C192.634 280.304 191.984 281.04 191.514 282C191.066 282.939 190.885 284.059 190.97 285.36C190.885 286.619 191.077 287.728 191.546 288.688C192.037 289.627 192.72 290.363 193.594 290.896C194.49 291.408 195.461 291.664 196.506 291.664C197.658 291.664 198.629 291.397 199.418 290.864C200.208 290.331 200.848 289.648 201.338 288.816L203.834 290.096C203.493 290.885 202.96 291.611 202.234 292.272C201.53 292.912 200.688 293.424 199.706 293.808C198.746 294.192 197.669 294.384 196.474 294.384ZM208.195 294V276.752H211.107V279.92L210.787 279.472C211.192 278.491 211.811 277.765 212.643 277.296C213.475 276.805 214.488 276.56 215.683 276.56H216.739V279.376H215.235C214.019 279.376 213.037 279.76 212.291 280.528C211.544 281.275 211.171 282.341 211.171 283.728V294H208.195Z" fill="#040415"/>
<g filter="url(#filter0_d_192_1521)">
<circle cx="149" cy="136" r="94" fill="white"/>
<path d="M148.929 132.48C146.993 132.48 145.409 134.064 145.409 136C145.409 137.936 146.993 139.52 148.929 139.52C149.862 139.52 150.758 139.149 151.418 138.489C152.078 137.829 152.449 136.934 152.449 136C152.449 135.066 152.078 134.171 151.418 133.511C150.758 132.851 149.862 132.48 148.929 132.48ZM148.929 104C131.249 104 116.929 118.32 116.929 136C116.929 153.664 131.249 168 148.929 168C166.609 168 180.929 153.664 180.929 136C180.929 118.32 166.609 104 148.929 104ZM155.937 143.008L129.729 155.2L141.921 128.992L168.129 116.8L155.937 143.008Z" fill="url(#paint0_linear_192_1521)"/>
</g>
<path fill-rule="evenodd" clip-rule="evenodd" d="M377.948 159.96C378.562 159.347 379.557 159.347 380.171 159.96L389.599 169.389C390.213 170.003 390.213 170.997 389.599 171.611L380.171 181.04C379.557 181.653 378.562 181.653 377.948 181.04C377.335 180.426 377.335 179.431 377.948 178.817L384.694 172.071H363.345C362.477 172.071 361.774 171.368 361.774 170.5C361.774 169.632 362.477 168.929 363.345 168.929H384.694L377.948 162.183C377.335 161.569 377.335 160.574 377.948 159.96Z" fill="#AFB4FF"/>
<path d="M554.661 294V270.16H562.469C564.88 270.16 566.981 270.651 568.773 271.632C570.565 272.613 571.952 274 572.933 275.792C573.914 277.563 574.405 279.653 574.405 282.064C574.405 284.453 573.914 286.544 572.933 288.336C571.952 290.128 570.565 291.525 568.773 292.528C566.981 293.509 564.88 294 562.469 294H554.661ZM557.797 291.12H562.501C564.272 291.12 565.797 290.747 567.077 290C568.378 289.253 569.381 288.208 570.085 286.864C570.789 285.499 571.141 283.899 571.141 282.064C571.141 280.208 570.778 278.608 570.053 277.264C569.349 275.92 568.346 274.885 567.045 274.16C565.765 273.413 564.25 273.04 562.501 273.04H557.797V291.12ZM585.964 294.384C584.3 294.384 582.817 293.989 581.516 293.2C580.215 292.411 579.191 291.333 578.444 289.968C577.697 288.581 577.324 287.035 577.324 285.328C577.324 283.6 577.687 282.064 578.412 280.72C579.159 279.376 580.161 278.32 581.42 277.552C582.7 276.763 584.129 276.368 585.708 276.368C586.988 276.368 588.119 276.603 589.1 277.072C590.103 277.52 590.945 278.139 591.628 278.928C592.332 279.696 592.865 280.581 593.228 281.584C593.612 282.565 593.804 283.589 593.804 284.656C593.804 284.891 593.783 285.157 593.74 285.456C593.719 285.733 593.687 286 593.644 286.256H579.5V283.696H591.916L590.508 284.848C590.7 283.739 590.593 282.747 590.188 281.872C589.783 280.997 589.185 280.304 588.396 279.792C587.607 279.28 586.711 279.024 585.708 279.024C584.705 279.024 583.788 279.28 582.956 279.792C582.124 280.304 581.473 281.04 581.004 282C580.556 282.939 580.375 284.059 580.46 285.36C580.375 286.619 580.567 287.728 581.036 288.688C581.527 289.627 582.209 290.363 583.084 290.896C583.98 291.408 584.951 291.664 585.996 291.664C587.148 291.664 588.119 291.397 588.908 290.864C589.697 290.331 590.337 289.648 590.828 288.816L593.324 290.096C592.983 290.885 592.449 291.611 591.724 292.272C591.02 292.912 590.177 293.424 589.196 293.808C588.236 294.192 587.159 294.384 585.964 294.384ZM599.508 294V279.6H596.212V276.752H599.508V275.536C599.508 274.299 599.775 273.253 600.308 272.4C600.863 271.547 601.588 270.896 602.484 270.448C603.401 270 604.415 269.776 605.524 269.776C605.759 269.776 606.015 269.797 606.292 269.84C606.591 269.861 606.836 269.893 607.028 269.936V272.592C606.857 272.549 606.655 272.528 606.42 272.528C606.185 272.507 606.004 272.496 605.876 272.496C604.895 272.496 604.084 272.731 603.444 273.2C602.825 273.669 602.516 274.448 602.516 275.536V276.752H611.476V279.6H602.516V294H599.508ZM609.62 294V276.752H612.628V294H609.62ZM616.747 294V276.752H619.659V280.112L619.179 279.824C619.605 278.736 620.288 277.893 621.227 277.296C622.187 276.677 623.307 276.368 624.587 276.368C625.824 276.368 626.923 276.645 627.883 277.2C628.864 277.755 629.632 278.523 630.187 279.504C630.763 280.485 631.051 281.595 631.051 282.832V294H628.043V283.792C628.043 282.832 627.872 282.021 627.531 281.36C627.189 280.699 626.699 280.187 626.059 279.824C625.44 279.44 624.725 279.248 623.915 279.248C623.104 279.248 622.379 279.44 621.739 279.824C621.12 280.187 620.629 280.709 620.267 281.392C619.904 282.053 619.723 282.853 619.723 283.792V294H616.747ZM643.245 294.384C641.581 294.384 640.098 293.989 638.797 293.2C637.496 292.411 636.472 291.333 635.725 289.968C634.978 288.581 634.605 287.035 634.605 285.328C634.605 283.6 634.968 282.064 635.693 280.72C636.44 279.376 637.442 278.32 638.701 277.552C639.981 276.763 641.41 276.368 642.989 276.368C644.269 276.368 645.4 276.603 646.381 277.072C647.384 277.52 648.226 278.139 648.909 278.928C649.613 279.696 650.146 280.581 650.509 281.584C650.893 282.565 651.085 283.589 651.085 284.656C651.085 284.891 651.064 285.157 651.021 285.456C651 285.733 650.968 286 650.925 286.256H636.781V283.696H649.197L647.789 284.848C647.981 283.739 647.874 282.747 647.469 281.872C647.064 280.997 646.466 280.304 645.677 279.792C644.888 279.28 643.992 279.024 642.989 279.024C641.986 279.024 641.069 279.28 640.237 279.792C639.405 280.304 638.754 281.04 638.285 282C637.837 282.939 637.656 284.059 637.741 285.36C637.656 286.619 637.848 287.728 638.317 288.688C638.808 289.627 639.49 290.363 640.365 290.896C641.261 291.408 642.232 291.664 643.277 291.664C644.429 291.664 645.4 291.397 646.189 290.864C646.978 290.331 647.618 289.648 648.109 288.816L650.605 290.096C650.264 290.885 649.73 291.611 649.005 292.272C648.301 292.912 647.458 293.424 646.477 293.808C645.517 294.192 644.44 294.384 643.245 294.384Z" fill="#040415"/>
<g filter="url(#filter1_d_192_1521)">
<circle cx="601.833" cy="136" r="94" fill="white"/>
<path d="M626.775 122.81L610.569 106.676C610.546 106.653 610.521 106.632 610.496 106.61C610.465 106.582 610.435 106.552 610.402 106.525C610.38 106.508 610.357 106.492 610.334 106.475C610.297 106.446 610.259 106.417 610.219 106.39C610.201 106.378 610.182 106.368 610.164 106.357C610.118 106.328 610.072 106.299 610.024 106.274C610.011 106.267 609.998 106.261 609.985 106.255C609.93 106.227 609.875 106.2 609.819 106.176C609.81 106.173 609.801 106.17 609.792 106.167C609.731 106.142 609.669 106.119 609.605 106.1C609.596 106.097 609.587 106.096 609.578 106.093C609.515 106.075 609.451 106.058 609.386 106.045C609.366 106.041 609.344 106.039 609.323 106.036C609.27 106.026 609.216 106.017 609.161 106.012C609.084 106.004 609.007 106 608.93 106H581.112C579.883 106.001 578.704 106.488 577.835 107.353C576.966 108.219 576.477 109.392 576.476 110.615V161.385C576.477 162.608 576.966 163.781 577.835 164.647C578.704 165.512 579.883 165.999 581.112 166H622.838C624.067 165.999 625.245 165.512 626.114 164.647C626.983 163.781 627.472 162.608 627.474 161.385V124.506C627.474 124.491 627.476 124.477 627.476 124.462C627.476 124.154 627.414 123.849 627.294 123.565C627.173 123.281 626.997 123.025 626.775 122.81ZM612.827 153.728C612.392 154.16 611.802 154.404 611.188 154.404C610.573 154.404 609.983 154.16 609.549 153.728L606.366 150.559C604.197 151.914 601.602 152.426 599.078 151.997C596.554 151.569 594.276 150.23 592.681 148.235C591.086 146.241 590.284 143.732 590.429 141.187C590.574 138.641 591.656 136.238 593.468 134.437C595.28 132.635 597.695 131.561 600.252 131.42C602.808 131.278 605.328 132.08 607.329 133.67C609.33 135.261 610.673 137.53 611.1 140.044C611.527 142.557 611.01 145.139 609.646 147.297L612.827 150.464C613.042 150.678 613.213 150.933 613.329 151.213C613.446 151.493 613.506 151.793 613.506 152.096C613.506 152.399 613.446 152.699 613.329 152.979C613.213 153.259 613.042 153.513 612.827 153.728ZM608.93 124.462V111.571L621.877 124.462H608.93Z" fill="url(#paint1_linear_192_1521)"/>
<path d="M600.815 136.003C599.476 136.004 598.178 136.467 597.143 137.314C596.108 138.161 595.4 139.339 595.14 140.647C594.879 141.955 595.083 143.312 595.715 144.488C596.347 145.664 597.369 146.585 598.607 147.095C599.845 147.604 601.222 147.671 602.503 147.283C603.785 146.895 604.892 146.077 605.636 144.968C606.379 143.859 606.714 142.527 606.582 141.2C606.45 139.873 605.86 138.633 604.913 137.69C604.375 137.154 603.736 136.729 603.033 136.439C602.33 136.15 601.576 136.001 600.815 136.003Z" fill="url(#paint2_linear_192_1521)"/>
</g>
<path fill-rule="evenodd" clip-rule="evenodd" d="M830.782 159.96C831.395 159.347 832.39 159.347 833.004 159.96L842.433 169.389C843.046 170.003 843.046 170.997 842.433 171.611L833.004 181.04C832.39 181.653 831.395 181.653 830.782 181.04C830.168 180.426 830.168 179.431 830.782 178.817L837.528 172.071H816.179C815.311 172.071 814.607 171.368 814.607 170.5C814.607 169.632 815.311 168.929 816.179 168.929H837.528L830.782 162.183C830.168 161.569 830.168 160.574 830.782 159.96Z" fill="#AFB4FF"/>
<path d="M1008.2 294V270.16H1011.33V294H1008.2ZM1024.12 294.384C1022.5 294.384 1021.04 293.989 1019.74 293.2C1018.46 292.411 1017.45 291.333 1016.7 289.968C1015.95 288.603 1015.58 287.077 1015.58 285.392C1015.58 283.664 1015.95 282.128 1016.7 280.784C1017.45 279.419 1018.46 278.341 1019.74 277.552C1021.04 276.763 1022.5 276.368 1024.12 276.368C1025.55 276.368 1026.82 276.677 1027.93 277.296C1029.04 277.893 1029.92 278.704 1030.56 279.728L1030.08 280.464V269.776H1033.08V294H1030.17V290.32L1030.56 290.832C1029.96 291.963 1029.08 292.837 1027.93 293.456C1026.8 294.075 1025.53 294.384 1024.12 294.384ZM1024.38 291.504C1025.47 291.504 1026.44 291.237 1027.29 290.704C1028.14 290.171 1028.82 289.445 1029.31 288.528C1029.82 287.589 1030.08 286.544 1030.08 285.392C1030.08 284.219 1029.82 283.173 1029.31 282.256C1028.82 281.317 1028.14 280.581 1027.29 280.048C1026.44 279.515 1025.47 279.248 1024.38 279.248C1023.31 279.248 1022.34 279.525 1021.47 280.08C1020.61 280.613 1019.94 281.339 1019.45 282.256C1018.96 283.152 1018.72 284.197 1018.72 285.392C1018.72 286.544 1018.96 287.589 1019.45 288.528C1019.94 289.445 1020.61 290.171 1021.47 290.704C1022.32 291.237 1023.29 291.504 1024.38 291.504ZM1045.63 294.384C1043.96 294.384 1042.48 293.989 1041.18 293.2C1039.88 292.411 1038.85 291.333 1038.11 289.968C1037.36 288.581 1036.99 287.035 1036.99 285.328C1036.99 283.6 1037.35 282.064 1038.07 280.72C1038.82 279.376 1039.82 278.32 1041.08 277.552C1042.36 276.763 1043.79 276.368 1045.37 276.368C1046.65 276.368 1047.78 276.603 1048.76 277.072C1049.76 277.52 1050.61 278.139 1051.29 278.928C1051.99 279.696 1052.53 280.581 1052.89 281.584C1053.27 282.565 1053.47 283.589 1053.47 284.656C1053.47 284.891 1053.44 285.157 1053.4 285.456C1053.38 285.733 1053.35 286 1053.31 286.256H1039.16V283.696H1051.58L1050.17 284.848C1050.36 283.739 1050.25 282.747 1049.85 281.872C1049.44 280.997 1048.85 280.304 1048.06 279.792C1047.27 279.28 1046.37 279.024 1045.37 279.024C1044.37 279.024 1043.45 279.28 1042.62 279.792C1041.79 280.304 1041.13 281.04 1040.67 282C1040.22 282.939 1040.04 284.059 1040.12 285.36C1040.04 286.619 1040.23 287.728 1040.7 288.688C1041.19 289.627 1041.87 290.363 1042.75 290.896C1043.64 291.408 1044.61 291.664 1045.66 291.664C1046.81 291.664 1047.78 291.397 1048.57 290.864C1049.36 290.331 1050 289.648 1050.49 288.816L1052.99 290.096C1052.64 290.885 1052.11 291.611 1051.39 292.272C1050.68 292.912 1049.84 293.424 1048.86 293.808C1047.9 294.192 1046.82 294.384 1045.63 294.384ZM1062.18 294.384C1061.05 294.384 1060.05 294.181 1059.17 293.776C1058.32 293.349 1057.65 292.773 1057.16 292.048C1056.67 291.301 1056.42 290.448 1056.42 289.488C1056.42 288.571 1056.61 287.749 1057 287.024C1057.4 286.277 1058.02 285.648 1058.85 285.136C1059.71 284.624 1060.77 284.261 1062.05 284.048L1068.45 282.992V285.488L1062.73 286.448C1061.62 286.64 1060.81 286.992 1060.29 287.504C1059.8 288.016 1059.56 288.645 1059.56 289.392C1059.56 290.096 1059.84 290.683 1060.39 291.152C1060.97 291.621 1061.68 291.856 1062.53 291.856C1063.62 291.856 1064.56 291.632 1065.35 291.184C1066.16 290.715 1066.79 290.085 1067.24 289.296C1067.71 288.507 1067.94 287.632 1067.94 286.672V282.288C1067.94 281.349 1067.59 280.592 1066.89 280.016C1066.2 279.419 1065.3 279.12 1064.17 279.12C1063.19 279.12 1062.31 279.376 1061.54 279.888C1060.8 280.379 1060.24 281.04 1059.88 281.872L1057.29 280.528C1057.61 279.739 1058.12 279.035 1058.82 278.416C1059.53 277.776 1060.35 277.275 1061.29 276.912C1062.23 276.549 1063.21 276.368 1064.23 276.368C1065.55 276.368 1066.72 276.624 1067.72 277.136C1068.72 277.627 1069.5 278.32 1070.05 279.216C1070.63 280.091 1070.92 281.115 1070.92 282.288V294H1068.01V290.736L1068.55 290.928C1068.19 291.611 1067.7 292.208 1067.08 292.72C1066.46 293.232 1065.73 293.637 1064.9 293.936C1064.07 294.235 1063.16 294.384 1062.18 294.384ZM1082.23 294.192C1080.54 294.192 1079.24 293.712 1078.32 292.752C1077.43 291.792 1076.98 290.437 1076.98 288.688V279.6H1073.84V276.752H1074.48C1075.25 276.752 1075.86 276.517 1076.31 276.048C1076.76 275.579 1076.98 274.96 1076.98 274.192V272.784H1079.96V276.752H1083.83V279.6H1079.96V288.592C1079.96 289.168 1080.04 289.669 1080.21 290.096C1080.4 290.523 1080.71 290.864 1081.14 291.12C1081.57 291.355 1082.13 291.472 1082.84 291.472C1082.99 291.472 1083.17 291.461 1083.38 291.44C1083.62 291.419 1083.83 291.397 1084.02 291.376V294C1083.74 294.064 1083.43 294.107 1083.09 294.128C1082.75 294.171 1082.46 294.192 1082.23 294.192ZM1095.38 294.384C1093.71 294.384 1092.23 293.989 1090.93 293.2C1089.63 292.411 1088.6 291.333 1087.86 289.968C1087.11 288.581 1086.74 287.035 1086.74 285.328C1086.74 283.6 1087.1 282.064 1087.82 280.72C1088.57 279.376 1089.57 278.32 1090.83 277.552C1092.11 276.763 1093.54 276.368 1095.12 276.368C1096.4 276.368 1097.53 276.603 1098.51 277.072C1099.51 277.52 1100.36 278.139 1101.04 278.928C1101.74 279.696 1102.28 280.581 1102.64 281.584C1103.02 282.565 1103.22 283.589 1103.22 284.656C1103.22 284.891 1103.19 285.157 1103.15 285.456C1103.13 285.733 1103.1 286 1103.06 286.256H1088.91V283.696H1101.33L1099.92 284.848C1100.11 283.739 1100 282.747 1099.6 281.872C1099.19 280.997 1098.6 280.304 1097.81 279.792C1097.02 279.28 1096.12 279.024 1095.12 279.024C1094.12 279.024 1093.2 279.28 1092.37 279.792C1091.54 280.304 1090.88 281.04 1090.42 282C1089.97 282.939 1089.79 284.059 1089.87 285.36C1089.79 286.619 1089.98 287.728 1090.45 288.688C1090.94 289.627 1091.62 290.363 1092.5 290.896C1093.39 291.408 1094.36 291.664 1095.41 291.664C1096.56 291.664 1097.53 291.397 1098.32 290.864C1099.11 290.331 1099.75 289.648 1100.24 288.816L1102.74 290.096C1102.39 290.885 1101.86 291.611 1101.14 292.272C1100.43 292.912 1099.59 293.424 1098.61 293.808C1097.65 294.192 1096.57 294.384 1095.38 294.384Z" fill="#040415"/>
<g filter="url(#filter2_d_192_1521)">
<circle cx="1054.67" cy="136" r="94" fill="white"/>
<path d="M1026.31 130.517L1021.61 130.038C1020.82 129.949 1020.11 130.524 1020.03 131.305C1019.95 132.085 1020.52 132.782 1021.32 132.863L1026.01 133.342C1026.77 133.425 1027.51 132.877 1027.59 132.076C1027.67 131.296 1027.1 130.598 1026.31 130.517ZM1029.39 120.7L1025.12 118.571C1024.42 118.217 1023.55 118.498 1023.19 119.198C1022.83 119.898 1023.12 120.752 1023.83 121.106L1028.1 123.235C1028.8 123.586 1029.67 123.312 1030.03 122.607C1030.39 121.908 1030.1 121.053 1029.39 120.7ZM1035.13 115.504C1035.7 114.952 1035.7 114.052 1035.14 113.495L1031.76 110.13C1031.21 109.574 1030.29 109.568 1029.73 110.12C1029.16 110.671 1029.16 111.571 1029.72 112.128L1033.1 115.495C1033.66 116.052 1034.57 116.056 1035.13 115.504ZM1040.2 110.158C1040.56 110.859 1041.43 111.134 1042.14 110.78C1042.85 110.424 1043.13 109.569 1042.77 108.87L1040.61 104.679C1040.25 103.981 1039.38 103.702 1038.67 104.058C1037.96 104.413 1037.68 105.268 1038.04 105.968L1040.2 110.158ZM1050.27 108.427C1051.06 108.304 1051.59 107.575 1051.47 106.801L1050.72 102.197C1050.6 101.423 1049.87 100.896 1049.08 101.018C1048.29 101.141 1047.76 101.869 1047.88 102.643L1048.62 107.248C1048.75 108.02 1049.48 108.548 1050.27 108.427ZM1058.78 108.427C1059.57 108.548 1060.3 108.019 1060.42 107.248L1061.17 102.643C1061.29 101.869 1060.76 101.141 1059.97 101.018C1059.18 100.898 1058.45 101.424 1058.32 102.197L1057.58 106.801C1057.46 107.575 1057.99 108.304 1058.78 108.427ZM1066.91 110.78C1067.61 111.134 1068.48 110.859 1068.85 110.158L1071.01 105.967C1071.37 105.267 1071.08 104.413 1070.37 104.057C1069.67 103.704 1068.8 103.981 1068.44 104.68L1066.28 108.87C1065.92 109.569 1066.2 110.424 1066.91 110.78ZM1079.32 110.12C1078.76 109.568 1077.85 109.57 1077.29 110.13L1073.91 113.496C1073.35 114.053 1073.35 114.952 1073.92 115.504C1074.48 116.056 1075.39 116.052 1075.95 115.494L1079.33 112.128C1079.89 111.571 1079.89 110.672 1079.32 110.12ZM1085.86 119.197C1085.5 118.497 1084.63 118.217 1083.92 118.57L1079.65 120.7C1078.94 121.053 1078.66 121.908 1079.02 122.607C1079.38 123.312 1080.25 123.586 1080.95 123.235L1085.22 121.105C1085.93 120.752 1086.21 119.897 1085.86 119.197ZM1087.44 130.038L1082.74 130.517C1081.95 130.598 1081.37 131.296 1081.46 132.076C1081.54 132.876 1082.27 133.425 1083.04 133.342L1087.73 132.863C1088.52 132.782 1089.1 132.085 1089.02 131.305C1088.93 130.525 1088.23 129.951 1087.44 130.038ZM1056.3 143.812C1056.46 140.93 1057.35 138.104 1058.86 135.605H1050.19C1051.7 138.104 1052.58 140.93 1052.75 143.812L1053.6 156.919H1055.45L1056.3 143.812Z" fill="url(#paint3_linear_192_1521)"/>
<path d="M1055.8 112.345C1043.42 111.649 1033.15 121.348 1033.15 133.389C1033.15 138.033 1034.65 142.435 1037.47 146.127C1039.97 149.379 1041.91 153.014 1043.27 156.919H1050.7L1049.88 143.983C1049.73 141.384 1048.89 138.856 1047.47 136.655C1046.95 135.874 1046.92 134.88 1047.37 134.057C1047.81 133.262 1048.66 132.765 1049.58 132.765H1059.47C1060.39 132.765 1061.24 133.262 1061.68 134.057C1062.13 134.866 1062.1 135.874 1061.58 136.655C1060.16 138.856 1059.32 141.384 1059.16 143.983L1058.34 156.919H1065.97C1067.38 153 1069.39 149.18 1071.98 145.573C1074.86 141.54 1076.23 136.599 1075.83 131.629C1074.96 121.234 1066.34 112.941 1055.8 112.345ZM1045.48 168.691C1045.57 170.552 1047.09 172 1048.94 172H1060.1C1061.96 172 1063.47 170.58 1063.55 168.777C1063.7 165.757 1064.2 162.738 1065.05 159.765H1044.13C1044.89 162.634 1045.35 165.621 1045.48 168.691Z" fill="url(#paint4_linear_192_1521)"/>
</g>
<path fill-rule="evenodd" clip-rule="evenodd" d="M1283.61 159.96C1284.23 159.347 1285.22 159.347 1285.84 159.96L1295.27 169.389C1295.88 170.003 1295.88 170.997 1295.27 171.611L1285.84 181.04C1285.22 181.653 1284.23 181.653 1283.61 181.04C1283 180.426 1283 179.431 1283.61 178.817L1290.36 172.071H1269.01C1268.14 172.071 1267.44 171.368 1267.44 170.5C1267.44 169.632 1268.14 168.929 1269.01 168.929H1290.36L1283.61 162.183C1283 161.569 1283 160.574 1283.61 159.96Z" fill="#AFB4FF"/>
<path d="M1457.17 294V270.16H1464.98C1467.39 270.16 1469.49 270.651 1471.28 271.632C1473.08 272.613 1474.46 274 1475.44 275.792C1476.42 277.563 1476.92 279.653 1476.92 282.064C1476.92 284.453 1476.42 286.544 1475.44 288.336C1474.46 290.128 1473.08 291.525 1471.28 292.528C1469.49 293.509 1467.39 294 1464.98 294H1457.17ZM1460.31 291.12H1465.01C1466.78 291.12 1468.31 290.747 1469.59 290C1470.89 289.253 1471.89 288.208 1472.6 286.864C1473.3 285.499 1473.65 283.899 1473.65 282.064C1473.65 280.208 1473.29 278.608 1472.56 277.264C1471.86 275.92 1470.86 274.885 1469.56 274.16C1468.28 273.413 1466.76 273.04 1465.01 273.04H1460.31V291.12ZM1488.47 294.384C1486.81 294.384 1485.33 293.989 1484.03 293.2C1482.73 292.411 1481.7 291.333 1480.95 289.968C1480.21 288.581 1479.83 287.035 1479.83 285.328C1479.83 283.6 1480.2 282.064 1480.92 280.72C1481.67 279.376 1482.67 278.32 1483.93 277.552C1485.21 276.763 1486.64 276.368 1488.22 276.368C1489.5 276.368 1490.63 276.603 1491.61 277.072C1492.61 277.52 1493.46 278.139 1494.14 278.928C1494.84 279.696 1495.38 280.581 1495.74 281.584C1496.12 282.565 1496.31 283.589 1496.31 284.656C1496.31 284.891 1496.29 285.157 1496.25 285.456C1496.23 285.733 1496.2 286 1496.15 286.256H1482.01V283.696H1494.43L1493.02 284.848C1493.21 283.739 1493.1 282.747 1492.7 281.872C1492.29 280.997 1491.7 280.304 1490.91 279.792C1490.12 279.28 1489.22 279.024 1488.22 279.024C1487.22 279.024 1486.3 279.28 1485.47 279.792C1484.63 280.304 1483.98 281.04 1483.51 282C1483.07 282.939 1482.89 284.059 1482.97 285.36C1482.89 286.619 1483.08 287.728 1483.55 288.688C1484.04 289.627 1484.72 290.363 1485.59 290.896C1486.49 291.408 1487.46 291.664 1488.51 291.664C1489.66 291.664 1490.63 291.397 1491.42 290.864C1492.21 290.331 1492.85 289.648 1493.34 288.816L1495.83 290.096C1495.49 290.885 1494.96 291.611 1494.23 292.272C1493.53 292.912 1492.69 293.424 1491.71 293.808C1490.75 294.192 1489.67 294.384 1488.47 294.384ZM1506.37 294.384C1504.64 294.384 1503.14 293.957 1501.86 293.104C1500.58 292.251 1499.67 291.099 1499.14 289.648L1501.51 288.496C1502 289.52 1502.67 290.331 1503.52 290.928C1504.38 291.525 1505.33 291.824 1506.37 291.824C1507.31 291.824 1508.09 291.6 1508.71 291.152C1509.33 290.704 1509.63 290.117 1509.63 289.392C1509.63 288.88 1509.49 288.475 1509.19 288.176C1508.91 287.856 1508.57 287.611 1508.16 287.44C1507.76 287.248 1507.38 287.109 1507.04 287.024L1504.45 286.288C1502.89 285.84 1501.75 285.2 1501.03 284.368C1500.32 283.536 1499.97 282.565 1499.97 281.456C1499.97 280.432 1500.23 279.547 1500.74 278.8C1501.27 278.032 1501.99 277.435 1502.88 277.008C1503.8 276.581 1504.82 276.368 1505.95 276.368C1507.47 276.368 1508.82 276.752 1510.02 277.52C1511.23 278.288 1512.1 279.365 1512.61 280.752L1510.18 281.872C1509.79 280.976 1509.22 280.272 1508.45 279.76C1507.68 279.227 1506.82 278.96 1505.86 278.96C1504.98 278.96 1504.29 279.184 1503.78 279.632C1503.27 280.059 1503.01 280.603 1503.01 281.264C1503.01 281.755 1503.14 282.16 1503.39 282.48C1503.65 282.779 1503.96 283.013 1504.32 283.184C1504.69 283.333 1505.04 283.461 1505.38 283.568L1508.19 284.4C1509.6 284.805 1510.69 285.435 1511.46 286.288C1512.25 287.141 1512.64 288.165 1512.64 289.36C1512.64 290.32 1512.38 291.184 1511.84 291.952C1511.31 292.72 1510.57 293.317 1509.63 293.744C1508.7 294.171 1507.61 294.384 1506.37 294.384ZM1516.54 294V276.752H1519.51V294H1516.54ZM1516.54 274V270.16H1519.51V274H1516.54ZM1532.36 301.04C1531.14 301.04 1530.01 300.848 1528.96 300.464C1527.94 300.08 1527.05 299.547 1526.31 298.864C1525.58 298.203 1525.03 297.424 1524.64 296.528L1527.43 295.248C1527.73 296.059 1528.29 296.741 1529.12 297.296C1529.98 297.872 1531.04 298.16 1532.32 298.16C1533.31 298.16 1534.19 297.968 1534.98 297.584C1535.79 297.221 1536.43 296.667 1536.9 295.92C1537.37 295.195 1537.6 294.309 1537.6 293.264V289.392L1538.15 289.968C1537.55 291.141 1536.69 292.037 1535.56 292.656C1534.45 293.275 1533.22 293.584 1531.88 293.584C1530.25 293.584 1528.8 293.211 1527.52 292.464C1526.24 291.696 1525.24 290.661 1524.52 289.36C1523.79 288.037 1523.43 286.576 1523.43 284.976C1523.43 283.355 1523.79 281.893 1524.52 280.592C1525.24 279.291 1526.23 278.267 1527.49 277.52C1528.77 276.752 1530.22 276.368 1531.84 276.368C1533.19 276.368 1534.4 276.677 1535.49 277.296C1536.6 277.893 1537.49 278.725 1538.15 279.792L1537.7 280.592V276.752H1540.61V293.264C1540.61 294.757 1540.26 296.091 1539.56 297.264C1538.85 298.437 1537.87 299.355 1536.61 300.016C1535.37 300.699 1533.96 301.04 1532.36 301.04ZM1532.13 290.704C1533.16 290.704 1534.07 290.448 1534.88 289.936C1535.72 289.424 1536.38 288.741 1536.87 287.888C1537.36 287.013 1537.6 286.043 1537.6 284.976C1537.6 283.931 1537.36 282.971 1536.87 282.096C1536.38 281.221 1535.72 280.528 1534.88 280.016C1534.07 279.504 1533.16 279.248 1532.13 279.248C1531.09 279.248 1530.14 279.504 1529.28 280.016C1528.43 280.528 1527.76 281.221 1527.27 282.096C1526.8 282.949 1526.56 283.909 1526.56 284.976C1526.56 286.043 1526.8 287.013 1527.27 287.888C1527.76 288.741 1528.42 289.424 1529.25 289.936C1530.11 290.448 1531.07 290.704 1532.13 290.704ZM1545.23 294V276.752H1548.14V280.112L1547.66 279.824C1548.08 278.736 1548.77 277.893 1549.71 277.296C1550.67 276.677 1551.79 276.368 1553.07 276.368C1554.3 276.368 1555.4 276.645 1556.36 277.2C1557.34 277.755 1558.11 278.523 1558.67 279.504C1559.24 280.485 1559.53 281.595 1559.53 282.832V294H1556.52V283.792C1556.52 282.832 1556.35 282.021 1556.01 281.36C1555.67 280.699 1555.18 280.187 1554.54 279.824C1553.92 279.44 1553.2 279.248 1552.39 279.248C1551.58 279.248 1550.86 279.44 1550.22 279.824C1549.6 280.187 1549.11 280.709 1548.75 281.392C1548.38 282.053 1548.2 282.853 1548.2 283.792V294H1545.23Z" fill="#040415"/>
<g filter="url(#filter3_d_192_1521)">
<circle cx="1507.5" cy="136" r="94" fill="white"/>
<path fill-rule="evenodd" clip-rule="evenodd" d="M1532.39 153.127C1532.47 153.231 1532.55 153.347 1532.6 153.474L1536.38 162.031C1536.75 162.821 1536.58 163.753 1535.96 164.373C1535.35 164.993 1534.4 165.173 1533.6 164.824L1524.73 161.266C1524.59 161.21 1524.46 161.133 1524.35 161.04L1532.39 153.127ZM1491.61 144.94L1499.09 151.674L1498.65 157.613C1498.52 159.396 1497.24 160.894 1495.48 161.335C1494.95 161.484 1484.85 164.284 1482.45 164.529C1482.02 164.574 1481.55 164.489 1481.11 164.298L1484.81 160.583C1485.25 160.135 1485.24 159.415 1484.79 158.976C1484.33 158.538 1483.6 158.546 1483.16 158.994L1479.44 162.728C1479.21 162.253 1479.1 161.743 1479.14 161.279C1479.39 158.918 1482.24 148.974 1482.39 148.447C1482.84 146.716 1484.36 145.461 1486.17 145.33L1491.61 144.94ZM1495.48 161.335L1495.51 161.329L1495.46 161.341C1495.47 161.339 1495.48 161.337 1495.48 161.335ZM1522.32 159.826C1522.26 159.783 1522.2 159.735 1522.15 159.683L1509.59 147.326C1512.56 144.989 1515.73 142.226 1518.95 139.144L1530.98 150.988C1531.03 151.04 1531.08 151.095 1531.13 151.153L1522.32 159.826ZM1493.14 143.241C1496.14 138.403 1501.44 131.984 1508.03 125.492C1516.41 117.248 1524.67 111.076 1529.71 108.925C1531.22 108.279 1532.5 107.982 1533.45 108.001C1534.43 108.021 1535.17 108.341 1535.7 108.86C1536.23 109.379 1536.55 110.11 1536.57 111.072C1536.59 112.013 1536.29 113.267 1535.63 114.757C1533.45 119.713 1527.18 127.851 1518.8 136.095C1512.4 142.402 1506.06 147.5 1501.2 150.494L1493.14 143.241ZM1482.39 148.447C1482.39 148.455 1482.39 148.463 1482.38 148.47L1482.4 148.425L1482.39 148.447ZM1496.62 134.556L1479 117.212C1478.43 116.648 1478.43 115.734 1479 115.171L1485.76 108.516C1486.33 107.952 1487.26 107.952 1487.84 108.516L1504.93 125.347C1501.8 128.515 1499 131.642 1496.62 134.556Z" fill="url(#paint5_linear_192_1521)"/>
</g>
<defs>
<filter id="filter0_d_192_1521" x="45" y="0" width="324" height="324" filterUnits="userSpaceOnUse" color-interpolation-filters="sRGB">
<feFlood flood-opacity="0" result="BackgroundImageFix"/>
<feColorMatrix in="SourceAlpha" type="matrix" values="0 0 0 0 0 0 0 0 0 0 0 0 0 0 0 0 0 0 127 0" result="hardAlpha"/>
<feOffset dx="58" dy="26"/>
<feGaussianBlur stdDeviation="34"/>
<feComposite in2="hardAlpha" operator="out"/>
<feColorMatrix type="matrix" values="0 0 0 0 0.135417 0 0 0 0 0.173611 0 0 0 0 0.364583 0 0 0 0.06 0"/>
<feBlend mode="normal" in2="BackgroundImageFix" result="effect1_dropShadow_192_1521"/>
<feBlend mode="normal" in="SourceGraphic" in2="effect1_dropShadow_192_1521" result="shape"/>
</filter>
<filter id="filter1_d_192_1521" x="497.833" y="0" width="324" height="324" filterUnits="userSpaceOnUse" color-interpolation-filters="sRGB">
<feFlood flood-opacity="0" result="BackgroundImageFix"/>
<feColorMatrix in="SourceAlpha" type="matrix" values="0 0 0 0 0 0 0 0 0 0 0 0 0 0 0 0 0 0 127 0" result="hardAlpha"/>
<feOffset dx="58" dy="26"/>
<feGaussianBlur stdDeviation="34"/>
<feComposite in2="hardAlpha" operator="out"/>
<feColorMatrix type="matrix" values="0 0 0 0 0.135417 0 0 0 0 0.173611 0 0 0 0 0.364583 0 0 0 0.06 0"/>
<feBlend mode="normal" in2="BackgroundImageFix" result="effect1_dropShadow_192_1521"/>
<feBlend mode="normal" in="SourceGraphic" in2="effect1_dropShadow_192_1521" result="shape"/>
</filter>
<filter id="filter2_d_192_1521" x="950.667" y="0" width="324" height="324" filterUnits="userSpaceOnUse" color-interpolation-filters="sRGB">
<feFlood flood-opacity="0" result="BackgroundImageFix"/>
<feColorMatrix in="SourceAlpha" type="matrix" values="0 0 0 0 0 0 0 0 0 0 0 0 0 0 0 0 0 0 127 0" result="hardAlpha"/>
<feOffset dx="58" dy="26"/>
<feGaussianBlur stdDeviation="34"/>
<feComposite in2="hardAlpha" operator="out"/>
<feColorMatrix type="matrix" values="0 0 0 0 0.135417 0 0 0 0 0.173611 0 0 0 0 0.364583 0 0 0 0.06 0"/>
<feBlend mode="normal" in2="BackgroundImageFix" result="effect1_dropShadow_192_1521"/>
<feBlend mode="normal" in="SourceGraphic" in2="effect1_dropShadow_192_1521" result="shape"/>
</filter>
<filter id="filter3_d_192_1521" x="1403.5" y="0" width="324" height="324" filterUnits="userSpaceOnUse" color-interpolation-filters="sRGB">
<feFlood flood-opacity="0" result="BackgroundImageFix"/>
<feColorMatrix in="SourceAlpha" type="matrix" values="0 0 0 0 0 0 0 0 0 0 0 0 0 0 0 0 0 0 127 0" result="hardAlpha"/>
<feOffset dx="58" dy="26"/>
<feGaussianBlur stdDeviation="34"/>
<feComposite in2="hardAlpha" operator="out"/>
<feColorMatrix type="matrix" values="0 0 0 0 0.135417 0 0 0 0 0.173611 0 0 0 0 0.364583 0 0 0 0.06 0"/>
<feBlend mode="normal" in2="BackgroundImageFix" result="effect1_dropShadow_192_1521"/>
<feBlend mode="normal" in="SourceGraphic" in2="effect1_dropShadow_192_1521" result="shape"/>
</filter>
<linearGradient id="paint0_linear_192_1521" x1="116.929" y1="104" x2="180.929" y2="168" gradientUnits="userSpaceOnUse">
<stop stop-color="#6B73FF"/>
<stop offset="1" stop-color="#000DFF"/>
</linearGradient>
<linearGradient id="paint1_linear_192_1521" x1="576.476" y1="106" x2="635.692" y2="156.334" gradientUnits="userSpaceOnUse">
<stop stop-color="#6B73FF"/>
<stop offset="1" stop-color="#000DFF"/>
</linearGradient>
<linearGradient id="paint2_linear_192_1521" x1="576.476" y1="106" x2="635.692" y2="156.334" gradientUnits="userSpaceOnUse">
<stop stop-color="#6B73FF"/>
<stop offset="1" stop-color="#000DFF"/>
</linearGradient>
<linearGradient id="paint3_linear_192_1521" x1="1020.02" y1="101" x2="1090.99" y2="169.972" gradientUnits="userSpaceOnUse">
<stop stop-color="#6B73FF"/>
<stop offset="1" stop-color="#000DFF"/>
</linearGradient>
<linearGradient id="paint4_linear_192_1521" x1="1020.02" y1="101" x2="1090.99" y2="169.972" gradientUnits="userSpaceOnUse">
<stop stop-color="#6B73FF"/>
<stop offset="1" stop-color="#000DFF"/>
</linearGradient>
<linearGradient id="paint5_linear_192_1521" x1="1478.57" y1="108" x2="1535.56" y2="165.991" gradientUnits="userSpaceOnUse">
<stop stop-color="#6B73FF"/>
<stop offset="1" stop-color="#000DFF"/>
</linearGradient>
</defs>
</svg>
